%TF.GenerationSoftware,KiCad,Pcbnew,10.0.5*%
%TF.CreationDate,2026-08-04T23:13:56+02:00*%
%TF.ProjectId,promatrix-4000-io,70726f6d-6174-4726-9978-2d343030302d,rev?*%
%TF.SameCoordinates,Original*%
%TF.FileFunction,Paste,Top*%
%TF.FilePolarity,Positive*%
%FSLAX46Y46*%
G04 Gerber Fmt 4.6, Leading zero omitted, Abs format (unit mm)*
G04 Created by KiCad (PCBNEW 10.0.5) date 2026-08-04 23:13:56*
%MOMM*%
%LPD*%
G01*
G04 APERTURE LIST*
G04 Aperture macros list*
%AMRoundRect*
0 Rectangle with rounded corners*
0 $1 Rounding radius*
0 $2 $3 $4 $5 $6 $7 $8 $9 X,Y pos of 4 corners*
0 Add a 4 corners polygon primitive as box body*
4,1,4,$2,$3,$4,$5,$6,$7,$8,$9,$2,$3,0*
0 Add four circle primitives for the rounded corners*
1,1,$1+$1,$2,$3*
1,1,$1+$1,$4,$5*
1,1,$1+$1,$6,$7*
1,1,$1+$1,$8,$9*
0 Add four rect primitives between the rounded corners*
20,1,$1+$1,$2,$3,$4,$5,0*
20,1,$1+$1,$4,$5,$6,$7,0*
20,1,$1+$1,$6,$7,$8,$9,0*
20,1,$1+$1,$8,$9,$2,$3,0*%
G04 Aperture macros list end*
%ADD10RoundRect,0.140000X-0.170000X0.140000X-0.170000X-0.140000X0.170000X-0.140000X0.170000X0.140000X0*%
%ADD11R,1.500000X2.500000*%
%ADD12RoundRect,0.140000X0.170000X-0.140000X0.170000X0.140000X-0.170000X0.140000X-0.170000X-0.140000X0*%
%ADD13R,2.100000X2.000000*%
%ADD14R,2.500000X1.900000*%
%ADD15R,2.000000X2.000000*%
%ADD16O,0.630000X1.615000*%
G04 APERTURE END LIST*
D10*
%TO.C,R13*%
X160000000Y-84500000D03*
X160000000Y-85500000D03*
%TD*%
D11*
%TO.C,U6*%
X162270000Y-73700000D03*
X159730000Y-73700000D03*
X159730000Y-82300000D03*
X162270000Y-82300000D03*
%TD*%
D12*
%TO.C,R2*%
X185500000Y-76000000D03*
X185500000Y-75000000D03*
%TD*%
D11*
%TO.C,U7*%
X169270000Y-73700000D03*
X166730000Y-73700000D03*
X166730000Y-82300000D03*
X169270000Y-82300000D03*
%TD*%
D13*
%TO.C,DC1*%
X111000000Y-60950000D03*
X111000000Y-54950000D03*
D14*
X99800000Y-54950000D03*
D15*
X100050000Y-61050000D03*
%TD*%
D12*
%TO.C,R4*%
X150500000Y-76000000D03*
X150500000Y-75000000D03*
%TD*%
%TO.C,R5*%
X157500000Y-76000000D03*
X157500000Y-75000000D03*
%TD*%
%TO.C,R3*%
X192500000Y-76000000D03*
X192500000Y-75000000D03*
%TD*%
%TO.C,R6*%
X164500000Y-76000000D03*
X164500000Y-75000000D03*
%TD*%
D10*
%TO.C,R10*%
X188000000Y-84500000D03*
X188000000Y-85500000D03*
%TD*%
%TO.C,R12*%
X153000000Y-84500000D03*
X153000000Y-85500000D03*
%TD*%
D16*
%TO.C,U9*%
X128920000Y-82960000D03*
X130190000Y-82960000D03*
X131460000Y-82960000D03*
X132730000Y-82960000D03*
X134000000Y-82960000D03*
X135270000Y-82960000D03*
X136540000Y-82960000D03*
X137810000Y-82960000D03*
X139080000Y-82960000D03*
X139080000Y-73040000D03*
X137810000Y-73040000D03*
X136540000Y-73040000D03*
X135270000Y-73040000D03*
X134000000Y-73040000D03*
X132730000Y-73040000D03*
X131460000Y-73040000D03*
X130190000Y-73040000D03*
X128920000Y-73040000D03*
%TD*%
D12*
%TO.C,R1*%
X178500000Y-76000000D03*
X178500000Y-75000000D03*
%TD*%
D11*
%TO.C,U5*%
X155270000Y-73700000D03*
X152730000Y-73700000D03*
X152730000Y-82300000D03*
X155270000Y-82300000D03*
%TD*%
D12*
%TO.C,R7*%
X171500000Y-76000000D03*
X171500000Y-75000000D03*
%TD*%
D11*
%TO.C,U3*%
X190270000Y-73700000D03*
X187730000Y-73700000D03*
X187730000Y-82300000D03*
X190270000Y-82300000D03*
%TD*%
%TO.C,U1*%
X176270000Y-73700000D03*
X173730000Y-73700000D03*
X173730000Y-82300000D03*
X176270000Y-82300000D03*
%TD*%
D10*
%TO.C,R9*%
X181000000Y-84500000D03*
X181000000Y-85500000D03*
%TD*%
D11*
%TO.C,U4*%
X148270000Y-73700000D03*
X145730000Y-73700000D03*
X145730000Y-82300000D03*
X148270000Y-82300000D03*
%TD*%
D10*
%TO.C,R8*%
X174000000Y-84500000D03*
X174000000Y-85500000D03*
%TD*%
%TO.C,R11*%
X146000000Y-84500000D03*
X146000000Y-85500000D03*
%TD*%
%TO.C,R14*%
X167000000Y-84500000D03*
X167000000Y-85500000D03*
%TD*%
D11*
%TO.C,U2*%
X183270000Y-73700000D03*
X180730000Y-73700000D03*
X180730000Y-82300000D03*
X183270000Y-82300000D03*
%TD*%
M02*
