%TF.GenerationSoftware,KiCad,Pcbnew,10.0.5*%
%TF.CreationDate,2026-08-04T23:13:56+02:00*%
%TF.ProjectId,promatrix-4000-io,70726f6d-6174-4726-9978-2d343030302d,rev?*%
%TF.SameCoordinates,Original*%
%TF.FileFunction,Copper,L2,Bot*%
%TF.FilePolarity,Positive*%
%FSLAX46Y46*%
G04 Gerber Fmt 4.6, Leading zero omitted, Abs format (unit mm)*
G04 Created by KiCad (PCBNEW 10.0.5) date 2026-08-04 23:13:56*
%MOMM*%
%LPD*%
G01*
G04 APERTURE LIST*
G04 Aperture macros list*
%AMRoundRect*
0 Rectangle with rounded corners*
0 $1 Rounding radius*
0 $2 $3 $4 $5 $6 $7 $8 $9 X,Y pos of 4 corners*
0 Add a 4 corners polygon primitive as box body*
4,1,4,$2,$3,$4,$5,$6,$7,$8,$9,$2,$3,0*
0 Add four circle primitives for the rounded corners*
1,1,$1+$1,$2,$3*
1,1,$1+$1,$4,$5*
1,1,$1+$1,$6,$7*
1,1,$1+$1,$8,$9*
0 Add four rect primitives between the rounded corners*
20,1,$1+$1,$2,$3,$4,$5,0*
20,1,$1+$1,$4,$5,$6,$7,0*
20,1,$1+$1,$6,$7,$8,$9,0*
20,1,$1+$1,$8,$9,$2,$3,0*%
G04 Aperture macros list end*
%TA.AperFunction,ComponentPad*%
%ADD10C,1.524000*%
%TD*%
%TA.AperFunction,ComponentPad*%
%ADD11C,3.400000*%
%TD*%
%TA.AperFunction,ComponentPad*%
%ADD12C,2.200000*%
%TD*%
%TA.AperFunction,ComponentPad*%
%ADD13C,1.900000*%
%TD*%
%TA.AperFunction,ComponentPad*%
%ADD14C,1.700000*%
%TD*%
%TA.AperFunction,ComponentPad*%
%ADD15RoundRect,0.190500X0.444500X-1.079500X0.444500X1.079500X-0.444500X1.079500X-0.444500X-1.079500X0*%
%TD*%
%TA.AperFunction,ComponentPad*%
%ADD16RoundRect,0.190500X1.079500X0.444500X-1.079500X0.444500X-1.079500X-0.444500X1.079500X-0.444500X0*%
%TD*%
%TA.AperFunction,ComponentPad*%
%ADD17R,1.270000X2.540000*%
%TD*%
%TA.AperFunction,ViaPad*%
%ADD18C,0.600000*%
%TD*%
%TA.AperFunction,Conductor*%
%ADD19C,0.200000*%
%TD*%
G04 APERTURE END LIST*
D10*
%TO.P,RJ2,8,8_8*%
%TO.N,Net-(U7-CAT)*%
X164850000Y-59890000D03*
%TO.P,RJ2,7,7_7*%
%TO.N,GND*%
X163830000Y-58110000D03*
%TO.P,RJ2,6,6_6*%
%TO.N,Net-(U6-CAT)*%
X162810000Y-59890000D03*
%TO.P,RJ2,5,5_5*%
%TO.N,GND*%
X161790000Y-58110000D03*
%TO.P,RJ2,4,4_4*%
%TO.N,Net-(U5-CAT)*%
X160770000Y-59890000D03*
%TO.P,RJ2,3,3_3*%
%TO.N,GND*%
X159750000Y-58110000D03*
%TO.P,RJ2,2,2_2*%
%TO.N,Net-(U4-CAT)*%
X158730000Y-59890000D03*
%TO.P,RJ2,1,1_1*%
%TO.N,GND*%
X157710000Y-58110000D03*
D11*
%TO.P,RJ2,*%
%TO.N,*%
X154930000Y-55570000D03*
X167630000Y-55570000D03*
%TD*%
D12*
%TO.P,CN2,2,2_2*%
%TO.N,/Clock-*%
X207460000Y-55000000D03*
%TO.P,CN2,1,1_1*%
%TO.N,/Clock+*%
X212540000Y-55000000D03*
%TD*%
D11*
%TO.P,RJ4,*%
%TO.N,*%
X129393333Y-55570000D03*
X116693333Y-55570000D03*
D10*
%TO.P,RJ4,1,1_1*%
%TO.N,+24V*%
X119473333Y-58110000D03*
%TO.P,RJ4,2,2_2*%
%TO.N,Net-(RJ4-Pad2)*%
X120493333Y-59890000D03*
%TO.P,RJ4,3,3_3*%
%TO.N,+24V*%
X121513333Y-58110000D03*
%TO.P,RJ4,4,4_4*%
%TO.N,Net-(RJ4-Pad4)*%
X122533333Y-59890000D03*
%TO.P,RJ4,5,5_5*%
%TO.N,+24V*%
X123553333Y-58110000D03*
%TO.P,RJ4,6,6_6*%
%TO.N,Net-(RJ4-Pad6)*%
X124573333Y-59890000D03*
%TO.P,RJ4,7,7_7*%
%TO.N,+24V*%
X125593333Y-58110000D03*
%TO.P,RJ4,8,8_8*%
%TO.N,Net-(RJ4-Pad8)*%
X126613333Y-59890000D03*
%TD*%
D11*
%TO.P,RJ1,*%
%TO.N,*%
X186748333Y-55570000D03*
X174048333Y-55570000D03*
D10*
%TO.P,RJ1,1,1_1*%
%TO.N,/Clock+*%
X176828333Y-58110000D03*
%TO.P,RJ1,2,2_2*%
%TO.N,/Clock-*%
X177848333Y-59890000D03*
%TO.P,RJ1,3,3_3*%
%TO.N,GND*%
X178868333Y-58110000D03*
%TO.P,RJ1,4,4_4*%
%TO.N,Net-(U1-CAT)*%
X179888333Y-59890000D03*
%TO.P,RJ1,5,5_5*%
%TO.N,GND*%
X180908333Y-58110000D03*
%TO.P,RJ1,6,6_6*%
%TO.N,Net-(U2-CAT)*%
X181928333Y-59890000D03*
%TO.P,RJ1,7,7_7*%
%TO.N,GND*%
X182948333Y-58110000D03*
%TO.P,RJ1,8,8_8*%
%TO.N,Net-(U3-CAT)*%
X183968333Y-59890000D03*
%TD*%
D13*
%TO.P,DC1,*%
%TO.N,*%
X105500000Y-59250000D03*
D14*
X105500000Y-54950000D03*
%TD*%
D11*
%TO.P,RJ3,*%
%TO.N,*%
X148511667Y-55570000D03*
X135811667Y-55570000D03*
D10*
%TO.P,RJ3,1,1_1*%
%TO.N,+24V*%
X138591667Y-58110000D03*
%TO.P,RJ3,2,2_2*%
%TO.N,Net-(RJ3-Pad2)*%
X139611667Y-59890000D03*
%TO.P,RJ3,3,3_3*%
%TO.N,+24V*%
X140631667Y-58110000D03*
%TO.P,RJ3,4,4_4*%
%TO.N,Net-(RJ3-Pad4)*%
X141651667Y-59890000D03*
%TO.P,RJ3,5,5_5*%
%TO.N,+24V*%
X142671667Y-58110000D03*
%TO.P,RJ3,6,6_6*%
%TO.N,Net-(RJ3-Pad6)*%
X143691667Y-59890000D03*
%TO.P,RJ3,7,7_7*%
%TO.N,+24V*%
X144711667Y-58110000D03*
%TO.P,RJ3,8,8_8*%
%TO.N,Net-(RJ3-Pad8)*%
X145731667Y-59890000D03*
%TD*%
D15*
%TO.P,U8,1,GPIO0_1*%
%TO.N,/Out 1*%
X217910000Y-88120000D03*
%TO.P,U8,2,GPIO1_2*%
%TO.N,/Out 2*%
X215370000Y-88120000D03*
%TO.P,U8,3,GPIO2_3*%
%TO.N,/Out 3*%
X212830000Y-88120000D03*
%TO.P,U8,4,GPIO3_4*%
%TO.N,/Out 4*%
X210290000Y-88120000D03*
%TO.P,U8,5,GPIO4_5*%
%TO.N,/Out 5*%
X207750000Y-88120000D03*
%TO.P,U8,6,GPIO5_6*%
%TO.N,/Out 6*%
X205210000Y-88120000D03*
%TO.P,U8,7,GPIO6_7*%
%TO.N,/Out 7*%
X202670000Y-88120000D03*
%TO.P,U8,8,GPIO7_8*%
%TO.N,/Out 8*%
X200130000Y-88120000D03*
%TO.P,U8,9,GPIO8_9*%
%TO.N,/In 3*%
X197590000Y-88120000D03*
D16*
%TO.P,U8,10,GPIO9_10*%
%TO.N,/In 2*%
X197590000Y-85580000D03*
%TO.P,U8,11,GPIO10_11*%
%TO.N,/In 1*%
X197590000Y-83040000D03*
%TO.P,U8,12,GPIO11_12*%
%TO.N,/In 7*%
X197590000Y-80500000D03*
%TO.P,U8,13,GPIO12_13*%
%TO.N,/In 6*%
X197590000Y-77960000D03*
%TO.P,U8,14,GPIO13_14*%
%TO.N,/In 5*%
X197590000Y-75420000D03*
D15*
%TO.P,U8,15,GPIO14_15*%
%TO.N,/In 4*%
X197590000Y-72880000D03*
%TO.P,U8,16,GPIO15_16*%
%TO.N,unconnected-(U8-GPIO15-Pad16)*%
X200130000Y-72880000D03*
%TO.P,U8,17,GPIO26_17*%
%TO.N,unconnected-(U8-GPIO26-Pad17)*%
X202670000Y-72880000D03*
%TO.P,U8,18,GPIO27_18*%
%TO.N,unconnected-(U8-GPIO27-Pad18)*%
X205210000Y-72880000D03*
%TO.P,U8,19,GPIO28_19*%
%TO.N,unconnected-(U8-GPIO28-Pad19)*%
X207750000Y-72880000D03*
%TO.P,U8,20,GPIO29_20*%
%TO.N,unconnected-(U8-GPIO29-Pad20)*%
X210290000Y-72880000D03*
%TO.P,U8,21,3V_21*%
%TO.N,+3.3V*%
X212830000Y-72880000D03*
%TO.P,U8,22,GND_22*%
%TO.N,GND*%
X215370000Y-72880000D03*
D17*
%TO.P,U8,23,5V_23*%
%TO.N,unconnected-(U8-5V-Pad23)*%
X217910000Y-72880000D03*
%TD*%
D12*
%TO.P,CN1,1,1_1*%
%TO.N,/Clock+*%
X199166667Y-55000000D03*
%TO.P,CN1,2,2_2*%
%TO.N,/Clock-*%
X194086667Y-55000000D03*
%TD*%
D18*
%TO.N,GND*%
X152100000Y-85500000D03*
X145100000Y-85500000D03*
X159100000Y-85500000D03*
X173100000Y-85500000D03*
X180100000Y-85500000D03*
X187100000Y-85500000D03*
X140100000Y-83000000D03*
X99800000Y-53400000D03*
X166100000Y-85500000D03*
X98400000Y-61000000D03*
%TD*%
%TO.N,/In 2*%
D19*
X197600000Y-85600000D02*
X197590000Y-85580000D01*
%TD*%
%TA.AperFunction,Conductor*%
%TO.N,GND*%
G36*
X220485148Y-50514852D02*
G01*
X220499500Y-50549500D01*
X220499500Y-94450500D01*
X220485148Y-94485148D01*
X220450500Y-94499500D01*
X96549500Y-94499500D01*
X96514852Y-94485148D01*
X96500500Y-94450500D01*
X96500500Y-87009726D01*
X196754500Y-87009726D01*
X196754500Y-89230274D01*
X196769001Y-89321832D01*
X196769001Y-89321833D01*
X196769002Y-89321835D01*
X196769002Y-89321837D01*
X196825226Y-89432182D01*
X196825231Y-89432189D01*
X196912810Y-89519768D01*
X196912817Y-89519773D01*
X197023163Y-89575997D01*
X197023164Y-89575997D01*
X197023168Y-89575999D01*
X197114726Y-89590500D01*
X197114727Y-89590500D01*
X198065273Y-89590500D01*
X198065274Y-89590500D01*
X198156832Y-89575999D01*
X198156836Y-89575997D01*
X198156837Y-89575997D01*
X198267182Y-89519773D01*
X198267184Y-89519771D01*
X198267189Y-89519769D01*
X198354769Y-89432189D01*
X198354773Y-89432182D01*
X198410997Y-89321837D01*
X198410997Y-89321835D01*
X198410999Y-89321832D01*
X198425500Y-89230274D01*
X198425500Y-87009726D01*
X199294500Y-87009726D01*
X199294500Y-89230274D01*
X199309001Y-89321832D01*
X199309001Y-89321833D01*
X199309002Y-89321835D01*
X199309002Y-89321837D01*
X199365226Y-89432182D01*
X199365231Y-89432189D01*
X199452810Y-89519768D01*
X199452817Y-89519773D01*
X199563163Y-89575997D01*
X199563164Y-89575997D01*
X199563168Y-89575999D01*
X199654726Y-89590500D01*
X199654727Y-89590500D01*
X200605273Y-89590500D01*
X200605274Y-89590500D01*
X200696832Y-89575999D01*
X200696836Y-89575997D01*
X200696837Y-89575997D01*
X200807182Y-89519773D01*
X200807184Y-89519771D01*
X200807189Y-89519769D01*
X200894769Y-89432189D01*
X200894773Y-89432182D01*
X200950997Y-89321837D01*
X200950997Y-89321835D01*
X200950999Y-89321832D01*
X200965500Y-89230274D01*
X200965500Y-87009726D01*
X201834500Y-87009726D01*
X201834500Y-89230274D01*
X201849001Y-89321832D01*
X201849001Y-89321833D01*
X201849002Y-89321835D01*
X201849002Y-89321837D01*
X201905226Y-89432182D01*
X201905231Y-89432189D01*
X201992810Y-89519768D01*
X201992817Y-89519773D01*
X202103163Y-89575997D01*
X202103164Y-89575997D01*
X202103168Y-89575999D01*
X202194726Y-89590500D01*
X202194727Y-89590500D01*
X203145273Y-89590500D01*
X203145274Y-89590500D01*
X203236832Y-89575999D01*
X203236836Y-89575997D01*
X203236837Y-89575997D01*
X203347182Y-89519773D01*
X203347184Y-89519771D01*
X203347189Y-89519769D01*
X203434769Y-89432189D01*
X203434773Y-89432182D01*
X203490997Y-89321837D01*
X203490997Y-89321835D01*
X203490999Y-89321832D01*
X203505500Y-89230274D01*
X203505500Y-87009726D01*
X204374500Y-87009726D01*
X204374500Y-89230274D01*
X204389001Y-89321832D01*
X204389001Y-89321833D01*
X204389002Y-89321835D01*
X204389002Y-89321837D01*
X204445226Y-89432182D01*
X204445231Y-89432189D01*
X204532810Y-89519768D01*
X204532817Y-89519773D01*
X204643163Y-89575997D01*
X204643164Y-89575997D01*
X204643168Y-89575999D01*
X204734726Y-89590500D01*
X204734727Y-89590500D01*
X205685273Y-89590500D01*
X205685274Y-89590500D01*
X205776832Y-89575999D01*
X205776836Y-89575997D01*
X205776837Y-89575997D01*
X205887182Y-89519773D01*
X205887184Y-89519771D01*
X205887189Y-89519769D01*
X205974769Y-89432189D01*
X205974773Y-89432182D01*
X206030997Y-89321837D01*
X206030997Y-89321835D01*
X206030999Y-89321832D01*
X206045500Y-89230274D01*
X206045500Y-87009726D01*
X206914500Y-87009726D01*
X206914500Y-89230274D01*
X206929001Y-89321832D01*
X206929001Y-89321833D01*
X206929002Y-89321835D01*
X206929002Y-89321837D01*
X206985226Y-89432182D01*
X206985231Y-89432189D01*
X207072810Y-89519768D01*
X207072817Y-89519773D01*
X207183163Y-89575997D01*
X207183164Y-89575997D01*
X207183168Y-89575999D01*
X207274726Y-89590500D01*
X207274727Y-89590500D01*
X208225273Y-89590500D01*
X208225274Y-89590500D01*
X208316832Y-89575999D01*
X208316836Y-89575997D01*
X208316837Y-89575997D01*
X208427182Y-89519773D01*
X208427184Y-89519771D01*
X208427189Y-89519769D01*
X208514769Y-89432189D01*
X208514773Y-89432182D01*
X208570997Y-89321837D01*
X208570997Y-89321835D01*
X208570999Y-89321832D01*
X208585500Y-89230274D01*
X208585500Y-87009726D01*
X209454500Y-87009726D01*
X209454500Y-89230274D01*
X209469001Y-89321832D01*
X209469001Y-89321833D01*
X209469002Y-89321835D01*
X209469002Y-89321837D01*
X209525226Y-89432182D01*
X209525231Y-89432189D01*
X209612810Y-89519768D01*
X209612817Y-89519773D01*
X209723163Y-89575997D01*
X209723164Y-89575997D01*
X209723168Y-89575999D01*
X209814726Y-89590500D01*
X209814727Y-89590500D01*
X210765273Y-89590500D01*
X210765274Y-89590500D01*
X210856832Y-89575999D01*
X210856836Y-89575997D01*
X210856837Y-89575997D01*
X210967182Y-89519773D01*
X210967184Y-89519771D01*
X210967189Y-89519769D01*
X211054769Y-89432189D01*
X211054773Y-89432182D01*
X211110997Y-89321837D01*
X211110997Y-89321835D01*
X211110999Y-89321832D01*
X211125500Y-89230274D01*
X211125500Y-87009726D01*
X211994500Y-87009726D01*
X211994500Y-89230274D01*
X212009001Y-89321832D01*
X212009001Y-89321833D01*
X212009002Y-89321835D01*
X212009002Y-89321837D01*
X212065226Y-89432182D01*
X212065231Y-89432189D01*
X212152810Y-89519768D01*
X212152817Y-89519773D01*
X212263163Y-89575997D01*
X212263164Y-89575997D01*
X212263168Y-89575999D01*
X212354726Y-89590500D01*
X212354727Y-89590500D01*
X213305273Y-89590500D01*
X213305274Y-89590500D01*
X213396832Y-89575999D01*
X213396836Y-89575997D01*
X213396837Y-89575997D01*
X213507182Y-89519773D01*
X213507184Y-89519771D01*
X213507189Y-89519769D01*
X213594769Y-89432189D01*
X213594773Y-89432182D01*
X213650997Y-89321837D01*
X213650997Y-89321835D01*
X213650999Y-89321832D01*
X213665500Y-89230274D01*
X213665500Y-87009726D01*
X214534500Y-87009726D01*
X214534500Y-89230274D01*
X214549001Y-89321832D01*
X214549001Y-89321833D01*
X214549002Y-89321835D01*
X214549002Y-89321837D01*
X214605226Y-89432182D01*
X214605231Y-89432189D01*
X214692810Y-89519768D01*
X214692817Y-89519773D01*
X214803163Y-89575997D01*
X214803164Y-89575997D01*
X214803168Y-89575999D01*
X214894726Y-89590500D01*
X214894727Y-89590500D01*
X215845273Y-89590500D01*
X215845274Y-89590500D01*
X215936832Y-89575999D01*
X215936836Y-89575997D01*
X215936837Y-89575997D01*
X216047182Y-89519773D01*
X216047184Y-89519771D01*
X216047189Y-89519769D01*
X216134769Y-89432189D01*
X216134773Y-89432182D01*
X216190997Y-89321837D01*
X216190997Y-89321835D01*
X216190999Y-89321832D01*
X216205500Y-89230274D01*
X216205500Y-87009726D01*
X217074500Y-87009726D01*
X217074500Y-89230274D01*
X217089001Y-89321832D01*
X217089001Y-89321833D01*
X217089002Y-89321835D01*
X217089002Y-89321837D01*
X217145226Y-89432182D01*
X217145231Y-89432189D01*
X217232810Y-89519768D01*
X217232817Y-89519773D01*
X217343163Y-89575997D01*
X217343164Y-89575997D01*
X217343168Y-89575999D01*
X217434726Y-89590500D01*
X217434727Y-89590500D01*
X218385273Y-89590500D01*
X218385274Y-89590500D01*
X218476832Y-89575999D01*
X218476836Y-89575997D01*
X218476837Y-89575997D01*
X218587182Y-89519773D01*
X218587184Y-89519771D01*
X218587189Y-89519769D01*
X218674769Y-89432189D01*
X218674773Y-89432182D01*
X218730997Y-89321837D01*
X218730997Y-89321835D01*
X218730999Y-89321832D01*
X218745500Y-89230274D01*
X218745500Y-87009726D01*
X218730999Y-86918168D01*
X218730997Y-86918164D01*
X218730997Y-86918162D01*
X218674773Y-86807817D01*
X218674768Y-86807810D01*
X218587189Y-86720231D01*
X218587182Y-86720226D01*
X218476836Y-86664002D01*
X218476833Y-86664001D01*
X218476832Y-86664001D01*
X218385274Y-86649500D01*
X217434726Y-86649500D01*
X217343168Y-86664001D01*
X217343166Y-86664001D01*
X217343164Y-86664002D01*
X217343162Y-86664002D01*
X217232817Y-86720226D01*
X217232810Y-86720231D01*
X217145231Y-86807810D01*
X217145226Y-86807817D01*
X217089002Y-86918162D01*
X217089002Y-86918164D01*
X217089001Y-86918166D01*
X217089001Y-86918168D01*
X217074500Y-87009726D01*
X216205500Y-87009726D01*
X216190999Y-86918168D01*
X216190997Y-86918164D01*
X216190997Y-86918162D01*
X216134773Y-86807817D01*
X216134768Y-86807810D01*
X216047189Y-86720231D01*
X216047182Y-86720226D01*
X215936836Y-86664002D01*
X215936833Y-86664001D01*
X215936832Y-86664001D01*
X215845274Y-86649500D01*
X214894726Y-86649500D01*
X214803168Y-86664001D01*
X214803166Y-86664001D01*
X214803164Y-86664002D01*
X214803162Y-86664002D01*
X214692817Y-86720226D01*
X214692810Y-86720231D01*
X214605231Y-86807810D01*
X214605226Y-86807817D01*
X214549002Y-86918162D01*
X214549002Y-86918164D01*
X214549001Y-86918166D01*
X214549001Y-86918168D01*
X214534500Y-87009726D01*
X213665500Y-87009726D01*
X213650999Y-86918168D01*
X213650997Y-86918164D01*
X213650997Y-86918162D01*
X213594773Y-86807817D01*
X213594768Y-86807810D01*
X213507189Y-86720231D01*
X213507182Y-86720226D01*
X213396836Y-86664002D01*
X213396833Y-86664001D01*
X213396832Y-86664001D01*
X213305274Y-86649500D01*
X212354726Y-86649500D01*
X212263168Y-86664001D01*
X212263166Y-86664001D01*
X212263164Y-86664002D01*
X212263162Y-86664002D01*
X212152817Y-86720226D01*
X212152810Y-86720231D01*
X212065231Y-86807810D01*
X212065226Y-86807817D01*
X212009002Y-86918162D01*
X212009002Y-86918164D01*
X212009001Y-86918166D01*
X212009001Y-86918168D01*
X211994500Y-87009726D01*
X211125500Y-87009726D01*
X211110999Y-86918168D01*
X211110997Y-86918164D01*
X211110997Y-86918162D01*
X211054773Y-86807817D01*
X211054768Y-86807810D01*
X210967189Y-86720231D01*
X210967182Y-86720226D01*
X210856836Y-86664002D01*
X210856833Y-86664001D01*
X210856832Y-86664001D01*
X210765274Y-86649500D01*
X209814726Y-86649500D01*
X209723168Y-86664001D01*
X209723166Y-86664001D01*
X209723164Y-86664002D01*
X209723162Y-86664002D01*
X209612817Y-86720226D01*
X209612810Y-86720231D01*
X209525231Y-86807810D01*
X209525226Y-86807817D01*
X209469002Y-86918162D01*
X209469002Y-86918164D01*
X209469001Y-86918166D01*
X209469001Y-86918168D01*
X209454500Y-87009726D01*
X208585500Y-87009726D01*
X208570999Y-86918168D01*
X208570997Y-86918164D01*
X208570997Y-86918162D01*
X208514773Y-86807817D01*
X208514768Y-86807810D01*
X208427189Y-86720231D01*
X208427182Y-86720226D01*
X208316836Y-86664002D01*
X208316833Y-86664001D01*
X208316832Y-86664001D01*
X208225274Y-86649500D01*
X207274726Y-86649500D01*
X207183168Y-86664001D01*
X207183166Y-86664001D01*
X207183164Y-86664002D01*
X207183162Y-86664002D01*
X207072817Y-86720226D01*
X207072810Y-86720231D01*
X206985231Y-86807810D01*
X206985226Y-86807817D01*
X206929002Y-86918162D01*
X206929002Y-86918164D01*
X206929001Y-86918166D01*
X206929001Y-86918168D01*
X206914500Y-87009726D01*
X206045500Y-87009726D01*
X206030999Y-86918168D01*
X206030997Y-86918164D01*
X206030997Y-86918162D01*
X205974773Y-86807817D01*
X205974768Y-86807810D01*
X205887189Y-86720231D01*
X205887182Y-86720226D01*
X205776836Y-86664002D01*
X205776833Y-86664001D01*
X205776832Y-86664001D01*
X205685274Y-86649500D01*
X204734726Y-86649500D01*
X204643168Y-86664001D01*
X204643166Y-86664001D01*
X204643164Y-86664002D01*
X204643162Y-86664002D01*
X204532817Y-86720226D01*
X204532810Y-86720231D01*
X204445231Y-86807810D01*
X204445226Y-86807817D01*
X204389002Y-86918162D01*
X204389002Y-86918164D01*
X204389001Y-86918166D01*
X204389001Y-86918168D01*
X204374500Y-87009726D01*
X203505500Y-87009726D01*
X203490999Y-86918168D01*
X203490997Y-86918164D01*
X203490997Y-86918162D01*
X203434773Y-86807817D01*
X203434768Y-86807810D01*
X203347189Y-86720231D01*
X203347182Y-86720226D01*
X203236836Y-86664002D01*
X203236833Y-86664001D01*
X203236832Y-86664001D01*
X203145274Y-86649500D01*
X202194726Y-86649500D01*
X202103168Y-86664001D01*
X202103166Y-86664001D01*
X202103164Y-86664002D01*
X202103162Y-86664002D01*
X201992817Y-86720226D01*
X201992810Y-86720231D01*
X201905231Y-86807810D01*
X201905226Y-86807817D01*
X201849002Y-86918162D01*
X201849002Y-86918164D01*
X201849001Y-86918166D01*
X201849001Y-86918168D01*
X201834500Y-87009726D01*
X200965500Y-87009726D01*
X200950999Y-86918168D01*
X200950997Y-86918164D01*
X200950997Y-86918162D01*
X200894773Y-86807817D01*
X200894768Y-86807810D01*
X200807189Y-86720231D01*
X200807182Y-86720226D01*
X200696836Y-86664002D01*
X200696833Y-86664001D01*
X200696832Y-86664001D01*
X200605274Y-86649500D01*
X199654726Y-86649500D01*
X199563168Y-86664001D01*
X199563166Y-86664001D01*
X199563164Y-86664002D01*
X199563162Y-86664002D01*
X199452817Y-86720226D01*
X199452810Y-86720231D01*
X199365231Y-86807810D01*
X199365226Y-86807817D01*
X199309002Y-86918162D01*
X199309002Y-86918164D01*
X199309001Y-86918166D01*
X199309001Y-86918168D01*
X199294500Y-87009726D01*
X198425500Y-87009726D01*
X198410999Y-86918168D01*
X198410997Y-86918164D01*
X198410997Y-86918162D01*
X198354773Y-86807817D01*
X198354768Y-86807810D01*
X198267189Y-86720231D01*
X198267182Y-86720226D01*
X198156836Y-86664002D01*
X198156833Y-86664001D01*
X198156832Y-86664001D01*
X198065274Y-86649500D01*
X197114726Y-86649500D01*
X197023168Y-86664001D01*
X197023166Y-86664001D01*
X197023164Y-86664002D01*
X197023162Y-86664002D01*
X196912817Y-86720226D01*
X196912810Y-86720231D01*
X196825231Y-86807810D01*
X196825226Y-86807817D01*
X196769002Y-86918162D01*
X196769002Y-86918164D01*
X196769001Y-86918166D01*
X196769001Y-86918168D01*
X196754500Y-87009726D01*
X96500500Y-87009726D01*
X96500500Y-85104726D01*
X196119500Y-85104726D01*
X196119500Y-86055274D01*
X196134001Y-86146832D01*
X196134001Y-86146833D01*
X196134002Y-86146835D01*
X196134002Y-86146837D01*
X196190226Y-86257182D01*
X196190231Y-86257189D01*
X196277810Y-86344768D01*
X196277817Y-86344773D01*
X196388163Y-86400997D01*
X196388164Y-86400997D01*
X196388168Y-86400999D01*
X196479726Y-86415500D01*
X196479727Y-86415500D01*
X198700273Y-86415500D01*
X198700274Y-86415500D01*
X198791832Y-86400999D01*
X198791836Y-86400997D01*
X198791837Y-86400997D01*
X198902182Y-86344773D01*
X198902184Y-86344771D01*
X198902189Y-86344769D01*
X198989769Y-86257189D01*
X198989773Y-86257182D01*
X199045997Y-86146837D01*
X199045997Y-86146835D01*
X199045999Y-86146832D01*
X199060500Y-86055274D01*
X199060500Y-85104726D01*
X199045999Y-85013168D01*
X199045997Y-85013164D01*
X199045997Y-85013162D01*
X198989773Y-84902817D01*
X198989768Y-84902810D01*
X198902189Y-84815231D01*
X198902182Y-84815226D01*
X198791836Y-84759002D01*
X198791833Y-84759001D01*
X198791832Y-84759001D01*
X198700274Y-84744500D01*
X196479726Y-84744500D01*
X196388168Y-84759001D01*
X196388166Y-84759001D01*
X196388164Y-84759002D01*
X196388162Y-84759002D01*
X196277817Y-84815226D01*
X196277810Y-84815231D01*
X196190231Y-84902810D01*
X196190226Y-84902817D01*
X196134002Y-85013162D01*
X196134002Y-85013164D01*
X196134001Y-85013166D01*
X196134001Y-85013168D01*
X196119500Y-85104726D01*
X96500500Y-85104726D01*
X96500500Y-82564726D01*
X196119500Y-82564726D01*
X196119500Y-83515274D01*
X196134001Y-83606832D01*
X196134001Y-83606833D01*
X196134002Y-83606835D01*
X196134002Y-83606837D01*
X196190226Y-83717182D01*
X196190231Y-83717189D01*
X196277810Y-83804768D01*
X196277817Y-83804773D01*
X196388163Y-83860997D01*
X196388164Y-83860997D01*
X196388168Y-83860999D01*
X196479726Y-83875500D01*
X196479727Y-83875500D01*
X198700273Y-83875500D01*
X198700274Y-83875500D01*
X198791832Y-83860999D01*
X198791836Y-83860997D01*
X198791837Y-83860997D01*
X198902182Y-83804773D01*
X198902184Y-83804771D01*
X198902189Y-83804769D01*
X198989769Y-83717189D01*
X198989773Y-83717182D01*
X199045997Y-83606837D01*
X199045997Y-83606835D01*
X199045999Y-83606832D01*
X199060500Y-83515274D01*
X199060500Y-82564726D01*
X199045999Y-82473168D01*
X199045997Y-82473164D01*
X199045997Y-82473162D01*
X198989773Y-82362817D01*
X198989768Y-82362810D01*
X198902189Y-82275231D01*
X198902182Y-82275226D01*
X198791836Y-82219002D01*
X198791833Y-82219001D01*
X198791832Y-82219001D01*
X198700274Y-82204500D01*
X196479726Y-82204500D01*
X196388168Y-82219001D01*
X196388166Y-82219001D01*
X196388164Y-82219002D01*
X196388162Y-82219002D01*
X196277817Y-82275226D01*
X196277810Y-82275231D01*
X196190231Y-82362810D01*
X196190226Y-82362817D01*
X196134002Y-82473162D01*
X196134002Y-82473164D01*
X196134001Y-82473166D01*
X196134001Y-82473168D01*
X196119500Y-82564726D01*
X96500500Y-82564726D01*
X96500500Y-80024726D01*
X196119500Y-80024726D01*
X196119500Y-80975274D01*
X196134001Y-81066832D01*
X196134001Y-81066833D01*
X196134002Y-81066835D01*
X196134002Y-81066837D01*
X196190226Y-81177182D01*
X196190231Y-81177189D01*
X196277810Y-81264768D01*
X196277817Y-81264773D01*
X196388163Y-81320997D01*
X196388164Y-81320997D01*
X196388168Y-81320999D01*
X196479726Y-81335500D01*
X196479727Y-81335500D01*
X198700273Y-81335500D01*
X198700274Y-81335500D01*
X198791832Y-81320999D01*
X198791836Y-81320997D01*
X198791837Y-81320997D01*
X198902182Y-81264773D01*
X198902184Y-81264771D01*
X198902189Y-81264769D01*
X198989769Y-81177189D01*
X198989773Y-81177182D01*
X199045997Y-81066837D01*
X199045997Y-81066835D01*
X199045999Y-81066832D01*
X199060500Y-80975274D01*
X199060500Y-80024726D01*
X199045999Y-79933168D01*
X199045997Y-79933164D01*
X199045997Y-79933162D01*
X198989773Y-79822817D01*
X198989768Y-79822810D01*
X198902189Y-79735231D01*
X198902182Y-79735226D01*
X198791836Y-79679002D01*
X198791833Y-79679001D01*
X198791832Y-79679001D01*
X198700274Y-79664500D01*
X196479726Y-79664500D01*
X196388168Y-79679001D01*
X196388166Y-79679001D01*
X196388164Y-79679002D01*
X196388162Y-79679002D01*
X196277817Y-79735226D01*
X196277810Y-79735231D01*
X196190231Y-79822810D01*
X196190226Y-79822817D01*
X196134002Y-79933162D01*
X196134002Y-79933164D01*
X196134001Y-79933166D01*
X196134001Y-79933168D01*
X196119500Y-80024726D01*
X96500500Y-80024726D01*
X96500500Y-77484726D01*
X196119500Y-77484726D01*
X196119500Y-78435274D01*
X196134001Y-78526832D01*
X196134001Y-78526833D01*
X196134002Y-78526835D01*
X196134002Y-78526837D01*
X196190226Y-78637182D01*
X196190231Y-78637189D01*
X196277810Y-78724768D01*
X196277817Y-78724773D01*
X196388163Y-78780997D01*
X196388164Y-78780997D01*
X196388168Y-78780999D01*
X196479726Y-78795500D01*
X196479727Y-78795500D01*
X198700273Y-78795500D01*
X198700274Y-78795500D01*
X198791832Y-78780999D01*
X198791836Y-78780997D01*
X198791837Y-78780997D01*
X198902182Y-78724773D01*
X198902184Y-78724771D01*
X198902189Y-78724769D01*
X198989769Y-78637189D01*
X198989773Y-78637182D01*
X199045997Y-78526837D01*
X199045997Y-78526835D01*
X199045999Y-78526832D01*
X199060500Y-78435274D01*
X199060500Y-77484726D01*
X199045999Y-77393168D01*
X199045997Y-77393164D01*
X199045997Y-77393162D01*
X198989773Y-77282817D01*
X198989768Y-77282810D01*
X198902189Y-77195231D01*
X198902182Y-77195226D01*
X198791836Y-77139002D01*
X198791833Y-77139001D01*
X198791832Y-77139001D01*
X198700274Y-77124500D01*
X196479726Y-77124500D01*
X196388168Y-77139001D01*
X196388166Y-77139001D01*
X196388164Y-77139002D01*
X196388162Y-77139002D01*
X196277817Y-77195226D01*
X196277810Y-77195231D01*
X196190231Y-77282810D01*
X196190226Y-77282817D01*
X196134002Y-77393162D01*
X196134002Y-77393164D01*
X196134001Y-77393166D01*
X196134001Y-77393168D01*
X196119500Y-77484726D01*
X96500500Y-77484726D01*
X96500500Y-74944726D01*
X196119500Y-74944726D01*
X196119500Y-75895274D01*
X196134001Y-75986832D01*
X196134001Y-75986833D01*
X196134002Y-75986835D01*
X196134002Y-75986837D01*
X196190226Y-76097182D01*
X196190231Y-76097189D01*
X196277810Y-76184768D01*
X196277817Y-76184773D01*
X196388163Y-76240997D01*
X196388164Y-76240997D01*
X196388168Y-76240999D01*
X196479726Y-76255500D01*
X196479727Y-76255500D01*
X198700273Y-76255500D01*
X198700274Y-76255500D01*
X198791832Y-76240999D01*
X198791836Y-76240997D01*
X198791837Y-76240997D01*
X198902182Y-76184773D01*
X198902184Y-76184771D01*
X198902189Y-76184769D01*
X198989769Y-76097189D01*
X198989773Y-76097182D01*
X199045997Y-75986837D01*
X199045997Y-75986835D01*
X199045999Y-75986832D01*
X199060500Y-75895274D01*
X199060500Y-74944726D01*
X199045999Y-74853168D01*
X199045997Y-74853164D01*
X199045997Y-74853162D01*
X198989773Y-74742817D01*
X198989768Y-74742810D01*
X198902189Y-74655231D01*
X198902182Y-74655226D01*
X198791836Y-74599002D01*
X198791833Y-74599001D01*
X198791832Y-74599001D01*
X198700274Y-74584500D01*
X196479726Y-74584500D01*
X196388168Y-74599001D01*
X196388166Y-74599001D01*
X196388164Y-74599002D01*
X196388162Y-74599002D01*
X196277817Y-74655226D01*
X196277810Y-74655231D01*
X196190231Y-74742810D01*
X196190226Y-74742817D01*
X196134002Y-74853162D01*
X196134002Y-74853164D01*
X196134001Y-74853166D01*
X196134001Y-74853168D01*
X196119500Y-74944726D01*
X96500500Y-74944726D01*
X96500500Y-71769726D01*
X196754500Y-71769726D01*
X196754500Y-73990274D01*
X196769001Y-74081832D01*
X196769001Y-74081833D01*
X196769002Y-74081835D01*
X196769002Y-74081837D01*
X196825226Y-74192182D01*
X196825231Y-74192189D01*
X196912810Y-74279768D01*
X196912817Y-74279773D01*
X197023163Y-74335997D01*
X197023164Y-74335997D01*
X197023168Y-74335999D01*
X197114726Y-74350500D01*
X197114727Y-74350500D01*
X198065273Y-74350500D01*
X198065274Y-74350500D01*
X198156832Y-74335999D01*
X198156836Y-74335997D01*
X198156837Y-74335997D01*
X198267182Y-74279773D01*
X198267184Y-74279771D01*
X198267189Y-74279769D01*
X198354769Y-74192189D01*
X198354773Y-74192182D01*
X198410997Y-74081837D01*
X198410997Y-74081835D01*
X198410999Y-74081832D01*
X198425500Y-73990274D01*
X198425500Y-71769726D01*
X199294500Y-71769726D01*
X199294500Y-73990274D01*
X199309001Y-74081832D01*
X199309001Y-74081833D01*
X199309002Y-74081835D01*
X199309002Y-74081837D01*
X199365226Y-74192182D01*
X199365231Y-74192189D01*
X199452810Y-74279768D01*
X199452817Y-74279773D01*
X199563163Y-74335997D01*
X199563164Y-74335997D01*
X199563168Y-74335999D01*
X199654726Y-74350500D01*
X199654727Y-74350500D01*
X200605273Y-74350500D01*
X200605274Y-74350500D01*
X200696832Y-74335999D01*
X200696836Y-74335997D01*
X200696837Y-74335997D01*
X200807182Y-74279773D01*
X200807184Y-74279771D01*
X200807189Y-74279769D01*
X200894769Y-74192189D01*
X200894773Y-74192182D01*
X200950997Y-74081837D01*
X200950997Y-74081835D01*
X200950999Y-74081832D01*
X200965500Y-73990274D01*
X200965500Y-71769726D01*
X201834500Y-71769726D01*
X201834500Y-73990274D01*
X201849001Y-74081832D01*
X201849001Y-74081833D01*
X201849002Y-74081835D01*
X201849002Y-74081837D01*
X201905226Y-74192182D01*
X201905231Y-74192189D01*
X201992810Y-74279768D01*
X201992817Y-74279773D01*
X202103163Y-74335997D01*
X202103164Y-74335997D01*
X202103168Y-74335999D01*
X202194726Y-74350500D01*
X202194727Y-74350500D01*
X203145273Y-74350500D01*
X203145274Y-74350500D01*
X203236832Y-74335999D01*
X203236836Y-74335997D01*
X203236837Y-74335997D01*
X203347182Y-74279773D01*
X203347184Y-74279771D01*
X203347189Y-74279769D01*
X203434769Y-74192189D01*
X203434773Y-74192182D01*
X203490997Y-74081837D01*
X203490997Y-74081835D01*
X203490999Y-74081832D01*
X203505500Y-73990274D01*
X203505500Y-71769726D01*
X204374500Y-71769726D01*
X204374500Y-73990274D01*
X204389001Y-74081832D01*
X204389001Y-74081833D01*
X204389002Y-74081835D01*
X204389002Y-74081837D01*
X204445226Y-74192182D01*
X204445231Y-74192189D01*
X204532810Y-74279768D01*
X204532817Y-74279773D01*
X204643163Y-74335997D01*
X204643164Y-74335997D01*
X204643168Y-74335999D01*
X204734726Y-74350500D01*
X204734727Y-74350500D01*
X205685273Y-74350500D01*
X205685274Y-74350500D01*
X205776832Y-74335999D01*
X205776836Y-74335997D01*
X205776837Y-74335997D01*
X205887182Y-74279773D01*
X205887184Y-74279771D01*
X205887189Y-74279769D01*
X205974769Y-74192189D01*
X205974773Y-74192182D01*
X206030997Y-74081837D01*
X206030997Y-74081835D01*
X206030999Y-74081832D01*
X206045500Y-73990274D01*
X206045500Y-71769726D01*
X206914500Y-71769726D01*
X206914500Y-73990274D01*
X206929001Y-74081832D01*
X206929001Y-74081833D01*
X206929002Y-74081835D01*
X206929002Y-74081837D01*
X206985226Y-74192182D01*
X206985231Y-74192189D01*
X207072810Y-74279768D01*
X207072817Y-74279773D01*
X207183163Y-74335997D01*
X207183164Y-74335997D01*
X207183168Y-74335999D01*
X207274726Y-74350500D01*
X207274727Y-74350500D01*
X208225273Y-74350500D01*
X208225274Y-74350500D01*
X208316832Y-74335999D01*
X208316836Y-74335997D01*
X208316837Y-74335997D01*
X208427182Y-74279773D01*
X208427184Y-74279771D01*
X208427189Y-74279769D01*
X208514769Y-74192189D01*
X208514773Y-74192182D01*
X208570997Y-74081837D01*
X208570997Y-74081835D01*
X208570999Y-74081832D01*
X208585500Y-73990274D01*
X208585500Y-71769726D01*
X209454500Y-71769726D01*
X209454500Y-73990274D01*
X209469001Y-74081832D01*
X209469001Y-74081833D01*
X209469002Y-74081835D01*
X209469002Y-74081837D01*
X209525226Y-74192182D01*
X209525231Y-74192189D01*
X209612810Y-74279768D01*
X209612817Y-74279773D01*
X209723163Y-74335997D01*
X209723164Y-74335997D01*
X209723168Y-74335999D01*
X209814726Y-74350500D01*
X209814727Y-74350500D01*
X210765273Y-74350500D01*
X210765274Y-74350500D01*
X210856832Y-74335999D01*
X210856836Y-74335997D01*
X210856837Y-74335997D01*
X210967182Y-74279773D01*
X210967184Y-74279771D01*
X210967189Y-74279769D01*
X211054769Y-74192189D01*
X211054773Y-74192182D01*
X211110997Y-74081837D01*
X211110997Y-74081835D01*
X211110999Y-74081832D01*
X211125500Y-73990274D01*
X211125500Y-71769726D01*
X211994500Y-71769726D01*
X211994500Y-73990274D01*
X212009001Y-74081832D01*
X212009001Y-74081833D01*
X212009002Y-74081835D01*
X212009002Y-74081837D01*
X212065226Y-74192182D01*
X212065231Y-74192189D01*
X212152810Y-74279768D01*
X212152817Y-74279773D01*
X212263163Y-74335997D01*
X212263164Y-74335997D01*
X212263168Y-74335999D01*
X212354726Y-74350500D01*
X212354727Y-74350500D01*
X213305273Y-74350500D01*
X213305274Y-74350500D01*
X213396832Y-74335999D01*
X213396836Y-74335997D01*
X213396837Y-74335997D01*
X213507182Y-74279773D01*
X213507184Y-74279771D01*
X213507189Y-74279769D01*
X213594769Y-74192189D01*
X213594773Y-74192182D01*
X213650997Y-74081837D01*
X213650997Y-74081835D01*
X213650999Y-74081832D01*
X213665500Y-73990274D01*
X213665500Y-71769726D01*
X213650999Y-71678168D01*
X213606205Y-71590255D01*
X213606203Y-71590252D01*
X217074500Y-71590252D01*
X217074500Y-74169748D01*
X217086133Y-74228231D01*
X217103882Y-74254795D01*
X217130447Y-74294552D01*
X217157012Y-74312301D01*
X217196769Y-74338867D01*
X217255252Y-74350500D01*
X217255255Y-74350500D01*
X218564745Y-74350500D01*
X218564748Y-74350500D01*
X218623231Y-74338867D01*
X218689552Y-74294552D01*
X218733867Y-74228231D01*
X218745500Y-74169748D01*
X218745500Y-71590252D01*
X218733867Y-71531769D01*
X218699427Y-71480226D01*
X218689552Y-71465447D01*
X218649795Y-71438882D01*
X218623231Y-71421133D01*
X218564748Y-71409500D01*
X217255252Y-71409500D01*
X217196769Y-71421133D01*
X217130447Y-71465447D01*
X217086133Y-71531769D01*
X217074500Y-71590252D01*
X213606203Y-71590252D01*
X213594773Y-71567817D01*
X213594768Y-71567810D01*
X213507189Y-71480231D01*
X213507182Y-71480226D01*
X213396836Y-71424002D01*
X213396833Y-71424001D01*
X213396832Y-71424001D01*
X213305274Y-71409500D01*
X212354726Y-71409500D01*
X212263168Y-71424001D01*
X212263166Y-71424001D01*
X212263164Y-71424002D01*
X212263162Y-71424002D01*
X212152817Y-71480226D01*
X212152810Y-71480231D01*
X212065231Y-71567810D01*
X212065226Y-71567817D01*
X212009002Y-71678162D01*
X212009002Y-71678164D01*
X212009001Y-71678166D01*
X212009001Y-71678168D01*
X211994500Y-71769726D01*
X211125500Y-71769726D01*
X211110999Y-71678168D01*
X211110997Y-71678164D01*
X211110997Y-71678162D01*
X211054773Y-71567817D01*
X211054768Y-71567810D01*
X210967189Y-71480231D01*
X210967182Y-71480226D01*
X210856836Y-71424002D01*
X210856833Y-71424001D01*
X210856832Y-71424001D01*
X210765274Y-71409500D01*
X209814726Y-71409500D01*
X209723168Y-71424001D01*
X209723166Y-71424001D01*
X209723164Y-71424002D01*
X209723162Y-71424002D01*
X209612817Y-71480226D01*
X209612810Y-71480231D01*
X209525231Y-71567810D01*
X209525226Y-71567817D01*
X209469002Y-71678162D01*
X209469002Y-71678164D01*
X209469001Y-71678166D01*
X209469001Y-71678168D01*
X209454500Y-71769726D01*
X208585500Y-71769726D01*
X208570999Y-71678168D01*
X208570997Y-71678164D01*
X208570997Y-71678162D01*
X208514773Y-71567817D01*
X208514768Y-71567810D01*
X208427189Y-71480231D01*
X208427182Y-71480226D01*
X208316836Y-71424002D01*
X208316833Y-71424001D01*
X208316832Y-71424001D01*
X208225274Y-71409500D01*
X207274726Y-71409500D01*
X207183168Y-71424001D01*
X207183166Y-71424001D01*
X207183164Y-71424002D01*
X207183162Y-71424002D01*
X207072817Y-71480226D01*
X207072810Y-71480231D01*
X206985231Y-71567810D01*
X206985226Y-71567817D01*
X206929002Y-71678162D01*
X206929002Y-71678164D01*
X206929001Y-71678166D01*
X206929001Y-71678168D01*
X206914500Y-71769726D01*
X206045500Y-71769726D01*
X206030999Y-71678168D01*
X206030997Y-71678164D01*
X206030997Y-71678162D01*
X205974773Y-71567817D01*
X205974768Y-71567810D01*
X205887189Y-71480231D01*
X205887182Y-71480226D01*
X205776836Y-71424002D01*
X205776833Y-71424001D01*
X205776832Y-71424001D01*
X205685274Y-71409500D01*
X204734726Y-71409500D01*
X204643168Y-71424001D01*
X204643166Y-71424001D01*
X204643164Y-71424002D01*
X204643162Y-71424002D01*
X204532817Y-71480226D01*
X204532810Y-71480231D01*
X204445231Y-71567810D01*
X204445226Y-71567817D01*
X204389002Y-71678162D01*
X204389002Y-71678164D01*
X204389001Y-71678166D01*
X204389001Y-71678168D01*
X204374500Y-71769726D01*
X203505500Y-71769726D01*
X203490999Y-71678168D01*
X203490997Y-71678164D01*
X203490997Y-71678162D01*
X203434773Y-71567817D01*
X203434768Y-71567810D01*
X203347189Y-71480231D01*
X203347182Y-71480226D01*
X203236836Y-71424002D01*
X203236833Y-71424001D01*
X203236832Y-71424001D01*
X203145274Y-71409500D01*
X202194726Y-71409500D01*
X202103168Y-71424001D01*
X202103166Y-71424001D01*
X202103164Y-71424002D01*
X202103162Y-71424002D01*
X201992817Y-71480226D01*
X201992810Y-71480231D01*
X201905231Y-71567810D01*
X201905226Y-71567817D01*
X201849002Y-71678162D01*
X201849002Y-71678164D01*
X201849001Y-71678166D01*
X201849001Y-71678168D01*
X201834500Y-71769726D01*
X200965500Y-71769726D01*
X200950999Y-71678168D01*
X200950997Y-71678164D01*
X200950997Y-71678162D01*
X200894773Y-71567817D01*
X200894768Y-71567810D01*
X200807189Y-71480231D01*
X200807182Y-71480226D01*
X200696836Y-71424002D01*
X200696833Y-71424001D01*
X200696832Y-71424001D01*
X200605274Y-71409500D01*
X199654726Y-71409500D01*
X199563168Y-71424001D01*
X199563166Y-71424001D01*
X199563164Y-71424002D01*
X199563162Y-71424002D01*
X199452817Y-71480226D01*
X199452810Y-71480231D01*
X199365231Y-71567810D01*
X199365226Y-71567817D01*
X199309002Y-71678162D01*
X199309002Y-71678164D01*
X199309001Y-71678166D01*
X199309001Y-71678168D01*
X199294500Y-71769726D01*
X198425500Y-71769726D01*
X198410999Y-71678168D01*
X198410997Y-71678164D01*
X198410997Y-71678162D01*
X198354773Y-71567817D01*
X198354768Y-71567810D01*
X198267189Y-71480231D01*
X198267182Y-71480226D01*
X198156836Y-71424002D01*
X198156833Y-71424001D01*
X198156832Y-71424001D01*
X198065274Y-71409500D01*
X197114726Y-71409500D01*
X197023168Y-71424001D01*
X197023166Y-71424001D01*
X197023164Y-71424002D01*
X197023162Y-71424002D01*
X196912817Y-71480226D01*
X196912810Y-71480231D01*
X196825231Y-71567810D01*
X196825226Y-71567817D01*
X196769002Y-71678162D01*
X196769002Y-71678164D01*
X196769001Y-71678166D01*
X196769001Y-71678168D01*
X196754500Y-71769726D01*
X96500500Y-71769726D01*
X96500500Y-59155519D01*
X104299500Y-59155519D01*
X104299500Y-59344480D01*
X104329059Y-59531115D01*
X104329060Y-59531118D01*
X104387453Y-59710833D01*
X104473236Y-59879193D01*
X104473239Y-59879197D01*
X104473240Y-59879199D01*
X104584310Y-60032073D01*
X104584312Y-60032075D01*
X104584315Y-60032079D01*
X104717920Y-60165684D01*
X104717923Y-60165686D01*
X104717927Y-60165690D01*
X104870801Y-60276760D01*
X104870803Y-60276761D01*
X104870806Y-60276763D01*
X105006518Y-60345911D01*
X105039168Y-60362547D01*
X105218882Y-60420940D01*
X105405519Y-60450500D01*
X105405520Y-60450500D01*
X105594480Y-60450500D01*
X105594481Y-60450500D01*
X105781118Y-60420940D01*
X105960832Y-60362547D01*
X106129199Y-60276760D01*
X106282073Y-60165690D01*
X106415690Y-60032073D01*
X106526760Y-59879199D01*
X106569558Y-59795202D01*
X119530833Y-59795202D01*
X119530833Y-59984798D01*
X119540238Y-60032079D01*
X119567820Y-60170748D01*
X119567822Y-60170754D01*
X119611731Y-60276760D01*
X119640377Y-60345915D01*
X119682852Y-60409483D01*
X119745708Y-60503555D01*
X119879777Y-60637624D01*
X119942491Y-60679527D01*
X120037418Y-60742956D01*
X120212582Y-60815512D01*
X120398535Y-60852500D01*
X120398538Y-60852500D01*
X120588128Y-60852500D01*
X120588131Y-60852500D01*
X120774084Y-60815512D01*
X120949248Y-60742956D01*
X121106891Y-60637622D01*
X121240955Y-60503558D01*
X121346289Y-60345915D01*
X121418845Y-60170751D01*
X121455833Y-59984798D01*
X121455833Y-59795202D01*
X121570833Y-59795202D01*
X121570833Y-59984798D01*
X121580238Y-60032079D01*
X121607820Y-60170748D01*
X121607822Y-60170754D01*
X121651731Y-60276760D01*
X121680377Y-60345915D01*
X121722852Y-60409483D01*
X121785708Y-60503555D01*
X121919777Y-60637624D01*
X121982491Y-60679527D01*
X122077418Y-60742956D01*
X122252582Y-60815512D01*
X122438535Y-60852500D01*
X122438538Y-60852500D01*
X122628128Y-60852500D01*
X122628131Y-60852500D01*
X122814084Y-60815512D01*
X122989248Y-60742956D01*
X123146891Y-60637622D01*
X123280955Y-60503558D01*
X123386289Y-60345915D01*
X123458845Y-60170751D01*
X123495833Y-59984798D01*
X123495833Y-59795202D01*
X123610833Y-59795202D01*
X123610833Y-59984798D01*
X123620238Y-60032079D01*
X123647820Y-60170748D01*
X123647822Y-60170754D01*
X123691731Y-60276760D01*
X123720377Y-60345915D01*
X123762852Y-60409483D01*
X123825708Y-60503555D01*
X123959777Y-60637624D01*
X124022491Y-60679527D01*
X124117418Y-60742956D01*
X124292582Y-60815512D01*
X124478535Y-60852500D01*
X124478538Y-60852500D01*
X124668128Y-60852500D01*
X124668131Y-60852500D01*
X124854084Y-60815512D01*
X125029248Y-60742956D01*
X125186891Y-60637622D01*
X125320955Y-60503558D01*
X125426289Y-60345915D01*
X125498845Y-60170751D01*
X125535833Y-59984798D01*
X125535833Y-59795202D01*
X125650833Y-59795202D01*
X125650833Y-59984798D01*
X125660238Y-60032079D01*
X125687820Y-60170748D01*
X125687822Y-60170754D01*
X125731731Y-60276760D01*
X125760377Y-60345915D01*
X125802852Y-60409483D01*
X125865708Y-60503555D01*
X125999777Y-60637624D01*
X126062491Y-60679527D01*
X126157418Y-60742956D01*
X126332582Y-60815512D01*
X126518535Y-60852500D01*
X126518538Y-60852500D01*
X126708128Y-60852500D01*
X126708131Y-60852500D01*
X126894084Y-60815512D01*
X127069248Y-60742956D01*
X127226891Y-60637622D01*
X127360955Y-60503558D01*
X127466289Y-60345915D01*
X127538845Y-60170751D01*
X127575833Y-59984798D01*
X127575833Y-59795202D01*
X138649167Y-59795202D01*
X138649167Y-59984798D01*
X138658572Y-60032079D01*
X138686154Y-60170748D01*
X138686156Y-60170754D01*
X138730065Y-60276760D01*
X138758711Y-60345915D01*
X138801186Y-60409483D01*
X138864042Y-60503555D01*
X138998111Y-60637624D01*
X139060825Y-60679527D01*
X139155752Y-60742956D01*
X139330916Y-60815512D01*
X139516869Y-60852500D01*
X139516872Y-60852500D01*
X139706462Y-60852500D01*
X139706465Y-60852500D01*
X139892418Y-60815512D01*
X140067582Y-60742956D01*
X140225225Y-60637622D01*
X140359289Y-60503558D01*
X140464623Y-60345915D01*
X140537179Y-60170751D01*
X140574167Y-59984798D01*
X140574167Y-59795202D01*
X140689167Y-59795202D01*
X140689167Y-59984798D01*
X140698572Y-60032079D01*
X140726154Y-60170748D01*
X140726156Y-60170754D01*
X140770065Y-60276760D01*
X140798711Y-60345915D01*
X140841186Y-60409483D01*
X140904042Y-60503555D01*
X141038111Y-60637624D01*
X141100825Y-60679527D01*
X141195752Y-60742956D01*
X141370916Y-60815512D01*
X141556869Y-60852500D01*
X141556872Y-60852500D01*
X141746462Y-60852500D01*
X141746465Y-60852500D01*
X141932418Y-60815512D01*
X142107582Y-60742956D01*
X142265225Y-60637622D01*
X142399289Y-60503558D01*
X142504623Y-60345915D01*
X142577179Y-60170751D01*
X142614167Y-59984798D01*
X142614167Y-59795202D01*
X142729167Y-59795202D01*
X142729167Y-59984798D01*
X142738572Y-60032079D01*
X142766154Y-60170748D01*
X142766156Y-60170754D01*
X142810065Y-60276760D01*
X142838711Y-60345915D01*
X142881186Y-60409483D01*
X142944042Y-60503555D01*
X143078111Y-60637624D01*
X143140825Y-60679527D01*
X143235752Y-60742956D01*
X143410916Y-60815512D01*
X143596869Y-60852500D01*
X143596872Y-60852500D01*
X143786462Y-60852500D01*
X143786465Y-60852500D01*
X143972418Y-60815512D01*
X144147582Y-60742956D01*
X144305225Y-60637622D01*
X144439289Y-60503558D01*
X144544623Y-60345915D01*
X144617179Y-60170751D01*
X144654167Y-59984798D01*
X144654167Y-59795202D01*
X144769167Y-59795202D01*
X144769167Y-59984798D01*
X144778572Y-60032079D01*
X144806154Y-60170748D01*
X144806156Y-60170754D01*
X144850065Y-60276760D01*
X144878711Y-60345915D01*
X144921186Y-60409483D01*
X144984042Y-60503555D01*
X145118111Y-60637624D01*
X145180825Y-60679527D01*
X145275752Y-60742956D01*
X145450916Y-60815512D01*
X145636869Y-60852500D01*
X145636872Y-60852500D01*
X145826462Y-60852500D01*
X145826465Y-60852500D01*
X146012418Y-60815512D01*
X146187582Y-60742956D01*
X146345225Y-60637622D01*
X146479289Y-60503558D01*
X146584623Y-60345915D01*
X146657179Y-60170751D01*
X146694167Y-59984798D01*
X146694167Y-59795202D01*
X157767500Y-59795202D01*
X157767500Y-59984798D01*
X157776905Y-60032079D01*
X157804487Y-60170748D01*
X157804489Y-60170754D01*
X157848398Y-60276760D01*
X157877044Y-60345915D01*
X157919519Y-60409483D01*
X157982375Y-60503555D01*
X158116444Y-60637624D01*
X158179158Y-60679527D01*
X158274085Y-60742956D01*
X158449249Y-60815512D01*
X158635202Y-60852500D01*
X158635205Y-60852500D01*
X158824795Y-60852500D01*
X158824798Y-60852500D01*
X159010751Y-60815512D01*
X159185915Y-60742956D01*
X159343558Y-60637622D01*
X159477622Y-60503558D01*
X159582956Y-60345915D01*
X159655512Y-60170751D01*
X159692500Y-59984798D01*
X159692500Y-59795202D01*
X159807500Y-59795202D01*
X159807500Y-59984798D01*
X159816905Y-60032079D01*
X159844487Y-60170748D01*
X159844489Y-60170754D01*
X159888398Y-60276760D01*
X159917044Y-60345915D01*
X159959519Y-60409483D01*
X160022375Y-60503555D01*
X160156444Y-60637624D01*
X160219158Y-60679527D01*
X160314085Y-60742956D01*
X160489249Y-60815512D01*
X160675202Y-60852500D01*
X160675205Y-60852500D01*
X160864795Y-60852500D01*
X160864798Y-60852500D01*
X161050751Y-60815512D01*
X161225915Y-60742956D01*
X161383558Y-60637622D01*
X161517622Y-60503558D01*
X161622956Y-60345915D01*
X161695512Y-60170751D01*
X161732500Y-59984798D01*
X161732500Y-59795202D01*
X161847500Y-59795202D01*
X161847500Y-59984798D01*
X161856905Y-60032079D01*
X161884487Y-60170748D01*
X161884489Y-60170754D01*
X161928398Y-60276760D01*
X161957044Y-60345915D01*
X161999519Y-60409483D01*
X162062375Y-60503555D01*
X162196444Y-60637624D01*
X162259158Y-60679527D01*
X162354085Y-60742956D01*
X162529249Y-60815512D01*
X162715202Y-60852500D01*
X162715205Y-60852500D01*
X162904795Y-60852500D01*
X162904798Y-60852500D01*
X163090751Y-60815512D01*
X163265915Y-60742956D01*
X163423558Y-60637622D01*
X163557622Y-60503558D01*
X163662956Y-60345915D01*
X163735512Y-60170751D01*
X163772500Y-59984798D01*
X163772500Y-59795202D01*
X163887500Y-59795202D01*
X163887500Y-59984798D01*
X163896905Y-60032079D01*
X163924487Y-60170748D01*
X163924489Y-60170754D01*
X163968398Y-60276760D01*
X163997044Y-60345915D01*
X164039519Y-60409483D01*
X164102375Y-60503555D01*
X164236444Y-60637624D01*
X164299158Y-60679527D01*
X164394085Y-60742956D01*
X164569249Y-60815512D01*
X164755202Y-60852500D01*
X164755205Y-60852500D01*
X164944795Y-60852500D01*
X164944798Y-60852500D01*
X165130751Y-60815512D01*
X165305915Y-60742956D01*
X165463558Y-60637622D01*
X165597622Y-60503558D01*
X165702956Y-60345915D01*
X165775512Y-60170751D01*
X165812500Y-59984798D01*
X165812500Y-59795202D01*
X176885833Y-59795202D01*
X176885833Y-59984798D01*
X176895238Y-60032079D01*
X176922820Y-60170748D01*
X176922822Y-60170754D01*
X176966731Y-60276760D01*
X176995377Y-60345915D01*
X177037852Y-60409483D01*
X177100708Y-60503555D01*
X177234777Y-60637624D01*
X177297491Y-60679527D01*
X177392418Y-60742956D01*
X177567582Y-60815512D01*
X177753535Y-60852500D01*
X177753538Y-60852500D01*
X177943128Y-60852500D01*
X177943131Y-60852500D01*
X178129084Y-60815512D01*
X178304248Y-60742956D01*
X178461891Y-60637622D01*
X178595955Y-60503558D01*
X178701289Y-60345915D01*
X178773845Y-60170751D01*
X178810833Y-59984798D01*
X178810833Y-59795202D01*
X178925833Y-59795202D01*
X178925833Y-59984798D01*
X178935238Y-60032079D01*
X178962820Y-60170748D01*
X178962822Y-60170754D01*
X179006731Y-60276760D01*
X179035377Y-60345915D01*
X179077852Y-60409483D01*
X179140708Y-60503555D01*
X179274777Y-60637624D01*
X179337491Y-60679527D01*
X179432418Y-60742956D01*
X179607582Y-60815512D01*
X179793535Y-60852500D01*
X179793538Y-60852500D01*
X179983128Y-60852500D01*
X179983131Y-60852500D01*
X180169084Y-60815512D01*
X180344248Y-60742956D01*
X180501891Y-60637622D01*
X180635955Y-60503558D01*
X180741289Y-60345915D01*
X180813845Y-60170751D01*
X180850833Y-59984798D01*
X180850833Y-59795202D01*
X180965833Y-59795202D01*
X180965833Y-59984798D01*
X180975238Y-60032079D01*
X181002820Y-60170748D01*
X181002822Y-60170754D01*
X181046731Y-60276760D01*
X181075377Y-60345915D01*
X181117852Y-60409483D01*
X181180708Y-60503555D01*
X181314777Y-60637624D01*
X181377491Y-60679527D01*
X181472418Y-60742956D01*
X181647582Y-60815512D01*
X181833535Y-60852500D01*
X181833538Y-60852500D01*
X182023128Y-60852500D01*
X182023131Y-60852500D01*
X182209084Y-60815512D01*
X182384248Y-60742956D01*
X182541891Y-60637622D01*
X182675955Y-60503558D01*
X182781289Y-60345915D01*
X182853845Y-60170751D01*
X182890833Y-59984798D01*
X182890833Y-59795202D01*
X183005833Y-59795202D01*
X183005833Y-59984798D01*
X183015238Y-60032079D01*
X183042820Y-60170748D01*
X183042822Y-60170754D01*
X183086731Y-60276760D01*
X183115377Y-60345915D01*
X183157852Y-60409483D01*
X183220708Y-60503555D01*
X183354777Y-60637624D01*
X183417491Y-60679527D01*
X183512418Y-60742956D01*
X183687582Y-60815512D01*
X183873535Y-60852500D01*
X183873538Y-60852500D01*
X184063128Y-60852500D01*
X184063131Y-60852500D01*
X184249084Y-60815512D01*
X184424248Y-60742956D01*
X184581891Y-60637622D01*
X184715955Y-60503558D01*
X184821289Y-60345915D01*
X184893845Y-60170751D01*
X184930833Y-59984798D01*
X184930833Y-59795202D01*
X184893845Y-59609249D01*
X184821289Y-59434085D01*
X184757860Y-59339158D01*
X184715957Y-59276444D01*
X184581888Y-59142375D01*
X184477311Y-59072500D01*
X184424248Y-59037044D01*
X184424245Y-59037042D01*
X184424244Y-59037042D01*
X184249087Y-58964489D01*
X184249081Y-58964487D01*
X184174092Y-58949571D01*
X184063131Y-58927500D01*
X183873535Y-58927500D01*
X183780983Y-58945909D01*
X183687584Y-58964487D01*
X183687578Y-58964489D01*
X183512421Y-59037042D01*
X183354777Y-59142375D01*
X183220708Y-59276444D01*
X183115375Y-59434088D01*
X183042822Y-59609245D01*
X183042820Y-59609251D01*
X183024242Y-59702650D01*
X183005833Y-59795202D01*
X182890833Y-59795202D01*
X182853845Y-59609249D01*
X182781289Y-59434085D01*
X182717860Y-59339158D01*
X182675957Y-59276444D01*
X182541888Y-59142375D01*
X182437311Y-59072500D01*
X182384248Y-59037044D01*
X182384245Y-59037042D01*
X182384244Y-59037042D01*
X182209087Y-58964489D01*
X182209081Y-58964487D01*
X182134092Y-58949571D01*
X182023131Y-58927500D01*
X181833535Y-58927500D01*
X181740983Y-58945909D01*
X181647584Y-58964487D01*
X181647578Y-58964489D01*
X181472421Y-59037042D01*
X181314777Y-59142375D01*
X181180708Y-59276444D01*
X181075375Y-59434088D01*
X181002822Y-59609245D01*
X181002820Y-59609251D01*
X180984242Y-59702650D01*
X180965833Y-59795202D01*
X180850833Y-59795202D01*
X180813845Y-59609249D01*
X180741289Y-59434085D01*
X180677860Y-59339158D01*
X180635957Y-59276444D01*
X180501888Y-59142375D01*
X180397311Y-59072500D01*
X180344248Y-59037044D01*
X180344245Y-59037042D01*
X180344244Y-59037042D01*
X180169087Y-58964489D01*
X180169081Y-58964487D01*
X180094092Y-58949571D01*
X179983131Y-58927500D01*
X179793535Y-58927500D01*
X179700983Y-58945909D01*
X179607584Y-58964487D01*
X179607578Y-58964489D01*
X179432421Y-59037042D01*
X179274777Y-59142375D01*
X179140708Y-59276444D01*
X179035375Y-59434088D01*
X178962822Y-59609245D01*
X178962820Y-59609251D01*
X178944242Y-59702650D01*
X178925833Y-59795202D01*
X178810833Y-59795202D01*
X178773845Y-59609249D01*
X178701289Y-59434085D01*
X178637860Y-59339158D01*
X178595957Y-59276444D01*
X178461888Y-59142375D01*
X178357311Y-59072500D01*
X178304248Y-59037044D01*
X178304245Y-59037042D01*
X178304244Y-59037042D01*
X178129087Y-58964489D01*
X178129081Y-58964487D01*
X178054092Y-58949571D01*
X177943131Y-58927500D01*
X177753535Y-58927500D01*
X177660983Y-58945909D01*
X177567584Y-58964487D01*
X177567578Y-58964489D01*
X177392421Y-59037042D01*
X177234777Y-59142375D01*
X177100708Y-59276444D01*
X176995375Y-59434088D01*
X176922822Y-59609245D01*
X176922820Y-59609251D01*
X176904242Y-59702650D01*
X176885833Y-59795202D01*
X165812500Y-59795202D01*
X165775512Y-59609249D01*
X165702956Y-59434085D01*
X165639527Y-59339158D01*
X165597624Y-59276444D01*
X165463555Y-59142375D01*
X165358978Y-59072500D01*
X165305915Y-59037044D01*
X165305912Y-59037042D01*
X165305911Y-59037042D01*
X165130754Y-58964489D01*
X165130748Y-58964487D01*
X165055759Y-58949571D01*
X164944798Y-58927500D01*
X164755202Y-58927500D01*
X164662650Y-58945909D01*
X164569251Y-58964487D01*
X164569245Y-58964489D01*
X164394088Y-59037042D01*
X164236444Y-59142375D01*
X164102375Y-59276444D01*
X163997042Y-59434088D01*
X163924489Y-59609245D01*
X163924487Y-59609251D01*
X163905909Y-59702650D01*
X163887500Y-59795202D01*
X163772500Y-59795202D01*
X163735512Y-59609249D01*
X163662956Y-59434085D01*
X163599527Y-59339158D01*
X163557624Y-59276444D01*
X163423555Y-59142375D01*
X163318978Y-59072500D01*
X163265915Y-59037044D01*
X163265912Y-59037042D01*
X163265911Y-59037042D01*
X163090754Y-58964489D01*
X163090748Y-58964487D01*
X163015759Y-58949571D01*
X162904798Y-58927500D01*
X162715202Y-58927500D01*
X162622650Y-58945909D01*
X162529251Y-58964487D01*
X162529245Y-58964489D01*
X162354088Y-59037042D01*
X162196444Y-59142375D01*
X162062375Y-59276444D01*
X161957042Y-59434088D01*
X161884489Y-59609245D01*
X161884487Y-59609251D01*
X161865909Y-59702650D01*
X161847500Y-59795202D01*
X161732500Y-59795202D01*
X161695512Y-59609249D01*
X161622956Y-59434085D01*
X161559527Y-59339158D01*
X161517624Y-59276444D01*
X161383555Y-59142375D01*
X161278978Y-59072500D01*
X161225915Y-59037044D01*
X161225912Y-59037042D01*
X161225911Y-59037042D01*
X161050754Y-58964489D01*
X161050748Y-58964487D01*
X160975759Y-58949571D01*
X160864798Y-58927500D01*
X160675202Y-58927500D01*
X160582650Y-58945909D01*
X160489251Y-58964487D01*
X160489245Y-58964489D01*
X160314088Y-59037042D01*
X160156444Y-59142375D01*
X160022375Y-59276444D01*
X159917042Y-59434088D01*
X159844489Y-59609245D01*
X159844487Y-59609251D01*
X159825909Y-59702650D01*
X159807500Y-59795202D01*
X159692500Y-59795202D01*
X159655512Y-59609249D01*
X159582956Y-59434085D01*
X159519527Y-59339158D01*
X159477624Y-59276444D01*
X159343555Y-59142375D01*
X159238978Y-59072500D01*
X159185915Y-59037044D01*
X159185912Y-59037042D01*
X159185911Y-59037042D01*
X159010754Y-58964489D01*
X159010748Y-58964487D01*
X158935759Y-58949571D01*
X158824798Y-58927500D01*
X158635202Y-58927500D01*
X158542650Y-58945909D01*
X158449251Y-58964487D01*
X158449245Y-58964489D01*
X158274088Y-59037042D01*
X158116444Y-59142375D01*
X157982375Y-59276444D01*
X157877042Y-59434088D01*
X157804489Y-59609245D01*
X157804487Y-59609251D01*
X157785909Y-59702650D01*
X157767500Y-59795202D01*
X146694167Y-59795202D01*
X146657179Y-59609249D01*
X146584623Y-59434085D01*
X146521194Y-59339158D01*
X146479291Y-59276444D01*
X146345222Y-59142375D01*
X146240645Y-59072500D01*
X146187582Y-59037044D01*
X146187579Y-59037042D01*
X146187578Y-59037042D01*
X146012421Y-58964489D01*
X146012415Y-58964487D01*
X145937426Y-58949571D01*
X145826465Y-58927500D01*
X145636869Y-58927500D01*
X145544317Y-58945909D01*
X145450918Y-58964487D01*
X145450912Y-58964489D01*
X145275755Y-59037042D01*
X145118111Y-59142375D01*
X144984042Y-59276444D01*
X144878709Y-59434088D01*
X144806156Y-59609245D01*
X144806154Y-59609251D01*
X144787576Y-59702650D01*
X144769167Y-59795202D01*
X144654167Y-59795202D01*
X144617179Y-59609249D01*
X144544623Y-59434085D01*
X144481194Y-59339158D01*
X144439291Y-59276444D01*
X144305222Y-59142375D01*
X144200645Y-59072500D01*
X144147582Y-59037044D01*
X144147579Y-59037042D01*
X144147578Y-59037042D01*
X143972421Y-58964489D01*
X143972415Y-58964487D01*
X143897426Y-58949571D01*
X143786465Y-58927500D01*
X143596869Y-58927500D01*
X143504317Y-58945909D01*
X143410918Y-58964487D01*
X143410912Y-58964489D01*
X143235755Y-59037042D01*
X143078111Y-59142375D01*
X142944042Y-59276444D01*
X142838709Y-59434088D01*
X142766156Y-59609245D01*
X142766154Y-59609251D01*
X142747576Y-59702650D01*
X142729167Y-59795202D01*
X142614167Y-59795202D01*
X142577179Y-59609249D01*
X142504623Y-59434085D01*
X142441194Y-59339158D01*
X142399291Y-59276444D01*
X142265222Y-59142375D01*
X142160645Y-59072500D01*
X142107582Y-59037044D01*
X142107579Y-59037042D01*
X142107578Y-59037042D01*
X141932421Y-58964489D01*
X141932415Y-58964487D01*
X141857426Y-58949571D01*
X141746465Y-58927500D01*
X141556869Y-58927500D01*
X141464317Y-58945909D01*
X141370918Y-58964487D01*
X141370912Y-58964489D01*
X141195755Y-59037042D01*
X141038111Y-59142375D01*
X140904042Y-59276444D01*
X140798709Y-59434088D01*
X140726156Y-59609245D01*
X140726154Y-59609251D01*
X140707576Y-59702650D01*
X140689167Y-59795202D01*
X140574167Y-59795202D01*
X140537179Y-59609249D01*
X140464623Y-59434085D01*
X140401194Y-59339158D01*
X140359291Y-59276444D01*
X140225222Y-59142375D01*
X140120645Y-59072500D01*
X140067582Y-59037044D01*
X140067579Y-59037042D01*
X140067578Y-59037042D01*
X139892421Y-58964489D01*
X139892415Y-58964487D01*
X139817426Y-58949571D01*
X139706465Y-58927500D01*
X139516869Y-58927500D01*
X139424317Y-58945909D01*
X139330918Y-58964487D01*
X139330912Y-58964489D01*
X139155755Y-59037042D01*
X138998111Y-59142375D01*
X138864042Y-59276444D01*
X138758709Y-59434088D01*
X138686156Y-59609245D01*
X138686154Y-59609251D01*
X138667576Y-59702650D01*
X138649167Y-59795202D01*
X127575833Y-59795202D01*
X127538845Y-59609249D01*
X127466289Y-59434085D01*
X127402860Y-59339158D01*
X127360957Y-59276444D01*
X127226888Y-59142375D01*
X127122311Y-59072500D01*
X127069248Y-59037044D01*
X127069245Y-59037042D01*
X127069244Y-59037042D01*
X126894087Y-58964489D01*
X126894081Y-58964487D01*
X126819092Y-58949571D01*
X126708131Y-58927500D01*
X126518535Y-58927500D01*
X126425983Y-58945909D01*
X126332584Y-58964487D01*
X126332578Y-58964489D01*
X126157421Y-59037042D01*
X125999777Y-59142375D01*
X125865708Y-59276444D01*
X125760375Y-59434088D01*
X125687822Y-59609245D01*
X125687820Y-59609251D01*
X125669242Y-59702650D01*
X125650833Y-59795202D01*
X125535833Y-59795202D01*
X125498845Y-59609249D01*
X125426289Y-59434085D01*
X125362860Y-59339158D01*
X125320957Y-59276444D01*
X125186888Y-59142375D01*
X125082311Y-59072500D01*
X125029248Y-59037044D01*
X125029245Y-59037042D01*
X125029244Y-59037042D01*
X124854087Y-58964489D01*
X124854081Y-58964487D01*
X124779092Y-58949571D01*
X124668131Y-58927500D01*
X124478535Y-58927500D01*
X124385983Y-58945909D01*
X124292584Y-58964487D01*
X124292578Y-58964489D01*
X124117421Y-59037042D01*
X123959777Y-59142375D01*
X123825708Y-59276444D01*
X123720375Y-59434088D01*
X123647822Y-59609245D01*
X123647820Y-59609251D01*
X123629242Y-59702650D01*
X123610833Y-59795202D01*
X123495833Y-59795202D01*
X123458845Y-59609249D01*
X123386289Y-59434085D01*
X123322860Y-59339158D01*
X123280957Y-59276444D01*
X123146888Y-59142375D01*
X123042311Y-59072500D01*
X122989248Y-59037044D01*
X122989245Y-59037042D01*
X122989244Y-59037042D01*
X122814087Y-58964489D01*
X122814081Y-58964487D01*
X122739092Y-58949571D01*
X122628131Y-58927500D01*
X122438535Y-58927500D01*
X122345983Y-58945909D01*
X122252584Y-58964487D01*
X122252578Y-58964489D01*
X122077421Y-59037042D01*
X121919777Y-59142375D01*
X121785708Y-59276444D01*
X121680375Y-59434088D01*
X121607822Y-59609245D01*
X121607820Y-59609251D01*
X121589242Y-59702650D01*
X121570833Y-59795202D01*
X121455833Y-59795202D01*
X121418845Y-59609249D01*
X121346289Y-59434085D01*
X121282860Y-59339158D01*
X121240957Y-59276444D01*
X121106888Y-59142375D01*
X121002311Y-59072500D01*
X120949248Y-59037044D01*
X120949245Y-59037042D01*
X120949244Y-59037042D01*
X120774087Y-58964489D01*
X120774081Y-58964487D01*
X120699092Y-58949571D01*
X120588131Y-58927500D01*
X120398535Y-58927500D01*
X120305983Y-58945909D01*
X120212584Y-58964487D01*
X120212578Y-58964489D01*
X120037421Y-59037042D01*
X119879777Y-59142375D01*
X119745708Y-59276444D01*
X119640375Y-59434088D01*
X119567822Y-59609245D01*
X119567820Y-59609251D01*
X119549242Y-59702650D01*
X119530833Y-59795202D01*
X106569558Y-59795202D01*
X106612547Y-59710832D01*
X106670940Y-59531118D01*
X106700500Y-59344481D01*
X106700500Y-59155519D01*
X106670940Y-58968882D01*
X106612547Y-58789168D01*
X106526760Y-58620801D01*
X106415690Y-58467927D01*
X106415686Y-58467923D01*
X106415684Y-58467920D01*
X106282079Y-58334315D01*
X106282080Y-58334315D01*
X106129193Y-58223236D01*
X105960833Y-58137453D01*
X105781118Y-58079060D01*
X105781115Y-58079059D01*
X105668303Y-58061192D01*
X105639870Y-58056688D01*
X105594481Y-58049500D01*
X105405519Y-58049500D01*
X105370397Y-58055062D01*
X105218884Y-58079059D01*
X105218881Y-58079060D01*
X105039166Y-58137453D01*
X104870806Y-58223236D01*
X104717920Y-58334315D01*
X104584315Y-58467920D01*
X104473236Y-58620806D01*
X104387453Y-58789166D01*
X104329060Y-58968881D01*
X104329059Y-58968884D01*
X104299500Y-59155519D01*
X96500500Y-59155519D01*
X96500500Y-58015202D01*
X118510833Y-58015202D01*
X118510833Y-58204798D01*
X118535378Y-58328200D01*
X118547820Y-58390748D01*
X118547822Y-58390754D01*
X118579788Y-58467927D01*
X118620377Y-58565915D01*
X118657051Y-58620801D01*
X118725708Y-58723555D01*
X118859777Y-58857624D01*
X118922491Y-58899527D01*
X119017418Y-58962956D01*
X119192582Y-59035512D01*
X119378535Y-59072500D01*
X119378538Y-59072500D01*
X119568128Y-59072500D01*
X119568131Y-59072500D01*
X119754084Y-59035512D01*
X119929248Y-58962956D01*
X120086891Y-58857622D01*
X120220955Y-58723558D01*
X120326289Y-58565915D01*
X120398845Y-58390751D01*
X120435833Y-58204798D01*
X120435833Y-58015202D01*
X120550833Y-58015202D01*
X120550833Y-58204798D01*
X120575378Y-58328200D01*
X120587820Y-58390748D01*
X120587822Y-58390754D01*
X120619788Y-58467927D01*
X120660377Y-58565915D01*
X120697051Y-58620801D01*
X120765708Y-58723555D01*
X120899777Y-58857624D01*
X120962491Y-58899527D01*
X121057418Y-58962956D01*
X121232582Y-59035512D01*
X121418535Y-59072500D01*
X121418538Y-59072500D01*
X121608128Y-59072500D01*
X121608131Y-59072500D01*
X121794084Y-59035512D01*
X121969248Y-58962956D01*
X122126891Y-58857622D01*
X122260955Y-58723558D01*
X122366289Y-58565915D01*
X122438845Y-58390751D01*
X122475833Y-58204798D01*
X122475833Y-58015202D01*
X122590833Y-58015202D01*
X122590833Y-58204798D01*
X122615378Y-58328200D01*
X122627820Y-58390748D01*
X122627822Y-58390754D01*
X122659788Y-58467927D01*
X122700377Y-58565915D01*
X122737051Y-58620801D01*
X122805708Y-58723555D01*
X122939777Y-58857624D01*
X123002491Y-58899527D01*
X123097418Y-58962956D01*
X123272582Y-59035512D01*
X123458535Y-59072500D01*
X123458538Y-59072500D01*
X123648128Y-59072500D01*
X123648131Y-59072500D01*
X123834084Y-59035512D01*
X124009248Y-58962956D01*
X124166891Y-58857622D01*
X124300955Y-58723558D01*
X124406289Y-58565915D01*
X124478845Y-58390751D01*
X124515833Y-58204798D01*
X124515833Y-58015202D01*
X124630833Y-58015202D01*
X124630833Y-58204798D01*
X124655378Y-58328200D01*
X124667820Y-58390748D01*
X124667822Y-58390754D01*
X124699788Y-58467927D01*
X124740377Y-58565915D01*
X124777051Y-58620801D01*
X124845708Y-58723555D01*
X124979777Y-58857624D01*
X125042491Y-58899527D01*
X125137418Y-58962956D01*
X125312582Y-59035512D01*
X125498535Y-59072500D01*
X125498538Y-59072500D01*
X125688128Y-59072500D01*
X125688131Y-59072500D01*
X125874084Y-59035512D01*
X126049248Y-58962956D01*
X126206891Y-58857622D01*
X126340955Y-58723558D01*
X126446289Y-58565915D01*
X126518845Y-58390751D01*
X126555833Y-58204798D01*
X126555833Y-58015202D01*
X137629167Y-58015202D01*
X137629167Y-58204798D01*
X137653712Y-58328200D01*
X137666154Y-58390748D01*
X137666156Y-58390754D01*
X137698122Y-58467927D01*
X137738711Y-58565915D01*
X137775385Y-58620801D01*
X137844042Y-58723555D01*
X137978111Y-58857624D01*
X138040825Y-58899527D01*
X138135752Y-58962956D01*
X138310916Y-59035512D01*
X138496869Y-59072500D01*
X138496872Y-59072500D01*
X138686462Y-59072500D01*
X138686465Y-59072500D01*
X138872418Y-59035512D01*
X139047582Y-58962956D01*
X139205225Y-58857622D01*
X139339289Y-58723558D01*
X139444623Y-58565915D01*
X139517179Y-58390751D01*
X139554167Y-58204798D01*
X139554167Y-58015202D01*
X139669167Y-58015202D01*
X139669167Y-58204798D01*
X139693712Y-58328200D01*
X139706154Y-58390748D01*
X139706156Y-58390754D01*
X139738122Y-58467927D01*
X139778711Y-58565915D01*
X139815385Y-58620801D01*
X139884042Y-58723555D01*
X140018111Y-58857624D01*
X140080825Y-58899527D01*
X140175752Y-58962956D01*
X140350916Y-59035512D01*
X140536869Y-59072500D01*
X140536872Y-59072500D01*
X140726462Y-59072500D01*
X140726465Y-59072500D01*
X140912418Y-59035512D01*
X141087582Y-58962956D01*
X141245225Y-58857622D01*
X141379289Y-58723558D01*
X141484623Y-58565915D01*
X141557179Y-58390751D01*
X141594167Y-58204798D01*
X141594167Y-58015202D01*
X141709167Y-58015202D01*
X141709167Y-58204798D01*
X141733712Y-58328200D01*
X141746154Y-58390748D01*
X141746156Y-58390754D01*
X141778122Y-58467927D01*
X141818711Y-58565915D01*
X141855385Y-58620801D01*
X141924042Y-58723555D01*
X142058111Y-58857624D01*
X142120825Y-58899527D01*
X142215752Y-58962956D01*
X142390916Y-59035512D01*
X142576869Y-59072500D01*
X142576872Y-59072500D01*
X142766462Y-59072500D01*
X142766465Y-59072500D01*
X142952418Y-59035512D01*
X143127582Y-58962956D01*
X143285225Y-58857622D01*
X143419289Y-58723558D01*
X143524623Y-58565915D01*
X143597179Y-58390751D01*
X143634167Y-58204798D01*
X143634167Y-58015202D01*
X143749167Y-58015202D01*
X143749167Y-58204798D01*
X143773712Y-58328200D01*
X143786154Y-58390748D01*
X143786156Y-58390754D01*
X143818122Y-58467927D01*
X143858711Y-58565915D01*
X143895385Y-58620801D01*
X143964042Y-58723555D01*
X144098111Y-58857624D01*
X144160825Y-58899527D01*
X144255752Y-58962956D01*
X144430916Y-59035512D01*
X144616869Y-59072500D01*
X144616872Y-59072500D01*
X144806462Y-59072500D01*
X144806465Y-59072500D01*
X144992418Y-59035512D01*
X145167582Y-58962956D01*
X145325225Y-58857622D01*
X145459289Y-58723558D01*
X145564623Y-58565915D01*
X145637179Y-58390751D01*
X145674167Y-58204798D01*
X145674167Y-58015202D01*
X175865833Y-58015202D01*
X175865833Y-58204798D01*
X175890378Y-58328200D01*
X175902820Y-58390748D01*
X175902822Y-58390754D01*
X175934788Y-58467927D01*
X175975377Y-58565915D01*
X176012051Y-58620801D01*
X176080708Y-58723555D01*
X176214777Y-58857624D01*
X176277491Y-58899527D01*
X176372418Y-58962956D01*
X176547582Y-59035512D01*
X176733535Y-59072500D01*
X176733538Y-59072500D01*
X176923128Y-59072500D01*
X176923131Y-59072500D01*
X177109084Y-59035512D01*
X177284248Y-58962956D01*
X177441891Y-58857622D01*
X177575955Y-58723558D01*
X177681289Y-58565915D01*
X177753845Y-58390751D01*
X177790833Y-58204798D01*
X177790833Y-58015202D01*
X177753845Y-57829249D01*
X177681289Y-57654085D01*
X177592030Y-57520500D01*
X177575957Y-57496444D01*
X177441888Y-57362375D01*
X177347816Y-57299519D01*
X177284248Y-57257044D01*
X177284245Y-57257042D01*
X177284244Y-57257042D01*
X177109087Y-57184489D01*
X177109081Y-57184487D01*
X177034092Y-57169571D01*
X176923131Y-57147500D01*
X176733535Y-57147500D01*
X176640983Y-57165909D01*
X176547584Y-57184487D01*
X176547578Y-57184489D01*
X176372421Y-57257042D01*
X176214777Y-57362375D01*
X176080708Y-57496444D01*
X175975375Y-57654088D01*
X175902822Y-57829245D01*
X175902820Y-57829251D01*
X175884242Y-57922650D01*
X175865833Y-58015202D01*
X145674167Y-58015202D01*
X145637179Y-57829249D01*
X145564623Y-57654085D01*
X145475364Y-57520500D01*
X145459291Y-57496444D01*
X145325222Y-57362375D01*
X145231150Y-57299519D01*
X145167582Y-57257044D01*
X145167579Y-57257042D01*
X145167578Y-57257042D01*
X144992421Y-57184489D01*
X144992415Y-57184487D01*
X144917426Y-57169571D01*
X144806465Y-57147500D01*
X144616869Y-57147500D01*
X144524317Y-57165909D01*
X144430918Y-57184487D01*
X144430912Y-57184489D01*
X144255755Y-57257042D01*
X144098111Y-57362375D01*
X143964042Y-57496444D01*
X143858709Y-57654088D01*
X143786156Y-57829245D01*
X143786154Y-57829251D01*
X143767576Y-57922650D01*
X143749167Y-58015202D01*
X143634167Y-58015202D01*
X143597179Y-57829249D01*
X143524623Y-57654085D01*
X143435364Y-57520500D01*
X143419291Y-57496444D01*
X143285222Y-57362375D01*
X143191150Y-57299519D01*
X143127582Y-57257044D01*
X143127579Y-57257042D01*
X143127578Y-57257042D01*
X142952421Y-57184489D01*
X142952415Y-57184487D01*
X142877426Y-57169571D01*
X142766465Y-57147500D01*
X142576869Y-57147500D01*
X142484317Y-57165909D01*
X142390918Y-57184487D01*
X142390912Y-57184489D01*
X142215755Y-57257042D01*
X142058111Y-57362375D01*
X141924042Y-57496444D01*
X141818709Y-57654088D01*
X141746156Y-57829245D01*
X141746154Y-57829251D01*
X141727576Y-57922650D01*
X141709167Y-58015202D01*
X141594167Y-58015202D01*
X141557179Y-57829249D01*
X141484623Y-57654085D01*
X141395364Y-57520500D01*
X141379291Y-57496444D01*
X141245222Y-57362375D01*
X141151150Y-57299519D01*
X141087582Y-57257044D01*
X141087579Y-57257042D01*
X141087578Y-57257042D01*
X140912421Y-57184489D01*
X140912415Y-57184487D01*
X140837426Y-57169571D01*
X140726465Y-57147500D01*
X140536869Y-57147500D01*
X140444317Y-57165909D01*
X140350918Y-57184487D01*
X140350912Y-57184489D01*
X140175755Y-57257042D01*
X140018111Y-57362375D01*
X139884042Y-57496444D01*
X139778709Y-57654088D01*
X139706156Y-57829245D01*
X139706154Y-57829251D01*
X139687576Y-57922650D01*
X139669167Y-58015202D01*
X139554167Y-58015202D01*
X139517179Y-57829249D01*
X139444623Y-57654085D01*
X139355364Y-57520500D01*
X139339291Y-57496444D01*
X139205222Y-57362375D01*
X139111150Y-57299519D01*
X139047582Y-57257044D01*
X139047579Y-57257042D01*
X139047578Y-57257042D01*
X138872421Y-57184489D01*
X138872415Y-57184487D01*
X138797426Y-57169571D01*
X138686465Y-57147500D01*
X138496869Y-57147500D01*
X138404317Y-57165909D01*
X138310918Y-57184487D01*
X138310912Y-57184489D01*
X138135755Y-57257042D01*
X137978111Y-57362375D01*
X137844042Y-57496444D01*
X137738709Y-57654088D01*
X137666156Y-57829245D01*
X137666154Y-57829251D01*
X137647576Y-57922650D01*
X137629167Y-58015202D01*
X126555833Y-58015202D01*
X126518845Y-57829249D01*
X126446289Y-57654085D01*
X126357030Y-57520500D01*
X126340957Y-57496444D01*
X126206888Y-57362375D01*
X126112816Y-57299519D01*
X126049248Y-57257044D01*
X126049245Y-57257042D01*
X126049244Y-57257042D01*
X125874087Y-57184489D01*
X125874081Y-57184487D01*
X125799092Y-57169571D01*
X125688131Y-57147500D01*
X125498535Y-57147500D01*
X125405983Y-57165909D01*
X125312584Y-57184487D01*
X125312578Y-57184489D01*
X125137421Y-57257042D01*
X124979777Y-57362375D01*
X124845708Y-57496444D01*
X124740375Y-57654088D01*
X124667822Y-57829245D01*
X124667820Y-57829251D01*
X124649242Y-57922650D01*
X124630833Y-58015202D01*
X124515833Y-58015202D01*
X124478845Y-57829249D01*
X124406289Y-57654085D01*
X124317030Y-57520500D01*
X124300957Y-57496444D01*
X124166888Y-57362375D01*
X124072816Y-57299519D01*
X124009248Y-57257044D01*
X124009245Y-57257042D01*
X124009244Y-57257042D01*
X123834087Y-57184489D01*
X123834081Y-57184487D01*
X123759092Y-57169571D01*
X123648131Y-57147500D01*
X123458535Y-57147500D01*
X123365983Y-57165909D01*
X123272584Y-57184487D01*
X123272578Y-57184489D01*
X123097421Y-57257042D01*
X122939777Y-57362375D01*
X122805708Y-57496444D01*
X122700375Y-57654088D01*
X122627822Y-57829245D01*
X122627820Y-57829251D01*
X122609242Y-57922650D01*
X122590833Y-58015202D01*
X122475833Y-58015202D01*
X122438845Y-57829249D01*
X122366289Y-57654085D01*
X122277030Y-57520500D01*
X122260957Y-57496444D01*
X122126888Y-57362375D01*
X122032816Y-57299519D01*
X121969248Y-57257044D01*
X121969245Y-57257042D01*
X121969244Y-57257042D01*
X121794087Y-57184489D01*
X121794081Y-57184487D01*
X121719092Y-57169571D01*
X121608131Y-57147500D01*
X121418535Y-57147500D01*
X121325983Y-57165909D01*
X121232584Y-57184487D01*
X121232578Y-57184489D01*
X121057421Y-57257042D01*
X120899777Y-57362375D01*
X120765708Y-57496444D01*
X120660375Y-57654088D01*
X120587822Y-57829245D01*
X120587820Y-57829251D01*
X120569242Y-57922650D01*
X120550833Y-58015202D01*
X120435833Y-58015202D01*
X120398845Y-57829249D01*
X120326289Y-57654085D01*
X120237030Y-57520500D01*
X120220957Y-57496444D01*
X120086888Y-57362375D01*
X119992816Y-57299519D01*
X119929248Y-57257044D01*
X119929245Y-57257042D01*
X119929244Y-57257042D01*
X119754087Y-57184489D01*
X119754081Y-57184487D01*
X119679092Y-57169571D01*
X119568131Y-57147500D01*
X119378535Y-57147500D01*
X119285983Y-57165909D01*
X119192584Y-57184487D01*
X119192578Y-57184489D01*
X119017421Y-57257042D01*
X118859777Y-57362375D01*
X118725708Y-57496444D01*
X118620375Y-57654088D01*
X118547822Y-57829245D01*
X118547820Y-57829251D01*
X118529242Y-57922650D01*
X118510833Y-58015202D01*
X96500500Y-58015202D01*
X96500500Y-54863389D01*
X104399500Y-54863389D01*
X104399500Y-55036610D01*
X104426597Y-55207698D01*
X104426598Y-55207701D01*
X104480127Y-55372446D01*
X104558764Y-55526782D01*
X104558767Y-55526786D01*
X104558768Y-55526788D01*
X104660586Y-55666928D01*
X104660588Y-55666930D01*
X104660591Y-55666934D01*
X104783065Y-55789408D01*
X104783068Y-55789410D01*
X104783072Y-55789414D01*
X104923212Y-55891232D01*
X104923214Y-55891233D01*
X104923217Y-55891235D01*
X105041203Y-55951351D01*
X105077555Y-55969873D01*
X105242299Y-56023402D01*
X105413389Y-56050500D01*
X105413390Y-56050500D01*
X105586610Y-56050500D01*
X105586611Y-56050500D01*
X105757701Y-56023402D01*
X105922445Y-55969873D01*
X106076788Y-55891232D01*
X106216928Y-55789414D01*
X106308503Y-55697839D01*
X114742832Y-55697839D01*
X114742833Y-55697843D01*
X114776207Y-55951340D01*
X114776208Y-55951344D01*
X114776209Y-55951351D01*
X114842381Y-56198308D01*
X114842383Y-56198314D01*
X114940229Y-56434536D01*
X115068070Y-56655962D01*
X115068080Y-56655977D01*
X115223714Y-56858803D01*
X115223725Y-56858815D01*
X115404517Y-57039607D01*
X115404529Y-57039618D01*
X115607355Y-57195252D01*
X115607364Y-57195258D01*
X115607368Y-57195261D01*
X115828798Y-57323104D01*
X116065020Y-57420950D01*
X116065024Y-57420951D01*
X116311981Y-57487123D01*
X116311982Y-57487123D01*
X116311993Y-57487126D01*
X116565490Y-57520500D01*
X116565493Y-57520500D01*
X116821172Y-57520500D01*
X116821176Y-57520500D01*
X117074673Y-57487126D01*
X117321646Y-57420950D01*
X117557868Y-57323104D01*
X117779298Y-57195261D01*
X117779310Y-57195252D01*
X117982136Y-57039618D01*
X117982138Y-57039615D01*
X117982146Y-57039610D01*
X118162943Y-56858813D01*
X118318594Y-56655965D01*
X118446437Y-56434535D01*
X118544283Y-56198313D01*
X118610459Y-55951340D01*
X118643833Y-55697843D01*
X118643833Y-55697839D01*
X127442832Y-55697839D01*
X127442833Y-55697843D01*
X127476207Y-55951340D01*
X127476208Y-55951344D01*
X127476209Y-55951351D01*
X127542381Y-56198308D01*
X127542383Y-56198314D01*
X127640229Y-56434536D01*
X127768070Y-56655962D01*
X127768080Y-56655977D01*
X127923714Y-56858803D01*
X127923725Y-56858815D01*
X128104517Y-57039607D01*
X128104529Y-57039618D01*
X128307355Y-57195252D01*
X128307364Y-57195258D01*
X128307368Y-57195261D01*
X128528798Y-57323104D01*
X128765020Y-57420950D01*
X128765024Y-57420951D01*
X129011981Y-57487123D01*
X129011982Y-57487123D01*
X129011993Y-57487126D01*
X129265490Y-57520500D01*
X129265493Y-57520500D01*
X129521172Y-57520500D01*
X129521176Y-57520500D01*
X129774673Y-57487126D01*
X130021646Y-57420950D01*
X130257868Y-57323104D01*
X130479298Y-57195261D01*
X130479310Y-57195252D01*
X130682136Y-57039618D01*
X130682138Y-57039615D01*
X130682146Y-57039610D01*
X130862943Y-56858813D01*
X131018594Y-56655965D01*
X131146437Y-56434535D01*
X131244283Y-56198313D01*
X131310459Y-55951340D01*
X131343833Y-55697843D01*
X131343833Y-55697839D01*
X133861166Y-55697839D01*
X133861167Y-55697843D01*
X133894541Y-55951340D01*
X133894542Y-55951344D01*
X133894543Y-55951351D01*
X133960715Y-56198308D01*
X133960717Y-56198314D01*
X134058563Y-56434536D01*
X134186404Y-56655962D01*
X134186414Y-56655977D01*
X134342048Y-56858803D01*
X134342059Y-56858815D01*
X134522851Y-57039607D01*
X134522863Y-57039618D01*
X134725689Y-57195252D01*
X134725698Y-57195258D01*
X134725702Y-57195261D01*
X134947132Y-57323104D01*
X135183354Y-57420950D01*
X135183358Y-57420951D01*
X135430315Y-57487123D01*
X135430316Y-57487123D01*
X135430327Y-57487126D01*
X135683824Y-57520500D01*
X135683827Y-57520500D01*
X135939506Y-57520500D01*
X135939510Y-57520500D01*
X136193007Y-57487126D01*
X136439980Y-57420950D01*
X136676202Y-57323104D01*
X136897632Y-57195261D01*
X136897644Y-57195252D01*
X137100470Y-57039618D01*
X137100472Y-57039615D01*
X137100480Y-57039610D01*
X137281277Y-56858813D01*
X137436928Y-56655965D01*
X137564771Y-56434535D01*
X137662617Y-56198313D01*
X137728793Y-55951340D01*
X137762167Y-55697843D01*
X137762167Y-55697839D01*
X146561166Y-55697839D01*
X146561167Y-55697843D01*
X146594541Y-55951340D01*
X146594542Y-55951344D01*
X146594543Y-55951351D01*
X146660715Y-56198308D01*
X146660717Y-56198314D01*
X146758563Y-56434536D01*
X146886404Y-56655962D01*
X146886414Y-56655977D01*
X147042048Y-56858803D01*
X147042059Y-56858815D01*
X147222851Y-57039607D01*
X147222863Y-57039618D01*
X147425689Y-57195252D01*
X147425698Y-57195258D01*
X147425702Y-57195261D01*
X147647132Y-57323104D01*
X147883354Y-57420950D01*
X147883358Y-57420951D01*
X148130315Y-57487123D01*
X148130316Y-57487123D01*
X148130327Y-57487126D01*
X148383824Y-57520500D01*
X148383827Y-57520500D01*
X148639506Y-57520500D01*
X148639510Y-57520500D01*
X148893007Y-57487126D01*
X149139980Y-57420950D01*
X149376202Y-57323104D01*
X149597632Y-57195261D01*
X149597644Y-57195252D01*
X149800470Y-57039618D01*
X149800472Y-57039615D01*
X149800480Y-57039610D01*
X149981277Y-56858813D01*
X150136928Y-56655965D01*
X150264771Y-56434535D01*
X150362617Y-56198313D01*
X150428793Y-55951340D01*
X150462167Y-55697843D01*
X150462167Y-55697839D01*
X152979499Y-55697839D01*
X152979500Y-55697843D01*
X153012874Y-55951340D01*
X153012875Y-55951344D01*
X153012876Y-55951351D01*
X153079048Y-56198308D01*
X153079050Y-56198314D01*
X153176896Y-56434536D01*
X153304737Y-56655962D01*
X153304747Y-56655977D01*
X153460381Y-56858803D01*
X153460392Y-56858815D01*
X153641184Y-57039607D01*
X153641196Y-57039618D01*
X153844022Y-57195252D01*
X153844031Y-57195258D01*
X153844035Y-57195261D01*
X154065465Y-57323104D01*
X154301687Y-57420950D01*
X154301691Y-57420951D01*
X154548648Y-57487123D01*
X154548649Y-57487123D01*
X154548660Y-57487126D01*
X154802157Y-57520500D01*
X154802160Y-57520500D01*
X155057839Y-57520500D01*
X155057843Y-57520500D01*
X155311340Y-57487126D01*
X155558313Y-57420950D01*
X155794535Y-57323104D01*
X156015965Y-57195261D01*
X156015977Y-57195252D01*
X156218803Y-57039618D01*
X156218805Y-57039615D01*
X156218813Y-57039610D01*
X156399610Y-56858813D01*
X156555261Y-56655965D01*
X156683104Y-56434535D01*
X156780950Y-56198313D01*
X156847126Y-55951340D01*
X156880500Y-55697843D01*
X156880500Y-55697839D01*
X165679499Y-55697839D01*
X165679500Y-55697843D01*
X165712874Y-55951340D01*
X165712875Y-55951344D01*
X165712876Y-55951351D01*
X165779048Y-56198308D01*
X165779050Y-56198314D01*
X165876896Y-56434536D01*
X166004737Y-56655962D01*
X166004747Y-56655977D01*
X166160381Y-56858803D01*
X166160392Y-56858815D01*
X166341184Y-57039607D01*
X166341196Y-57039618D01*
X166544022Y-57195252D01*
X166544031Y-57195258D01*
X166544035Y-57195261D01*
X166765465Y-57323104D01*
X167001687Y-57420950D01*
X167001691Y-57420951D01*
X167248648Y-57487123D01*
X167248649Y-57487123D01*
X167248660Y-57487126D01*
X167502157Y-57520500D01*
X167502160Y-57520500D01*
X167757839Y-57520500D01*
X167757843Y-57520500D01*
X168011340Y-57487126D01*
X168258313Y-57420950D01*
X168494535Y-57323104D01*
X168715965Y-57195261D01*
X168715977Y-57195252D01*
X168918803Y-57039618D01*
X168918805Y-57039615D01*
X168918813Y-57039610D01*
X169099610Y-56858813D01*
X169255261Y-56655965D01*
X169383104Y-56434535D01*
X169480950Y-56198313D01*
X169547126Y-55951340D01*
X169580500Y-55697843D01*
X169580500Y-55697839D01*
X172097832Y-55697839D01*
X172097833Y-55697843D01*
X172131207Y-55951340D01*
X172131208Y-55951344D01*
X172131209Y-55951351D01*
X172197381Y-56198308D01*
X172197383Y-56198314D01*
X172295229Y-56434536D01*
X172423070Y-56655962D01*
X172423080Y-56655977D01*
X172578714Y-56858803D01*
X172578725Y-56858815D01*
X172759517Y-57039607D01*
X172759529Y-57039618D01*
X172962355Y-57195252D01*
X172962364Y-57195258D01*
X172962368Y-57195261D01*
X173183798Y-57323104D01*
X173420020Y-57420950D01*
X173420024Y-57420951D01*
X173666981Y-57487123D01*
X173666982Y-57487123D01*
X173666993Y-57487126D01*
X173920490Y-57520500D01*
X173920493Y-57520500D01*
X174176172Y-57520500D01*
X174176176Y-57520500D01*
X174429673Y-57487126D01*
X174676646Y-57420950D01*
X174912868Y-57323104D01*
X175134298Y-57195261D01*
X175134310Y-57195252D01*
X175337136Y-57039618D01*
X175337138Y-57039615D01*
X175337146Y-57039610D01*
X175517943Y-56858813D01*
X175673594Y-56655965D01*
X175801437Y-56434535D01*
X175899283Y-56198313D01*
X175965459Y-55951340D01*
X175998833Y-55697843D01*
X175998833Y-55697839D01*
X184797832Y-55697839D01*
X184797833Y-55697843D01*
X184831207Y-55951340D01*
X184831208Y-55951344D01*
X184831209Y-55951351D01*
X184897381Y-56198308D01*
X184897383Y-56198314D01*
X184995229Y-56434536D01*
X185123070Y-56655962D01*
X185123080Y-56655977D01*
X185278714Y-56858803D01*
X185278725Y-56858815D01*
X185459517Y-57039607D01*
X185459529Y-57039618D01*
X185662355Y-57195252D01*
X185662364Y-57195258D01*
X185662368Y-57195261D01*
X185883798Y-57323104D01*
X186120020Y-57420950D01*
X186120024Y-57420951D01*
X186366981Y-57487123D01*
X186366982Y-57487123D01*
X186366993Y-57487126D01*
X186620490Y-57520500D01*
X186620493Y-57520500D01*
X186876172Y-57520500D01*
X186876176Y-57520500D01*
X187129673Y-57487126D01*
X187376646Y-57420950D01*
X187612868Y-57323104D01*
X187834298Y-57195261D01*
X187834310Y-57195252D01*
X188037136Y-57039618D01*
X188037138Y-57039615D01*
X188037146Y-57039610D01*
X188217943Y-56858813D01*
X188373594Y-56655965D01*
X188501437Y-56434535D01*
X188599283Y-56198313D01*
X188665459Y-55951340D01*
X188698833Y-55697843D01*
X188698833Y-55442157D01*
X188665459Y-55188660D01*
X188599283Y-54941687D01*
X188581042Y-54897648D01*
X192786167Y-54897648D01*
X192786167Y-55102351D01*
X192818189Y-55304531D01*
X192818190Y-55304534D01*
X192881446Y-55499217D01*
X192974381Y-55681612D01*
X192974383Y-55681615D01*
X193094702Y-55847220D01*
X193094706Y-55847225D01*
X193239442Y-55991961D01*
X193239446Y-55991964D01*
X193239448Y-55991966D01*
X193405057Y-56112287D01*
X193587448Y-56205220D01*
X193782133Y-56268477D01*
X193984315Y-56300500D01*
X193984316Y-56300500D01*
X194189018Y-56300500D01*
X194189019Y-56300500D01*
X194391201Y-56268477D01*
X194585886Y-56205220D01*
X194768277Y-56112287D01*
X194933886Y-55991966D01*
X194933889Y-55991962D01*
X194933892Y-55991961D01*
X195078628Y-55847225D01*
X195078629Y-55847222D01*
X195078633Y-55847219D01*
X195198954Y-55681610D01*
X195291887Y-55499219D01*
X195355144Y-55304534D01*
X195387167Y-55102352D01*
X195387167Y-54897648D01*
X197866167Y-54897648D01*
X197866167Y-55102351D01*
X197898189Y-55304531D01*
X197898190Y-55304534D01*
X197961446Y-55499217D01*
X198054381Y-55681612D01*
X198054383Y-55681615D01*
X198174702Y-55847220D01*
X198174706Y-55847225D01*
X198319442Y-55991961D01*
X198319446Y-55991964D01*
X198319448Y-55991966D01*
X198485057Y-56112287D01*
X198667448Y-56205220D01*
X198862133Y-56268477D01*
X199064315Y-56300500D01*
X199064316Y-56300500D01*
X199269018Y-56300500D01*
X199269019Y-56300500D01*
X199471201Y-56268477D01*
X199665886Y-56205220D01*
X199848277Y-56112287D01*
X200013886Y-55991966D01*
X200013889Y-55991962D01*
X200013892Y-55991961D01*
X200158628Y-55847225D01*
X200158629Y-55847222D01*
X200158633Y-55847219D01*
X200278954Y-55681610D01*
X200371887Y-55499219D01*
X200435144Y-55304534D01*
X200467167Y-55102352D01*
X200467167Y-54897648D01*
X206159500Y-54897648D01*
X206159500Y-55102351D01*
X206191522Y-55304531D01*
X206191523Y-55304534D01*
X206254779Y-55499217D01*
X206347714Y-55681612D01*
X206347716Y-55681615D01*
X206468035Y-55847220D01*
X206468039Y-55847225D01*
X206612775Y-55991961D01*
X206612779Y-55991964D01*
X206612781Y-55991966D01*
X206778390Y-56112287D01*
X206960781Y-56205220D01*
X207155466Y-56268477D01*
X207357648Y-56300500D01*
X207357649Y-56300500D01*
X207562351Y-56300500D01*
X207562352Y-56300500D01*
X207764534Y-56268477D01*
X207959219Y-56205220D01*
X208141610Y-56112287D01*
X208307219Y-55991966D01*
X208307222Y-55991962D01*
X208307225Y-55991961D01*
X208451961Y-55847225D01*
X208451962Y-55847222D01*
X208451966Y-55847219D01*
X208572287Y-55681610D01*
X208665220Y-55499219D01*
X208728477Y-55304534D01*
X208760500Y-55102352D01*
X208760500Y-54897648D01*
X211239500Y-54897648D01*
X211239500Y-55102351D01*
X211271522Y-55304531D01*
X211271523Y-55304534D01*
X211334779Y-55499217D01*
X211427714Y-55681612D01*
X211427716Y-55681615D01*
X211548035Y-55847220D01*
X211548039Y-55847225D01*
X211692775Y-55991961D01*
X211692779Y-55991964D01*
X211692781Y-55991966D01*
X211858390Y-56112287D01*
X212040781Y-56205220D01*
X212235466Y-56268477D01*
X212437648Y-56300500D01*
X212437649Y-56300500D01*
X212642351Y-56300500D01*
X212642352Y-56300500D01*
X212844534Y-56268477D01*
X213039219Y-56205220D01*
X213221610Y-56112287D01*
X213387219Y-55991966D01*
X213387222Y-55991962D01*
X213387225Y-55991961D01*
X213531961Y-55847225D01*
X213531962Y-55847222D01*
X213531966Y-55847219D01*
X213652287Y-55681610D01*
X213745220Y-55499219D01*
X213808477Y-55304534D01*
X213840500Y-55102352D01*
X213840500Y-54897648D01*
X213808477Y-54695466D01*
X213745220Y-54500781D01*
X213652287Y-54318390D01*
X213625255Y-54281184D01*
X213590295Y-54233065D01*
X213531966Y-54152781D01*
X213531964Y-54152779D01*
X213531961Y-54152775D01*
X213387225Y-54008039D01*
X213387220Y-54008035D01*
X213221615Y-53887716D01*
X213221612Y-53887714D01*
X213039217Y-53794779D01*
X212844534Y-53731523D01*
X212844531Y-53731522D01*
X212689220Y-53706923D01*
X212642352Y-53699500D01*
X212437648Y-53699500D01*
X212399599Y-53705526D01*
X212235468Y-53731522D01*
X212235465Y-53731523D01*
X212040782Y-53794779D01*
X211858387Y-53887714D01*
X211858384Y-53887716D01*
X211692779Y-54008035D01*
X211548035Y-54152779D01*
X211427716Y-54318384D01*
X211427714Y-54318387D01*
X211334779Y-54500782D01*
X211271523Y-54695465D01*
X211271522Y-54695468D01*
X211239500Y-54897648D01*
X208760500Y-54897648D01*
X208728477Y-54695466D01*
X208665220Y-54500781D01*
X208572287Y-54318390D01*
X208545255Y-54281184D01*
X208510295Y-54233065D01*
X208451966Y-54152781D01*
X208451964Y-54152779D01*
X208451961Y-54152775D01*
X208307225Y-54008039D01*
X208307220Y-54008035D01*
X208141615Y-53887716D01*
X208141612Y-53887714D01*
X207959217Y-53794779D01*
X207764534Y-53731523D01*
X207764531Y-53731522D01*
X207609220Y-53706923D01*
X207562352Y-53699500D01*
X207357648Y-53699500D01*
X207319599Y-53705526D01*
X207155468Y-53731522D01*
X207155465Y-53731523D01*
X206960782Y-53794779D01*
X206778387Y-53887714D01*
X206778384Y-53887716D01*
X206612779Y-54008035D01*
X206468035Y-54152779D01*
X206347716Y-54318384D01*
X206347714Y-54318387D01*
X206254779Y-54500782D01*
X206191523Y-54695465D01*
X206191522Y-54695468D01*
X206159500Y-54897648D01*
X200467167Y-54897648D01*
X200435144Y-54695466D01*
X200371887Y-54500781D01*
X200278954Y-54318390D01*
X200251922Y-54281184D01*
X200216962Y-54233065D01*
X200158633Y-54152781D01*
X200158631Y-54152779D01*
X200158628Y-54152775D01*
X200013892Y-54008039D01*
X200013887Y-54008035D01*
X199848282Y-53887716D01*
X199848279Y-53887714D01*
X199665884Y-53794779D01*
X199471201Y-53731523D01*
X199471198Y-53731522D01*
X199315887Y-53706923D01*
X199269019Y-53699500D01*
X199064315Y-53699500D01*
X199026266Y-53705526D01*
X198862135Y-53731522D01*
X198862132Y-53731523D01*
X198667449Y-53794779D01*
X198485054Y-53887714D01*
X198485051Y-53887716D01*
X198319446Y-54008035D01*
X198174702Y-54152779D01*
X198054383Y-54318384D01*
X198054381Y-54318387D01*
X197961446Y-54500782D01*
X197898190Y-54695465D01*
X197898189Y-54695468D01*
X197866167Y-54897648D01*
X195387167Y-54897648D01*
X195355144Y-54695466D01*
X195291887Y-54500781D01*
X195198954Y-54318390D01*
X195171922Y-54281184D01*
X195136962Y-54233065D01*
X195078633Y-54152781D01*
X195078631Y-54152779D01*
X195078628Y-54152775D01*
X194933892Y-54008039D01*
X194933887Y-54008035D01*
X194768282Y-53887716D01*
X194768279Y-53887714D01*
X194585884Y-53794779D01*
X194391201Y-53731523D01*
X194391198Y-53731522D01*
X194235887Y-53706923D01*
X194189019Y-53699500D01*
X193984315Y-53699500D01*
X193946266Y-53705526D01*
X193782135Y-53731522D01*
X193782132Y-53731523D01*
X193587449Y-53794779D01*
X193405054Y-53887714D01*
X193405051Y-53887716D01*
X193239446Y-54008035D01*
X193094702Y-54152779D01*
X192974383Y-54318384D01*
X192974381Y-54318387D01*
X192881446Y-54500782D01*
X192818190Y-54695465D01*
X192818189Y-54695468D01*
X192786167Y-54897648D01*
X188581042Y-54897648D01*
X188501437Y-54705465D01*
X188495663Y-54695465D01*
X188373595Y-54484037D01*
X188373585Y-54484022D01*
X188217951Y-54281196D01*
X188217940Y-54281184D01*
X188037148Y-54100392D01*
X188037136Y-54100381D01*
X187834310Y-53944747D01*
X187834295Y-53944737D01*
X187612868Y-53816896D01*
X187612869Y-53816896D01*
X187376647Y-53719050D01*
X187376641Y-53719048D01*
X187129684Y-53652876D01*
X187129677Y-53652875D01*
X187129673Y-53652874D01*
X186876176Y-53619500D01*
X186620490Y-53619500D01*
X186366993Y-53652874D01*
X186366989Y-53652874D01*
X186366981Y-53652876D01*
X186120024Y-53719048D01*
X186120018Y-53719050D01*
X185883796Y-53816896D01*
X185662370Y-53944737D01*
X185662355Y-53944747D01*
X185459529Y-54100381D01*
X185459517Y-54100392D01*
X185278725Y-54281184D01*
X185278714Y-54281196D01*
X185123080Y-54484022D01*
X185123070Y-54484037D01*
X184995229Y-54705463D01*
X184897383Y-54941685D01*
X184897381Y-54941691D01*
X184831209Y-55188648D01*
X184831207Y-55188656D01*
X184831207Y-55188660D01*
X184815952Y-55304531D01*
X184797833Y-55442160D01*
X184797833Y-55697839D01*
X184797832Y-55697839D01*
X175998833Y-55697839D01*
X175998833Y-55442157D01*
X175965459Y-55188660D01*
X175899283Y-54941687D01*
X175801437Y-54705465D01*
X175795663Y-54695465D01*
X175673595Y-54484037D01*
X175673585Y-54484022D01*
X175517951Y-54281196D01*
X175517940Y-54281184D01*
X175337148Y-54100392D01*
X175337136Y-54100381D01*
X175134310Y-53944747D01*
X175134295Y-53944737D01*
X174912868Y-53816896D01*
X174912869Y-53816896D01*
X174676647Y-53719050D01*
X174676641Y-53719048D01*
X174429684Y-53652876D01*
X174429677Y-53652875D01*
X174429673Y-53652874D01*
X174176176Y-53619500D01*
X173920490Y-53619500D01*
X173666993Y-53652874D01*
X173666989Y-53652874D01*
X173666981Y-53652876D01*
X173420024Y-53719048D01*
X173420018Y-53719050D01*
X173183796Y-53816896D01*
X172962370Y-53944737D01*
X172962355Y-53944747D01*
X172759529Y-54100381D01*
X172759517Y-54100392D01*
X172578725Y-54281184D01*
X172578714Y-54281196D01*
X172423080Y-54484022D01*
X172423070Y-54484037D01*
X172295229Y-54705463D01*
X172197383Y-54941685D01*
X172197381Y-54941691D01*
X172131209Y-55188648D01*
X172131207Y-55188656D01*
X172131207Y-55188660D01*
X172115952Y-55304531D01*
X172097833Y-55442160D01*
X172097833Y-55697839D01*
X172097832Y-55697839D01*
X169580500Y-55697839D01*
X169580500Y-55442157D01*
X169547126Y-55188660D01*
X169480950Y-54941687D01*
X169383104Y-54705465D01*
X169377330Y-54695465D01*
X169255262Y-54484037D01*
X169255252Y-54484022D01*
X169099618Y-54281196D01*
X169099607Y-54281184D01*
X168918815Y-54100392D01*
X168918803Y-54100381D01*
X168715977Y-53944747D01*
X168715962Y-53944737D01*
X168494535Y-53816896D01*
X168494536Y-53816896D01*
X168258314Y-53719050D01*
X168258308Y-53719048D01*
X168011351Y-53652876D01*
X168011344Y-53652875D01*
X168011340Y-53652874D01*
X167757843Y-53619500D01*
X167502157Y-53619500D01*
X167248660Y-53652874D01*
X167248656Y-53652874D01*
X167248648Y-53652876D01*
X167001691Y-53719048D01*
X167001685Y-53719050D01*
X166765463Y-53816896D01*
X166544037Y-53944737D01*
X166544022Y-53944747D01*
X166341196Y-54100381D01*
X166341184Y-54100392D01*
X166160392Y-54281184D01*
X166160381Y-54281196D01*
X166004747Y-54484022D01*
X166004737Y-54484037D01*
X165876896Y-54705463D01*
X165779050Y-54941685D01*
X165779048Y-54941691D01*
X165712876Y-55188648D01*
X165712874Y-55188656D01*
X165712874Y-55188660D01*
X165697619Y-55304531D01*
X165679500Y-55442160D01*
X165679500Y-55697839D01*
X165679499Y-55697839D01*
X156880500Y-55697839D01*
X156880500Y-55442157D01*
X156847126Y-55188660D01*
X156780950Y-54941687D01*
X156683104Y-54705465D01*
X156677330Y-54695465D01*
X156555262Y-54484037D01*
X156555252Y-54484022D01*
X156399618Y-54281196D01*
X156399607Y-54281184D01*
X156218815Y-54100392D01*
X156218803Y-54100381D01*
X156015977Y-53944747D01*
X156015962Y-53944737D01*
X155794535Y-53816896D01*
X155794536Y-53816896D01*
X155558314Y-53719050D01*
X155558308Y-53719048D01*
X155311351Y-53652876D01*
X155311344Y-53652875D01*
X155311340Y-53652874D01*
X155057843Y-53619500D01*
X154802157Y-53619500D01*
X154548660Y-53652874D01*
X154548656Y-53652874D01*
X154548648Y-53652876D01*
X154301691Y-53719048D01*
X154301685Y-53719050D01*
X154065463Y-53816896D01*
X153844037Y-53944737D01*
X153844022Y-53944747D01*
X153641196Y-54100381D01*
X153641184Y-54100392D01*
X153460392Y-54281184D01*
X153460381Y-54281196D01*
X153304747Y-54484022D01*
X153304737Y-54484037D01*
X153176896Y-54705463D01*
X153079050Y-54941685D01*
X153079048Y-54941691D01*
X153012876Y-55188648D01*
X153012874Y-55188656D01*
X153012874Y-55188660D01*
X152997619Y-55304531D01*
X152979500Y-55442160D01*
X152979500Y-55697839D01*
X152979499Y-55697839D01*
X150462167Y-55697839D01*
X150462167Y-55442157D01*
X150428793Y-55188660D01*
X150362617Y-54941687D01*
X150264771Y-54705465D01*
X150258997Y-54695465D01*
X150136929Y-54484037D01*
X150136919Y-54484022D01*
X149981285Y-54281196D01*
X149981274Y-54281184D01*
X149800482Y-54100392D01*
X149800470Y-54100381D01*
X149597644Y-53944747D01*
X149597629Y-53944737D01*
X149376202Y-53816896D01*
X149376203Y-53816896D01*
X149139981Y-53719050D01*
X149139975Y-53719048D01*
X148893018Y-53652876D01*
X148893011Y-53652875D01*
X148893007Y-53652874D01*
X148639510Y-53619500D01*
X148383824Y-53619500D01*
X148130327Y-53652874D01*
X148130323Y-53652874D01*
X148130315Y-53652876D01*
X147883358Y-53719048D01*
X147883352Y-53719050D01*
X147647130Y-53816896D01*
X147425704Y-53944737D01*
X147425689Y-53944747D01*
X147222863Y-54100381D01*
X147222851Y-54100392D01*
X147042059Y-54281184D01*
X147042048Y-54281196D01*
X146886414Y-54484022D01*
X146886404Y-54484037D01*
X146758563Y-54705463D01*
X146660717Y-54941685D01*
X146660715Y-54941691D01*
X146594543Y-55188648D01*
X146594541Y-55188656D01*
X146594541Y-55188660D01*
X146579286Y-55304531D01*
X146561167Y-55442160D01*
X146561167Y-55697839D01*
X146561166Y-55697839D01*
X137762167Y-55697839D01*
X137762167Y-55442157D01*
X137728793Y-55188660D01*
X137662617Y-54941687D01*
X137564771Y-54705465D01*
X137558997Y-54695465D01*
X137436929Y-54484037D01*
X137436919Y-54484022D01*
X137281285Y-54281196D01*
X137281274Y-54281184D01*
X137100482Y-54100392D01*
X137100470Y-54100381D01*
X136897644Y-53944747D01*
X136897629Y-53944737D01*
X136676202Y-53816896D01*
X136676203Y-53816896D01*
X136439981Y-53719050D01*
X136439975Y-53719048D01*
X136193018Y-53652876D01*
X136193011Y-53652875D01*
X136193007Y-53652874D01*
X135939510Y-53619500D01*
X135683824Y-53619500D01*
X135430327Y-53652874D01*
X135430323Y-53652874D01*
X135430315Y-53652876D01*
X135183358Y-53719048D01*
X135183352Y-53719050D01*
X134947130Y-53816896D01*
X134725704Y-53944737D01*
X134725689Y-53944747D01*
X134522863Y-54100381D01*
X134522851Y-54100392D01*
X134342059Y-54281184D01*
X134342048Y-54281196D01*
X134186414Y-54484022D01*
X134186404Y-54484037D01*
X134058563Y-54705463D01*
X133960717Y-54941685D01*
X133960715Y-54941691D01*
X133894543Y-55188648D01*
X133894541Y-55188656D01*
X133894541Y-55188660D01*
X133879286Y-55304531D01*
X133861167Y-55442160D01*
X133861167Y-55697839D01*
X133861166Y-55697839D01*
X131343833Y-55697839D01*
X131343833Y-55442157D01*
X131310459Y-55188660D01*
X131244283Y-54941687D01*
X131146437Y-54705465D01*
X131140663Y-54695465D01*
X131018595Y-54484037D01*
X131018585Y-54484022D01*
X130862951Y-54281196D01*
X130862940Y-54281184D01*
X130682148Y-54100392D01*
X130682136Y-54100381D01*
X130479310Y-53944747D01*
X130479295Y-53944737D01*
X130257868Y-53816896D01*
X130257869Y-53816896D01*
X130021647Y-53719050D01*
X130021641Y-53719048D01*
X129774684Y-53652876D01*
X129774677Y-53652875D01*
X129774673Y-53652874D01*
X129521176Y-53619500D01*
X129265490Y-53619500D01*
X129011993Y-53652874D01*
X129011989Y-53652874D01*
X129011981Y-53652876D01*
X128765024Y-53719048D01*
X128765018Y-53719050D01*
X128528796Y-53816896D01*
X128307370Y-53944737D01*
X128307355Y-53944747D01*
X128104529Y-54100381D01*
X128104517Y-54100392D01*
X127923725Y-54281184D01*
X127923714Y-54281196D01*
X127768080Y-54484022D01*
X127768070Y-54484037D01*
X127640229Y-54705463D01*
X127542383Y-54941685D01*
X127542381Y-54941691D01*
X127476209Y-55188648D01*
X127476207Y-55188656D01*
X127476207Y-55188660D01*
X127460952Y-55304531D01*
X127442833Y-55442160D01*
X127442833Y-55697839D01*
X127442832Y-55697839D01*
X118643833Y-55697839D01*
X118643833Y-55442157D01*
X118610459Y-55188660D01*
X118544283Y-54941687D01*
X118446437Y-54705465D01*
X118440663Y-54695465D01*
X118318595Y-54484037D01*
X118318585Y-54484022D01*
X118162951Y-54281196D01*
X118162940Y-54281184D01*
X117982148Y-54100392D01*
X117982136Y-54100381D01*
X117779310Y-53944747D01*
X117779295Y-53944737D01*
X117557868Y-53816896D01*
X117557869Y-53816896D01*
X117321647Y-53719050D01*
X117321641Y-53719048D01*
X117074684Y-53652876D01*
X117074677Y-53652875D01*
X117074673Y-53652874D01*
X116821176Y-53619500D01*
X116565490Y-53619500D01*
X116311993Y-53652874D01*
X116311989Y-53652874D01*
X116311981Y-53652876D01*
X116065024Y-53719048D01*
X116065018Y-53719050D01*
X115828796Y-53816896D01*
X115607370Y-53944737D01*
X115607355Y-53944747D01*
X115404529Y-54100381D01*
X115404517Y-54100392D01*
X115223725Y-54281184D01*
X115223714Y-54281196D01*
X115068080Y-54484022D01*
X115068070Y-54484037D01*
X114940229Y-54705463D01*
X114842383Y-54941685D01*
X114842381Y-54941691D01*
X114776209Y-55188648D01*
X114776207Y-55188656D01*
X114776207Y-55188660D01*
X114760952Y-55304531D01*
X114742833Y-55442160D01*
X114742833Y-55697839D01*
X114742832Y-55697839D01*
X106308503Y-55697839D01*
X106339414Y-55666928D01*
X106441232Y-55526788D01*
X106519873Y-55372445D01*
X106573402Y-55207701D01*
X106600500Y-55036611D01*
X106600500Y-54863389D01*
X106573402Y-54692299D01*
X106519873Y-54527555D01*
X106441232Y-54373212D01*
X106339414Y-54233072D01*
X106339410Y-54233068D01*
X106339408Y-54233065D01*
X106216934Y-54110591D01*
X106216935Y-54110591D01*
X106076782Y-54008764D01*
X105922446Y-53930127D01*
X105757701Y-53876598D01*
X105757698Y-53876597D01*
X105626271Y-53855781D01*
X105586611Y-53849500D01*
X105413389Y-53849500D01*
X105381192Y-53854599D01*
X105242301Y-53876597D01*
X105242298Y-53876598D01*
X105077553Y-53930127D01*
X104923217Y-54008764D01*
X104783065Y-54110591D01*
X104660591Y-54233065D01*
X104558764Y-54373217D01*
X104480127Y-54527553D01*
X104426598Y-54692298D01*
X104426597Y-54692301D01*
X104399500Y-54863389D01*
X96500500Y-54863389D01*
X96500500Y-50549500D01*
X96514852Y-50514852D01*
X96549500Y-50500500D01*
X220450500Y-50500500D01*
X220485148Y-50514852D01*
G37*
%TD.AperFunction*%
%TD*%
M02*
