M48
; DRILL file KiCad 10.0.5 date 2026-08-04T23:13:56
; FORMAT={-:-/ absolute / inch / decimal}
; #@! TF.CreationDate,2026-08-04T23:13:56+02:00
; #@! TF.GenerationSoftware,Kicad,Pcbnew,10.0.5
; #@! TF.FileFunction,Plated,1,2,PTH
FMAT,2
INCH
; #@! TA.AperFunction,Plated,PTH,ViaDrill
T1C0.0118
; #@! TA.AperFunction,Plated,PTH,ComponentDrill
T2C0.0315
; #@! TA.AperFunction,Plated,PTH,ComponentDrill
T3C0.0360
; #@! TA.AperFunction,Plated,PTH,ComponentDrill
T4C0.0551
; #@! TA.AperFunction,Plated,PTH,ComponentDrill
T5C0.0669
; #@! TA.AperFunction,Plated,PTH,ComponentDrill
T6C0.0748
; #@! TA.AperFunction,Plated,PTH,ComponentDrill
T7C0.1339
%
G90
G05
T1
X3.874Y-2.4016
X3.9291Y-2.1024
X5.5157Y-3.2677
X5.7126Y-3.3661
X5.9882Y-3.3661
X6.2638Y-3.3661
X6.5394Y-3.3661
X6.815Y-3.3661
X7.0906Y-3.3661
X7.3661Y-3.3661
T2
X7.7791Y-2.8693
X7.7791Y-2.9693
X7.7791Y-3.0693
X7.7791Y-3.1693
X7.7791Y-3.2693
X7.7791Y-3.3693
X7.7791Y-3.4693
X7.8791Y-2.8693
X7.8791Y-3.4693
X7.9791Y-2.8693
X7.9791Y-3.4693
X8.0791Y-2.8693
X8.0791Y-3.4693
X8.1791Y-2.8693
X8.1791Y-3.4693
X8.2791Y-2.8693
X8.2791Y-3.4693
X8.3791Y-2.8693
X8.3791Y-3.4693
X8.4791Y-2.8693
X8.4791Y-3.4693
X8.5791Y-2.8693
X8.5791Y-3.4693
T3
X4.7037Y-2.2878
X4.7438Y-2.3579
X4.784Y-2.2878
X4.8241Y-2.3579
X4.8643Y-2.2878
X4.9045Y-2.3579
X4.9446Y-2.2878
X4.9848Y-2.3579
X5.4564Y-2.2878
X5.4965Y-2.3579
X5.5367Y-2.2878
X5.5768Y-2.3579
X5.617Y-2.2878
X5.6572Y-2.3579
X5.6973Y-2.2878
X5.7375Y-2.3579
X6.2091Y-2.2878
X6.2492Y-2.3579
X6.2894Y-2.2878
X6.3295Y-2.3579
X6.3697Y-2.2878
X6.4098Y-2.3579
X6.45Y-2.2878
X6.4902Y-2.3579
X6.9617Y-2.2878
X7.0019Y-2.3579
X7.0421Y-2.2878
X7.0822Y-2.3579
X7.1224Y-2.2878
X7.1625Y-2.3579
X7.2027Y-2.2878
X7.2428Y-2.3579
T4
X7.6412Y-2.1654
X7.8412Y-2.1654
X8.1677Y-2.1654
X8.3677Y-2.1654
T5
X4.1535Y-2.1634
T6
X4.1535Y-2.3327
T7
X4.5942Y-2.1878
X5.0942Y-2.1878
X5.3469Y-2.1878
X5.8469Y-2.1878
X6.0996Y-2.1878
X6.5996Y-2.1878
X6.8523Y-2.1878
X7.3523Y-2.1878
M30
