%TF.GenerationSoftware,KiCad,Pcbnew,10.0.5*%
%TF.CreationDate,2026-08-04T23:13:56+02:00*%
%TF.ProjectId,promatrix-4000-io,70726f6d-6174-4726-9978-2d343030302d,rev?*%
%TF.SameCoordinates,Original*%
%TF.FileFunction,Legend,Top*%
%TF.FilePolarity,Positive*%
%FSLAX46Y46*%
G04 Gerber Fmt 4.6, Leading zero omitted, Abs format (unit mm)*
G04 Created by KiCad (PCBNEW 10.0.5) date 2026-08-04 23:13:56*
%MOMM*%
%LPD*%
G01*
G04 APERTURE LIST*
G04 Aperture macros list*
%AMRoundRect*
0 Rectangle with rounded corners*
0 $1 Rounding radius*
0 $2 $3 $4 $5 $6 $7 $8 $9 X,Y pos of 4 corners*
0 Add a 4 corners polygon primitive as box body*
4,1,4,$2,$3,$4,$5,$6,$7,$8,$9,$2,$3,0*
0 Add four circle primitives for the rounded corners*
1,1,$1+$1,$2,$3*
1,1,$1+$1,$4,$5*
1,1,$1+$1,$6,$7*
1,1,$1+$1,$8,$9*
0 Add four rect primitives between the rounded corners*
20,1,$1+$1,$2,$3,$4,$5,0*
20,1,$1+$1,$4,$5,$6,$7,0*
20,1,$1+$1,$6,$7,$8,$9,0*
20,1,$1+$1,$8,$9,$2,$3,0*%
G04 Aperture macros list end*
%ADD10C,0.300000*%
%ADD11C,0.158750*%
%ADD12C,0.150000*%
%ADD13C,0.060000*%
%ADD14C,0.250000*%
%ADD15C,0.100000*%
%ADD16C,1.524000*%
%ADD17C,3.400000*%
%ADD18C,2.200000*%
%ADD19RoundRect,0.178000X-0.170000X0.140000X-0.170000X-0.140000X0.170000X-0.140000X0.170000X0.140000X0*%
%ADD20R,1.500000X2.500000*%
%ADD21RoundRect,0.178000X0.170000X-0.140000X0.170000X0.140000X-0.170000X0.140000X-0.170000X-0.140000X0*%
%ADD22C,1.900000*%
%ADD23C,1.700000*%
%ADD24R,2.100000X2.000000*%
%ADD25R,2.500000X1.900000*%
%ADD26R,2.000000X2.000000*%
%ADD27O,0.630000X1.615000*%
%ADD28RoundRect,0.190500X0.444500X-1.079500X0.444500X1.079500X-0.444500X1.079500X-0.444500X-1.079500X0*%
%ADD29RoundRect,0.190500X1.079500X0.444500X-1.079500X0.444500X-1.079500X-0.444500X1.079500X-0.444500X0*%
%ADD30R,1.270000X2.540000*%
G04 APERTURE END LIST*
D10*
X97554510Y-93300828D02*
X97554510Y-91800828D01*
X97554510Y-91800828D02*
X98125939Y-91800828D01*
X98125939Y-91800828D02*
X98268796Y-91872257D01*
X98268796Y-91872257D02*
X98340225Y-91943685D01*
X98340225Y-91943685D02*
X98411653Y-92086542D01*
X98411653Y-92086542D02*
X98411653Y-92300828D01*
X98411653Y-92300828D02*
X98340225Y-92443685D01*
X98340225Y-92443685D02*
X98268796Y-92515114D01*
X98268796Y-92515114D02*
X98125939Y-92586542D01*
X98125939Y-92586542D02*
X97554510Y-92586542D01*
X99054510Y-93300828D02*
X99054510Y-92300828D01*
X99054510Y-92586542D02*
X99125939Y-92443685D01*
X99125939Y-92443685D02*
X99197368Y-92372257D01*
X99197368Y-92372257D02*
X99340225Y-92300828D01*
X99340225Y-92300828D02*
X99483082Y-92300828D01*
X100197367Y-93300828D02*
X100054510Y-93229400D01*
X100054510Y-93229400D02*
X99983081Y-93157971D01*
X99983081Y-93157971D02*
X99911653Y-93015114D01*
X99911653Y-93015114D02*
X99911653Y-92586542D01*
X99911653Y-92586542D02*
X99983081Y-92443685D01*
X99983081Y-92443685D02*
X100054510Y-92372257D01*
X100054510Y-92372257D02*
X100197367Y-92300828D01*
X100197367Y-92300828D02*
X100411653Y-92300828D01*
X100411653Y-92300828D02*
X100554510Y-92372257D01*
X100554510Y-92372257D02*
X100625939Y-92443685D01*
X100625939Y-92443685D02*
X100697367Y-92586542D01*
X100697367Y-92586542D02*
X100697367Y-93015114D01*
X100697367Y-93015114D02*
X100625939Y-93157971D01*
X100625939Y-93157971D02*
X100554510Y-93229400D01*
X100554510Y-93229400D02*
X100411653Y-93300828D01*
X100411653Y-93300828D02*
X100197367Y-93300828D01*
X101340224Y-93300828D02*
X101340224Y-92300828D01*
X101340224Y-92443685D02*
X101411653Y-92372257D01*
X101411653Y-92372257D02*
X101554510Y-92300828D01*
X101554510Y-92300828D02*
X101768796Y-92300828D01*
X101768796Y-92300828D02*
X101911653Y-92372257D01*
X101911653Y-92372257D02*
X101983082Y-92515114D01*
X101983082Y-92515114D02*
X101983082Y-93300828D01*
X101983082Y-92515114D02*
X102054510Y-92372257D01*
X102054510Y-92372257D02*
X102197367Y-92300828D01*
X102197367Y-92300828D02*
X102411653Y-92300828D01*
X102411653Y-92300828D02*
X102554510Y-92372257D01*
X102554510Y-92372257D02*
X102625939Y-92515114D01*
X102625939Y-92515114D02*
X102625939Y-93300828D01*
X103983082Y-93300828D02*
X103983082Y-92515114D01*
X103983082Y-92515114D02*
X103911653Y-92372257D01*
X103911653Y-92372257D02*
X103768796Y-92300828D01*
X103768796Y-92300828D02*
X103483082Y-92300828D01*
X103483082Y-92300828D02*
X103340224Y-92372257D01*
X103983082Y-93229400D02*
X103840224Y-93300828D01*
X103840224Y-93300828D02*
X103483082Y-93300828D01*
X103483082Y-93300828D02*
X103340224Y-93229400D01*
X103340224Y-93229400D02*
X103268796Y-93086542D01*
X103268796Y-93086542D02*
X103268796Y-92943685D01*
X103268796Y-92943685D02*
X103340224Y-92800828D01*
X103340224Y-92800828D02*
X103483082Y-92729400D01*
X103483082Y-92729400D02*
X103840224Y-92729400D01*
X103840224Y-92729400D02*
X103983082Y-92657971D01*
X104483082Y-92300828D02*
X105054510Y-92300828D01*
X104697367Y-91800828D02*
X104697367Y-93086542D01*
X104697367Y-93086542D02*
X104768796Y-93229400D01*
X104768796Y-93229400D02*
X104911653Y-93300828D01*
X104911653Y-93300828D02*
X105054510Y-93300828D01*
X105554510Y-93300828D02*
X105554510Y-92300828D01*
X105554510Y-92586542D02*
X105625939Y-92443685D01*
X105625939Y-92443685D02*
X105697368Y-92372257D01*
X105697368Y-92372257D02*
X105840225Y-92300828D01*
X105840225Y-92300828D02*
X105983082Y-92300828D01*
X106483081Y-93300828D02*
X106483081Y-92300828D01*
X106483081Y-91800828D02*
X106411653Y-91872257D01*
X106411653Y-91872257D02*
X106483081Y-91943685D01*
X106483081Y-91943685D02*
X106554510Y-91872257D01*
X106554510Y-91872257D02*
X106483081Y-91800828D01*
X106483081Y-91800828D02*
X106483081Y-91943685D01*
X107054510Y-93300828D02*
X107840225Y-92300828D01*
X107054510Y-92300828D02*
X107840225Y-93300828D01*
X108411653Y-92729400D02*
X109554511Y-92729400D01*
X110911654Y-92300828D02*
X110911654Y-93300828D01*
X110554511Y-91729400D02*
X110197368Y-92800828D01*
X110197368Y-92800828D02*
X111125939Y-92800828D01*
X111983082Y-91800828D02*
X112125939Y-91800828D01*
X112125939Y-91800828D02*
X112268796Y-91872257D01*
X112268796Y-91872257D02*
X112340225Y-91943685D01*
X112340225Y-91943685D02*
X112411653Y-92086542D01*
X112411653Y-92086542D02*
X112483082Y-92372257D01*
X112483082Y-92372257D02*
X112483082Y-92729400D01*
X112483082Y-92729400D02*
X112411653Y-93015114D01*
X112411653Y-93015114D02*
X112340225Y-93157971D01*
X112340225Y-93157971D02*
X112268796Y-93229400D01*
X112268796Y-93229400D02*
X112125939Y-93300828D01*
X112125939Y-93300828D02*
X111983082Y-93300828D01*
X111983082Y-93300828D02*
X111840225Y-93229400D01*
X111840225Y-93229400D02*
X111768796Y-93157971D01*
X111768796Y-93157971D02*
X111697367Y-93015114D01*
X111697367Y-93015114D02*
X111625939Y-92729400D01*
X111625939Y-92729400D02*
X111625939Y-92372257D01*
X111625939Y-92372257D02*
X111697367Y-92086542D01*
X111697367Y-92086542D02*
X111768796Y-91943685D01*
X111768796Y-91943685D02*
X111840225Y-91872257D01*
X111840225Y-91872257D02*
X111983082Y-91800828D01*
X113411653Y-91800828D02*
X113554510Y-91800828D01*
X113554510Y-91800828D02*
X113697367Y-91872257D01*
X113697367Y-91872257D02*
X113768796Y-91943685D01*
X113768796Y-91943685D02*
X113840224Y-92086542D01*
X113840224Y-92086542D02*
X113911653Y-92372257D01*
X113911653Y-92372257D02*
X113911653Y-92729400D01*
X113911653Y-92729400D02*
X113840224Y-93015114D01*
X113840224Y-93015114D02*
X113768796Y-93157971D01*
X113768796Y-93157971D02*
X113697367Y-93229400D01*
X113697367Y-93229400D02*
X113554510Y-93300828D01*
X113554510Y-93300828D02*
X113411653Y-93300828D01*
X113411653Y-93300828D02*
X113268796Y-93229400D01*
X113268796Y-93229400D02*
X113197367Y-93157971D01*
X113197367Y-93157971D02*
X113125938Y-93015114D01*
X113125938Y-93015114D02*
X113054510Y-92729400D01*
X113054510Y-92729400D02*
X113054510Y-92372257D01*
X113054510Y-92372257D02*
X113125938Y-92086542D01*
X113125938Y-92086542D02*
X113197367Y-91943685D01*
X113197367Y-91943685D02*
X113268796Y-91872257D01*
X113268796Y-91872257D02*
X113411653Y-91800828D01*
X114840224Y-91800828D02*
X114983081Y-91800828D01*
X114983081Y-91800828D02*
X115125938Y-91872257D01*
X115125938Y-91872257D02*
X115197367Y-91943685D01*
X115197367Y-91943685D02*
X115268795Y-92086542D01*
X115268795Y-92086542D02*
X115340224Y-92372257D01*
X115340224Y-92372257D02*
X115340224Y-92729400D01*
X115340224Y-92729400D02*
X115268795Y-93015114D01*
X115268795Y-93015114D02*
X115197367Y-93157971D01*
X115197367Y-93157971D02*
X115125938Y-93229400D01*
X115125938Y-93229400D02*
X114983081Y-93300828D01*
X114983081Y-93300828D02*
X114840224Y-93300828D01*
X114840224Y-93300828D02*
X114697367Y-93229400D01*
X114697367Y-93229400D02*
X114625938Y-93157971D01*
X114625938Y-93157971D02*
X114554509Y-93015114D01*
X114554509Y-93015114D02*
X114483081Y-92729400D01*
X114483081Y-92729400D02*
X114483081Y-92372257D01*
X114483081Y-92372257D02*
X114554509Y-92086542D01*
X114554509Y-92086542D02*
X114625938Y-91943685D01*
X114625938Y-91943685D02*
X114697367Y-91872257D01*
X114697367Y-91872257D02*
X114840224Y-91800828D01*
X115983080Y-92729400D02*
X117125938Y-92729400D01*
X117840223Y-93300828D02*
X117840223Y-91800828D01*
X118840224Y-91800828D02*
X119125938Y-91800828D01*
X119125938Y-91800828D02*
X119268795Y-91872257D01*
X119268795Y-91872257D02*
X119411652Y-92015114D01*
X119411652Y-92015114D02*
X119483081Y-92300828D01*
X119483081Y-92300828D02*
X119483081Y-92800828D01*
X119483081Y-92800828D02*
X119411652Y-93086542D01*
X119411652Y-93086542D02*
X119268795Y-93229400D01*
X119268795Y-93229400D02*
X119125938Y-93300828D01*
X119125938Y-93300828D02*
X118840224Y-93300828D01*
X118840224Y-93300828D02*
X118697367Y-93229400D01*
X118697367Y-93229400D02*
X118554509Y-93086542D01*
X118554509Y-93086542D02*
X118483081Y-92800828D01*
X118483081Y-92800828D02*
X118483081Y-92300828D01*
X118483081Y-92300828D02*
X118554509Y-92015114D01*
X118554509Y-92015114D02*
X118697367Y-91872257D01*
X118697367Y-91872257D02*
X118840224Y-91800828D01*
X121125938Y-92300828D02*
X121483081Y-93300828D01*
X121483081Y-93300828D02*
X121840224Y-92300828D01*
X123197367Y-93300828D02*
X122340224Y-93300828D01*
X122768795Y-93300828D02*
X122768795Y-91800828D01*
X122768795Y-91800828D02*
X122625938Y-92015114D01*
X122625938Y-92015114D02*
X122483081Y-92157971D01*
X122483081Y-92157971D02*
X122340224Y-92229400D01*
X123840223Y-93157971D02*
X123911652Y-93229400D01*
X123911652Y-93229400D02*
X123840223Y-93300828D01*
X123840223Y-93300828D02*
X123768795Y-93229400D01*
X123768795Y-93229400D02*
X123840223Y-93157971D01*
X123840223Y-93157971D02*
X123840223Y-93300828D01*
X124840224Y-91800828D02*
X124983081Y-91800828D01*
X124983081Y-91800828D02*
X125125938Y-91872257D01*
X125125938Y-91872257D02*
X125197367Y-91943685D01*
X125197367Y-91943685D02*
X125268795Y-92086542D01*
X125268795Y-92086542D02*
X125340224Y-92372257D01*
X125340224Y-92372257D02*
X125340224Y-92729400D01*
X125340224Y-92729400D02*
X125268795Y-93015114D01*
X125268795Y-93015114D02*
X125197367Y-93157971D01*
X125197367Y-93157971D02*
X125125938Y-93229400D01*
X125125938Y-93229400D02*
X124983081Y-93300828D01*
X124983081Y-93300828D02*
X124840224Y-93300828D01*
X124840224Y-93300828D02*
X124697367Y-93229400D01*
X124697367Y-93229400D02*
X124625938Y-93157971D01*
X124625938Y-93157971D02*
X124554509Y-93015114D01*
X124554509Y-93015114D02*
X124483081Y-92729400D01*
X124483081Y-92729400D02*
X124483081Y-92372257D01*
X124483081Y-92372257D02*
X124554509Y-92086542D01*
X124554509Y-92086542D02*
X124625938Y-91943685D01*
X124625938Y-91943685D02*
X124697367Y-91872257D01*
X124697367Y-91872257D02*
X124840224Y-91800828D01*
D11*
X158225951Y-67579271D02*
X158225951Y-66309271D01*
X158830713Y-66732604D02*
X158830713Y-67579271D01*
X158830713Y-66853556D02*
X158891190Y-66793080D01*
X158891190Y-66793080D02*
X159012142Y-66732604D01*
X159012142Y-66732604D02*
X159193571Y-66732604D01*
X159193571Y-66732604D02*
X159314523Y-66793080D01*
X159314523Y-66793080D02*
X159374999Y-66914033D01*
X159374999Y-66914033D02*
X159374999Y-67579271D01*
X161552142Y-66309271D02*
X160947380Y-66309271D01*
X160947380Y-66309271D02*
X160886904Y-66914033D01*
X160886904Y-66914033D02*
X160947380Y-66853556D01*
X160947380Y-66853556D02*
X161068333Y-66793080D01*
X161068333Y-66793080D02*
X161370714Y-66793080D01*
X161370714Y-66793080D02*
X161491666Y-66853556D01*
X161491666Y-66853556D02*
X161552142Y-66914033D01*
X161552142Y-66914033D02*
X161612619Y-67034985D01*
X161612619Y-67034985D02*
X161612619Y-67337366D01*
X161612619Y-67337366D02*
X161552142Y-67458318D01*
X161552142Y-67458318D02*
X161491666Y-67518795D01*
X161491666Y-67518795D02*
X161370714Y-67579271D01*
X161370714Y-67579271D02*
X161068333Y-67579271D01*
X161068333Y-67579271D02*
X160947380Y-67518795D01*
X160947380Y-67518795D02*
X160886904Y-67458318D01*
X162156904Y-67095461D02*
X163124524Y-67095461D01*
X163910714Y-66853556D02*
X163789762Y-66793080D01*
X163789762Y-66793080D02*
X163729285Y-66732604D01*
X163729285Y-66732604D02*
X163668809Y-66611652D01*
X163668809Y-66611652D02*
X163668809Y-66551175D01*
X163668809Y-66551175D02*
X163729285Y-66430223D01*
X163729285Y-66430223D02*
X163789762Y-66369747D01*
X163789762Y-66369747D02*
X163910714Y-66309271D01*
X163910714Y-66309271D02*
X164152619Y-66309271D01*
X164152619Y-66309271D02*
X164273571Y-66369747D01*
X164273571Y-66369747D02*
X164334047Y-66430223D01*
X164334047Y-66430223D02*
X164394524Y-66551175D01*
X164394524Y-66551175D02*
X164394524Y-66611652D01*
X164394524Y-66611652D02*
X164334047Y-66732604D01*
X164334047Y-66732604D02*
X164273571Y-66793080D01*
X164273571Y-66793080D02*
X164152619Y-66853556D01*
X164152619Y-66853556D02*
X163910714Y-66853556D01*
X163910714Y-66853556D02*
X163789762Y-66914033D01*
X163789762Y-66914033D02*
X163729285Y-66974509D01*
X163729285Y-66974509D02*
X163668809Y-67095461D01*
X163668809Y-67095461D02*
X163668809Y-67337366D01*
X163668809Y-67337366D02*
X163729285Y-67458318D01*
X163729285Y-67458318D02*
X163789762Y-67518795D01*
X163789762Y-67518795D02*
X163910714Y-67579271D01*
X163910714Y-67579271D02*
X164152619Y-67579271D01*
X164152619Y-67579271D02*
X164273571Y-67518795D01*
X164273571Y-67518795D02*
X164334047Y-67458318D01*
X164334047Y-67458318D02*
X164394524Y-67337366D01*
X164394524Y-67337366D02*
X164394524Y-67095461D01*
X164394524Y-67095461D02*
X164334047Y-66974509D01*
X164334047Y-66974509D02*
X164273571Y-66914033D01*
X164273571Y-66914033D02*
X164152619Y-66853556D01*
X207339048Y-60958318D02*
X207278572Y-61018795D01*
X207278572Y-61018795D02*
X207097143Y-61079271D01*
X207097143Y-61079271D02*
X206976191Y-61079271D01*
X206976191Y-61079271D02*
X206794762Y-61018795D01*
X206794762Y-61018795D02*
X206673810Y-60897842D01*
X206673810Y-60897842D02*
X206613333Y-60776890D01*
X206613333Y-60776890D02*
X206552857Y-60534985D01*
X206552857Y-60534985D02*
X206552857Y-60353556D01*
X206552857Y-60353556D02*
X206613333Y-60111652D01*
X206613333Y-60111652D02*
X206673810Y-59990699D01*
X206673810Y-59990699D02*
X206794762Y-59869747D01*
X206794762Y-59869747D02*
X206976191Y-59809271D01*
X206976191Y-59809271D02*
X207097143Y-59809271D01*
X207097143Y-59809271D02*
X207278572Y-59869747D01*
X207278572Y-59869747D02*
X207339048Y-59930223D01*
X208064762Y-61079271D02*
X207943810Y-61018795D01*
X207943810Y-61018795D02*
X207883333Y-60897842D01*
X207883333Y-60897842D02*
X207883333Y-59809271D01*
X208730000Y-61079271D02*
X208609048Y-61018795D01*
X208609048Y-61018795D02*
X208548571Y-60958318D01*
X208548571Y-60958318D02*
X208488095Y-60837366D01*
X208488095Y-60837366D02*
X208488095Y-60474509D01*
X208488095Y-60474509D02*
X208548571Y-60353556D01*
X208548571Y-60353556D02*
X208609048Y-60293080D01*
X208609048Y-60293080D02*
X208730000Y-60232604D01*
X208730000Y-60232604D02*
X208911429Y-60232604D01*
X208911429Y-60232604D02*
X209032381Y-60293080D01*
X209032381Y-60293080D02*
X209092857Y-60353556D01*
X209092857Y-60353556D02*
X209153333Y-60474509D01*
X209153333Y-60474509D02*
X209153333Y-60837366D01*
X209153333Y-60837366D02*
X209092857Y-60958318D01*
X209092857Y-60958318D02*
X209032381Y-61018795D01*
X209032381Y-61018795D02*
X208911429Y-61079271D01*
X208911429Y-61079271D02*
X208730000Y-61079271D01*
X210241905Y-61018795D02*
X210120953Y-61079271D01*
X210120953Y-61079271D02*
X209879048Y-61079271D01*
X209879048Y-61079271D02*
X209758096Y-61018795D01*
X209758096Y-61018795D02*
X209697619Y-60958318D01*
X209697619Y-60958318D02*
X209637143Y-60837366D01*
X209637143Y-60837366D02*
X209637143Y-60474509D01*
X209637143Y-60474509D02*
X209697619Y-60353556D01*
X209697619Y-60353556D02*
X209758096Y-60293080D01*
X209758096Y-60293080D02*
X209879048Y-60232604D01*
X209879048Y-60232604D02*
X210120953Y-60232604D01*
X210120953Y-60232604D02*
X210241905Y-60293080D01*
X210786190Y-61079271D02*
X210786190Y-59809271D01*
X210907143Y-60595461D02*
X211270000Y-61079271D01*
X211270000Y-60232604D02*
X210786190Y-60716414D01*
X212721428Y-59930223D02*
X212781904Y-59869747D01*
X212781904Y-59869747D02*
X212902857Y-59809271D01*
X212902857Y-59809271D02*
X213205238Y-59809271D01*
X213205238Y-59809271D02*
X213326190Y-59869747D01*
X213326190Y-59869747D02*
X213386666Y-59930223D01*
X213386666Y-59930223D02*
X213447143Y-60051175D01*
X213447143Y-60051175D02*
X213447143Y-60172128D01*
X213447143Y-60172128D02*
X213386666Y-60353556D01*
X213386666Y-60353556D02*
X212660952Y-61079271D01*
X212660952Y-61079271D02*
X213447143Y-61079271D01*
X119462142Y-66309271D02*
X119704047Y-66309271D01*
X119704047Y-66309271D02*
X119824999Y-66369747D01*
X119824999Y-66369747D02*
X119945952Y-66490699D01*
X119945952Y-66490699D02*
X120006428Y-66732604D01*
X120006428Y-66732604D02*
X120006428Y-67155937D01*
X120006428Y-67155937D02*
X119945952Y-67397842D01*
X119945952Y-67397842D02*
X119824999Y-67518795D01*
X119824999Y-67518795D02*
X119704047Y-67579271D01*
X119704047Y-67579271D02*
X119462142Y-67579271D01*
X119462142Y-67579271D02*
X119341190Y-67518795D01*
X119341190Y-67518795D02*
X119220237Y-67397842D01*
X119220237Y-67397842D02*
X119159761Y-67155937D01*
X119159761Y-67155937D02*
X119159761Y-66732604D01*
X119159761Y-66732604D02*
X119220237Y-66490699D01*
X119220237Y-66490699D02*
X119341190Y-66369747D01*
X119341190Y-66369747D02*
X119462142Y-66309271D01*
X121094999Y-66732604D02*
X121094999Y-67579271D01*
X120550713Y-66732604D02*
X120550713Y-67397842D01*
X120550713Y-67397842D02*
X120611190Y-67518795D01*
X120611190Y-67518795D02*
X120732142Y-67579271D01*
X120732142Y-67579271D02*
X120913571Y-67579271D01*
X120913571Y-67579271D02*
X121034523Y-67518795D01*
X121034523Y-67518795D02*
X121094999Y-67458318D01*
X121518333Y-66732604D02*
X122002142Y-66732604D01*
X121699761Y-66309271D02*
X121699761Y-67397842D01*
X121699761Y-67397842D02*
X121760238Y-67518795D01*
X121760238Y-67518795D02*
X121881190Y-67579271D01*
X121881190Y-67579271D02*
X122002142Y-67579271D01*
X123997856Y-66309271D02*
X123393094Y-66309271D01*
X123393094Y-66309271D02*
X123332618Y-66914033D01*
X123332618Y-66914033D02*
X123393094Y-66853556D01*
X123393094Y-66853556D02*
X123514047Y-66793080D01*
X123514047Y-66793080D02*
X123816428Y-66793080D01*
X123816428Y-66793080D02*
X123937380Y-66853556D01*
X123937380Y-66853556D02*
X123997856Y-66914033D01*
X123997856Y-66914033D02*
X124058333Y-67034985D01*
X124058333Y-67034985D02*
X124058333Y-67337366D01*
X124058333Y-67337366D02*
X123997856Y-67458318D01*
X123997856Y-67458318D02*
X123937380Y-67518795D01*
X123937380Y-67518795D02*
X123816428Y-67579271D01*
X123816428Y-67579271D02*
X123514047Y-67579271D01*
X123514047Y-67579271D02*
X123393094Y-67518795D01*
X123393094Y-67518795D02*
X123332618Y-67458318D01*
X124602618Y-67095461D02*
X125570238Y-67095461D01*
X126356428Y-66853556D02*
X126235476Y-66793080D01*
X126235476Y-66793080D02*
X126174999Y-66732604D01*
X126174999Y-66732604D02*
X126114523Y-66611652D01*
X126114523Y-66611652D02*
X126114523Y-66551175D01*
X126114523Y-66551175D02*
X126174999Y-66430223D01*
X126174999Y-66430223D02*
X126235476Y-66369747D01*
X126235476Y-66369747D02*
X126356428Y-66309271D01*
X126356428Y-66309271D02*
X126598333Y-66309271D01*
X126598333Y-66309271D02*
X126719285Y-66369747D01*
X126719285Y-66369747D02*
X126779761Y-66430223D01*
X126779761Y-66430223D02*
X126840238Y-66551175D01*
X126840238Y-66551175D02*
X126840238Y-66611652D01*
X126840238Y-66611652D02*
X126779761Y-66732604D01*
X126779761Y-66732604D02*
X126719285Y-66793080D01*
X126719285Y-66793080D02*
X126598333Y-66853556D01*
X126598333Y-66853556D02*
X126356428Y-66853556D01*
X126356428Y-66853556D02*
X126235476Y-66914033D01*
X126235476Y-66914033D02*
X126174999Y-66974509D01*
X126174999Y-66974509D02*
X126114523Y-67095461D01*
X126114523Y-67095461D02*
X126114523Y-67337366D01*
X126114523Y-67337366D02*
X126174999Y-67458318D01*
X126174999Y-67458318D02*
X126235476Y-67518795D01*
X126235476Y-67518795D02*
X126356428Y-67579271D01*
X126356428Y-67579271D02*
X126598333Y-67579271D01*
X126598333Y-67579271D02*
X126719285Y-67518795D01*
X126719285Y-67518795D02*
X126779761Y-67458318D01*
X126779761Y-67458318D02*
X126840238Y-67337366D01*
X126840238Y-67337366D02*
X126840238Y-67095461D01*
X126840238Y-67095461D02*
X126779761Y-66974509D01*
X126779761Y-66974509D02*
X126719285Y-66914033D01*
X126719285Y-66914033D02*
X126598333Y-66853556D01*
D12*
X160454819Y-78761904D02*
X161264342Y-78761904D01*
X161264342Y-78761904D02*
X161359580Y-78714285D01*
X161359580Y-78714285D02*
X161407200Y-78666666D01*
X161407200Y-78666666D02*
X161454819Y-78571428D01*
X161454819Y-78571428D02*
X161454819Y-78380952D01*
X161454819Y-78380952D02*
X161407200Y-78285714D01*
X161407200Y-78285714D02*
X161359580Y-78238095D01*
X161359580Y-78238095D02*
X161264342Y-78190476D01*
X161264342Y-78190476D02*
X160454819Y-78190476D01*
X160454819Y-77285714D02*
X160454819Y-77476190D01*
X160454819Y-77476190D02*
X160502438Y-77571428D01*
X160502438Y-77571428D02*
X160550057Y-77619047D01*
X160550057Y-77619047D02*
X160692914Y-77714285D01*
X160692914Y-77714285D02*
X160883390Y-77761904D01*
X160883390Y-77761904D02*
X161264342Y-77761904D01*
X161264342Y-77761904D02*
X161359580Y-77714285D01*
X161359580Y-77714285D02*
X161407200Y-77666666D01*
X161407200Y-77666666D02*
X161454819Y-77571428D01*
X161454819Y-77571428D02*
X161454819Y-77380952D01*
X161454819Y-77380952D02*
X161407200Y-77285714D01*
X161407200Y-77285714D02*
X161359580Y-77238095D01*
X161359580Y-77238095D02*
X161264342Y-77190476D01*
X161264342Y-77190476D02*
X161026247Y-77190476D01*
X161026247Y-77190476D02*
X160931009Y-77238095D01*
X160931009Y-77238095D02*
X160883390Y-77285714D01*
X160883390Y-77285714D02*
X160835771Y-77380952D01*
X160835771Y-77380952D02*
X160835771Y-77571428D01*
X160835771Y-77571428D02*
X160883390Y-77666666D01*
X160883390Y-77666666D02*
X160931009Y-77714285D01*
X160931009Y-77714285D02*
X161026247Y-77761904D01*
D11*
X177344284Y-67579271D02*
X177344284Y-66309271D01*
X177949046Y-66732604D02*
X177949046Y-67579271D01*
X177949046Y-66853556D02*
X178009523Y-66793080D01*
X178009523Y-66793080D02*
X178130475Y-66732604D01*
X178130475Y-66732604D02*
X178311904Y-66732604D01*
X178311904Y-66732604D02*
X178432856Y-66793080D01*
X178432856Y-66793080D02*
X178493332Y-66914033D01*
X178493332Y-66914033D02*
X178493332Y-67579271D01*
X180730952Y-67579271D02*
X180005237Y-67579271D01*
X180368094Y-67579271D02*
X180368094Y-66309271D01*
X180368094Y-66309271D02*
X180247142Y-66490699D01*
X180247142Y-66490699D02*
X180126190Y-66611652D01*
X180126190Y-66611652D02*
X180005237Y-66672128D01*
X181275237Y-67095461D02*
X182242857Y-67095461D01*
X183391904Y-66732604D02*
X183391904Y-67579271D01*
X183089523Y-66248795D02*
X182787142Y-67155937D01*
X182787142Y-67155937D02*
X183573333Y-67155937D01*
D12*
X167454819Y-78761904D02*
X168264342Y-78761904D01*
X168264342Y-78761904D02*
X168359580Y-78714285D01*
X168359580Y-78714285D02*
X168407200Y-78666666D01*
X168407200Y-78666666D02*
X168454819Y-78571428D01*
X168454819Y-78571428D02*
X168454819Y-78380952D01*
X168454819Y-78380952D02*
X168407200Y-78285714D01*
X168407200Y-78285714D02*
X168359580Y-78238095D01*
X168359580Y-78238095D02*
X168264342Y-78190476D01*
X168264342Y-78190476D02*
X167454819Y-78190476D01*
X167454819Y-77809523D02*
X167454819Y-77142857D01*
X167454819Y-77142857D02*
X168454819Y-77571428D01*
D11*
X103988095Y-66430223D02*
X104048571Y-66369747D01*
X104048571Y-66369747D02*
X104169524Y-66309271D01*
X104169524Y-66309271D02*
X104471905Y-66309271D01*
X104471905Y-66309271D02*
X104592857Y-66369747D01*
X104592857Y-66369747D02*
X104653333Y-66430223D01*
X104653333Y-66430223D02*
X104713810Y-66551175D01*
X104713810Y-66551175D02*
X104713810Y-66672128D01*
X104713810Y-66672128D02*
X104653333Y-66853556D01*
X104653333Y-66853556D02*
X103927619Y-67579271D01*
X103927619Y-67579271D02*
X104713810Y-67579271D01*
X105802381Y-66732604D02*
X105802381Y-67579271D01*
X105500000Y-66248795D02*
X105197619Y-67155937D01*
X105197619Y-67155937D02*
X105983810Y-67155937D01*
X106286191Y-66309271D02*
X106709524Y-67579271D01*
X106709524Y-67579271D02*
X107132858Y-66309271D01*
D12*
X133238095Y-77454819D02*
X133238095Y-78264342D01*
X133238095Y-78264342D02*
X133285714Y-78359580D01*
X133285714Y-78359580D02*
X133333333Y-78407200D01*
X133333333Y-78407200D02*
X133428571Y-78454819D01*
X133428571Y-78454819D02*
X133619047Y-78454819D01*
X133619047Y-78454819D02*
X133714285Y-78407200D01*
X133714285Y-78407200D02*
X133761904Y-78359580D01*
X133761904Y-78359580D02*
X133809523Y-78264342D01*
X133809523Y-78264342D02*
X133809523Y-77454819D01*
X134333333Y-78454819D02*
X134523809Y-78454819D01*
X134523809Y-78454819D02*
X134619047Y-78407200D01*
X134619047Y-78407200D02*
X134666666Y-78359580D01*
X134666666Y-78359580D02*
X134761904Y-78216723D01*
X134761904Y-78216723D02*
X134809523Y-78026247D01*
X134809523Y-78026247D02*
X134809523Y-77645295D01*
X134809523Y-77645295D02*
X134761904Y-77550057D01*
X134761904Y-77550057D02*
X134714285Y-77502438D01*
X134714285Y-77502438D02*
X134619047Y-77454819D01*
X134619047Y-77454819D02*
X134428571Y-77454819D01*
X134428571Y-77454819D02*
X134333333Y-77502438D01*
X134333333Y-77502438D02*
X134285714Y-77550057D01*
X134285714Y-77550057D02*
X134238095Y-77645295D01*
X134238095Y-77645295D02*
X134238095Y-77883390D01*
X134238095Y-77883390D02*
X134285714Y-77978628D01*
X134285714Y-77978628D02*
X134333333Y-78026247D01*
X134333333Y-78026247D02*
X134428571Y-78073866D01*
X134428571Y-78073866D02*
X134619047Y-78073866D01*
X134619047Y-78073866D02*
X134714285Y-78026247D01*
X134714285Y-78026247D02*
X134761904Y-77978628D01*
X134761904Y-77978628D02*
X134809523Y-77883390D01*
X153454819Y-78761904D02*
X154264342Y-78761904D01*
X154264342Y-78761904D02*
X154359580Y-78714285D01*
X154359580Y-78714285D02*
X154407200Y-78666666D01*
X154407200Y-78666666D02*
X154454819Y-78571428D01*
X154454819Y-78571428D02*
X154454819Y-78380952D01*
X154454819Y-78380952D02*
X154407200Y-78285714D01*
X154407200Y-78285714D02*
X154359580Y-78238095D01*
X154359580Y-78238095D02*
X154264342Y-78190476D01*
X154264342Y-78190476D02*
X153454819Y-78190476D01*
X153454819Y-77238095D02*
X153454819Y-77714285D01*
X153454819Y-77714285D02*
X153931009Y-77761904D01*
X153931009Y-77761904D02*
X153883390Y-77714285D01*
X153883390Y-77714285D02*
X153835771Y-77619047D01*
X153835771Y-77619047D02*
X153835771Y-77380952D01*
X153835771Y-77380952D02*
X153883390Y-77285714D01*
X153883390Y-77285714D02*
X153931009Y-77238095D01*
X153931009Y-77238095D02*
X154026247Y-77190476D01*
X154026247Y-77190476D02*
X154264342Y-77190476D01*
X154264342Y-77190476D02*
X154359580Y-77238095D01*
X154359580Y-77238095D02*
X154407200Y-77285714D01*
X154407200Y-77285714D02*
X154454819Y-77380952D01*
X154454819Y-77380952D02*
X154454819Y-77619047D01*
X154454819Y-77619047D02*
X154407200Y-77714285D01*
X154407200Y-77714285D02*
X154359580Y-77761904D01*
D11*
X138623809Y-66309271D02*
X138865714Y-66309271D01*
X138865714Y-66309271D02*
X138986666Y-66369747D01*
X138986666Y-66369747D02*
X139107619Y-66490699D01*
X139107619Y-66490699D02*
X139168095Y-66732604D01*
X139168095Y-66732604D02*
X139168095Y-67155937D01*
X139168095Y-67155937D02*
X139107619Y-67397842D01*
X139107619Y-67397842D02*
X138986666Y-67518795D01*
X138986666Y-67518795D02*
X138865714Y-67579271D01*
X138865714Y-67579271D02*
X138623809Y-67579271D01*
X138623809Y-67579271D02*
X138502857Y-67518795D01*
X138502857Y-67518795D02*
X138381904Y-67397842D01*
X138381904Y-67397842D02*
X138321428Y-67155937D01*
X138321428Y-67155937D02*
X138321428Y-66732604D01*
X138321428Y-66732604D02*
X138381904Y-66490699D01*
X138381904Y-66490699D02*
X138502857Y-66369747D01*
X138502857Y-66369747D02*
X138623809Y-66309271D01*
X140256666Y-66732604D02*
X140256666Y-67579271D01*
X139712380Y-66732604D02*
X139712380Y-67397842D01*
X139712380Y-67397842D02*
X139772857Y-67518795D01*
X139772857Y-67518795D02*
X139893809Y-67579271D01*
X139893809Y-67579271D02*
X140075238Y-67579271D01*
X140075238Y-67579271D02*
X140196190Y-67518795D01*
X140196190Y-67518795D02*
X140256666Y-67458318D01*
X140680000Y-66732604D02*
X141163809Y-66732604D01*
X140861428Y-66309271D02*
X140861428Y-67397842D01*
X140861428Y-67397842D02*
X140921905Y-67518795D01*
X140921905Y-67518795D02*
X141042857Y-67579271D01*
X141042857Y-67579271D02*
X141163809Y-67579271D01*
X143220000Y-67579271D02*
X142494285Y-67579271D01*
X142857142Y-67579271D02*
X142857142Y-66309271D01*
X142857142Y-66309271D02*
X142736190Y-66490699D01*
X142736190Y-66490699D02*
X142615238Y-66611652D01*
X142615238Y-66611652D02*
X142494285Y-66672128D01*
X143764285Y-67095461D02*
X144731905Y-67095461D01*
X145880952Y-66732604D02*
X145880952Y-67579271D01*
X145578571Y-66248795D02*
X145276190Y-67155937D01*
X145276190Y-67155937D02*
X146062381Y-67155937D01*
D12*
X203619047Y-70454819D02*
X203285714Y-69978628D01*
X203047619Y-70454819D02*
X203047619Y-69454819D01*
X203047619Y-69454819D02*
X203428571Y-69454819D01*
X203428571Y-69454819D02*
X203523809Y-69502438D01*
X203523809Y-69502438D02*
X203571428Y-69550057D01*
X203571428Y-69550057D02*
X203619047Y-69645295D01*
X203619047Y-69645295D02*
X203619047Y-69788152D01*
X203619047Y-69788152D02*
X203571428Y-69883390D01*
X203571428Y-69883390D02*
X203523809Y-69931009D01*
X203523809Y-69931009D02*
X203428571Y-69978628D01*
X203428571Y-69978628D02*
X203047619Y-69978628D01*
X204047619Y-70454819D02*
X204047619Y-69454819D01*
X204047619Y-69454819D02*
X204428571Y-69454819D01*
X204428571Y-69454819D02*
X204523809Y-69502438D01*
X204523809Y-69502438D02*
X204571428Y-69550057D01*
X204571428Y-69550057D02*
X204619047Y-69645295D01*
X204619047Y-69645295D02*
X204619047Y-69788152D01*
X204619047Y-69788152D02*
X204571428Y-69883390D01*
X204571428Y-69883390D02*
X204523809Y-69931009D01*
X204523809Y-69931009D02*
X204428571Y-69978628D01*
X204428571Y-69978628D02*
X204047619Y-69978628D01*
X205000000Y-69550057D02*
X205047619Y-69502438D01*
X205047619Y-69502438D02*
X205142857Y-69454819D01*
X205142857Y-69454819D02*
X205380952Y-69454819D01*
X205380952Y-69454819D02*
X205476190Y-69502438D01*
X205476190Y-69502438D02*
X205523809Y-69550057D01*
X205523809Y-69550057D02*
X205571428Y-69645295D01*
X205571428Y-69645295D02*
X205571428Y-69740533D01*
X205571428Y-69740533D02*
X205523809Y-69883390D01*
X205523809Y-69883390D02*
X204952381Y-70454819D01*
X204952381Y-70454819D02*
X205571428Y-70454819D01*
X206190476Y-69454819D02*
X206285714Y-69454819D01*
X206285714Y-69454819D02*
X206380952Y-69502438D01*
X206380952Y-69502438D02*
X206428571Y-69550057D01*
X206428571Y-69550057D02*
X206476190Y-69645295D01*
X206476190Y-69645295D02*
X206523809Y-69835771D01*
X206523809Y-69835771D02*
X206523809Y-70073866D01*
X206523809Y-70073866D02*
X206476190Y-70264342D01*
X206476190Y-70264342D02*
X206428571Y-70359580D01*
X206428571Y-70359580D02*
X206380952Y-70407200D01*
X206380952Y-70407200D02*
X206285714Y-70454819D01*
X206285714Y-70454819D02*
X206190476Y-70454819D01*
X206190476Y-70454819D02*
X206095238Y-70407200D01*
X206095238Y-70407200D02*
X206047619Y-70359580D01*
X206047619Y-70359580D02*
X206000000Y-70264342D01*
X206000000Y-70264342D02*
X205952381Y-70073866D01*
X205952381Y-70073866D02*
X205952381Y-69835771D01*
X205952381Y-69835771D02*
X206000000Y-69645295D01*
X206000000Y-69645295D02*
X206047619Y-69550057D01*
X206047619Y-69550057D02*
X206095238Y-69502438D01*
X206095238Y-69502438D02*
X206190476Y-69454819D01*
X207380952Y-69788152D02*
X207380952Y-70454819D01*
X207142857Y-69407200D02*
X206904762Y-70121485D01*
X206904762Y-70121485D02*
X207523809Y-70121485D01*
X208095238Y-69454819D02*
X208190476Y-69454819D01*
X208190476Y-69454819D02*
X208285714Y-69502438D01*
X208285714Y-69502438D02*
X208333333Y-69550057D01*
X208333333Y-69550057D02*
X208380952Y-69645295D01*
X208380952Y-69645295D02*
X208428571Y-69835771D01*
X208428571Y-69835771D02*
X208428571Y-70073866D01*
X208428571Y-70073866D02*
X208380952Y-70264342D01*
X208380952Y-70264342D02*
X208333333Y-70359580D01*
X208333333Y-70359580D02*
X208285714Y-70407200D01*
X208285714Y-70407200D02*
X208190476Y-70454819D01*
X208190476Y-70454819D02*
X208095238Y-70454819D01*
X208095238Y-70454819D02*
X208000000Y-70407200D01*
X208000000Y-70407200D02*
X207952381Y-70359580D01*
X207952381Y-70359580D02*
X207904762Y-70264342D01*
X207904762Y-70264342D02*
X207857143Y-70073866D01*
X207857143Y-70073866D02*
X207857143Y-69835771D01*
X207857143Y-69835771D02*
X207904762Y-69645295D01*
X207904762Y-69645295D02*
X207952381Y-69550057D01*
X207952381Y-69550057D02*
X208000000Y-69502438D01*
X208000000Y-69502438D02*
X208095238Y-69454819D01*
X208857143Y-70073866D02*
X209619048Y-70073866D01*
X210000000Y-69454819D02*
X210666666Y-69454819D01*
X210666666Y-69454819D02*
X210000000Y-70454819D01*
X210000000Y-70454819D02*
X210666666Y-70454819D01*
X211428571Y-70407200D02*
X211333333Y-70454819D01*
X211333333Y-70454819D02*
X211142857Y-70454819D01*
X211142857Y-70454819D02*
X211047619Y-70407200D01*
X211047619Y-70407200D02*
X211000000Y-70311961D01*
X211000000Y-70311961D02*
X211000000Y-69931009D01*
X211000000Y-69931009D02*
X211047619Y-69835771D01*
X211047619Y-69835771D02*
X211142857Y-69788152D01*
X211142857Y-69788152D02*
X211333333Y-69788152D01*
X211333333Y-69788152D02*
X211428571Y-69835771D01*
X211428571Y-69835771D02*
X211476190Y-69931009D01*
X211476190Y-69931009D02*
X211476190Y-70026247D01*
X211476190Y-70026247D02*
X211000000Y-70121485D01*
X211904762Y-70454819D02*
X211904762Y-69788152D01*
X211904762Y-69978628D02*
X211952381Y-69883390D01*
X211952381Y-69883390D02*
X212000000Y-69835771D01*
X212000000Y-69835771D02*
X212095238Y-69788152D01*
X212095238Y-69788152D02*
X212190476Y-69788152D01*
X212666667Y-70454819D02*
X212571429Y-70407200D01*
X212571429Y-70407200D02*
X212523810Y-70359580D01*
X212523810Y-70359580D02*
X212476191Y-70264342D01*
X212476191Y-70264342D02*
X212476191Y-69978628D01*
X212476191Y-69978628D02*
X212523810Y-69883390D01*
X212523810Y-69883390D02*
X212571429Y-69835771D01*
X212571429Y-69835771D02*
X212666667Y-69788152D01*
X212666667Y-69788152D02*
X212809524Y-69788152D01*
X212809524Y-69788152D02*
X212904762Y-69835771D01*
X212904762Y-69835771D02*
X212952381Y-69883390D01*
X212952381Y-69883390D02*
X213000000Y-69978628D01*
X213000000Y-69978628D02*
X213000000Y-70264342D01*
X213000000Y-70264342D02*
X212952381Y-70359580D01*
X212952381Y-70359580D02*
X212904762Y-70407200D01*
X212904762Y-70407200D02*
X212809524Y-70454819D01*
X212809524Y-70454819D02*
X212666667Y-70454819D01*
X188454819Y-78761904D02*
X189264342Y-78761904D01*
X189264342Y-78761904D02*
X189359580Y-78714285D01*
X189359580Y-78714285D02*
X189407200Y-78666666D01*
X189407200Y-78666666D02*
X189454819Y-78571428D01*
X189454819Y-78571428D02*
X189454819Y-78380952D01*
X189454819Y-78380952D02*
X189407200Y-78285714D01*
X189407200Y-78285714D02*
X189359580Y-78238095D01*
X189359580Y-78238095D02*
X189264342Y-78190476D01*
X189264342Y-78190476D02*
X188454819Y-78190476D01*
X188454819Y-77809523D02*
X188454819Y-77190476D01*
X188454819Y-77190476D02*
X188835771Y-77523809D01*
X188835771Y-77523809D02*
X188835771Y-77380952D01*
X188835771Y-77380952D02*
X188883390Y-77285714D01*
X188883390Y-77285714D02*
X188931009Y-77238095D01*
X188931009Y-77238095D02*
X189026247Y-77190476D01*
X189026247Y-77190476D02*
X189264342Y-77190476D01*
X189264342Y-77190476D02*
X189359580Y-77238095D01*
X189359580Y-77238095D02*
X189407200Y-77285714D01*
X189407200Y-77285714D02*
X189454819Y-77380952D01*
X189454819Y-77380952D02*
X189454819Y-77666666D01*
X189454819Y-77666666D02*
X189407200Y-77761904D01*
X189407200Y-77761904D02*
X189359580Y-77809523D01*
X174454819Y-78761904D02*
X175264342Y-78761904D01*
X175264342Y-78761904D02*
X175359580Y-78714285D01*
X175359580Y-78714285D02*
X175407200Y-78666666D01*
X175407200Y-78666666D02*
X175454819Y-78571428D01*
X175454819Y-78571428D02*
X175454819Y-78380952D01*
X175454819Y-78380952D02*
X175407200Y-78285714D01*
X175407200Y-78285714D02*
X175359580Y-78238095D01*
X175359580Y-78238095D02*
X175264342Y-78190476D01*
X175264342Y-78190476D02*
X174454819Y-78190476D01*
X175454819Y-77190476D02*
X175454819Y-77761904D01*
X175454819Y-77476190D02*
X174454819Y-77476190D01*
X174454819Y-77476190D02*
X174597676Y-77571428D01*
X174597676Y-77571428D02*
X174692914Y-77666666D01*
X174692914Y-77666666D02*
X174740533Y-77761904D01*
D11*
X193839048Y-60958318D02*
X193778572Y-61018795D01*
X193778572Y-61018795D02*
X193597143Y-61079271D01*
X193597143Y-61079271D02*
X193476191Y-61079271D01*
X193476191Y-61079271D02*
X193294762Y-61018795D01*
X193294762Y-61018795D02*
X193173810Y-60897842D01*
X193173810Y-60897842D02*
X193113333Y-60776890D01*
X193113333Y-60776890D02*
X193052857Y-60534985D01*
X193052857Y-60534985D02*
X193052857Y-60353556D01*
X193052857Y-60353556D02*
X193113333Y-60111652D01*
X193113333Y-60111652D02*
X193173810Y-59990699D01*
X193173810Y-59990699D02*
X193294762Y-59869747D01*
X193294762Y-59869747D02*
X193476191Y-59809271D01*
X193476191Y-59809271D02*
X193597143Y-59809271D01*
X193597143Y-59809271D02*
X193778572Y-59869747D01*
X193778572Y-59869747D02*
X193839048Y-59930223D01*
X194564762Y-61079271D02*
X194443810Y-61018795D01*
X194443810Y-61018795D02*
X194383333Y-60897842D01*
X194383333Y-60897842D02*
X194383333Y-59809271D01*
X195230000Y-61079271D02*
X195109048Y-61018795D01*
X195109048Y-61018795D02*
X195048571Y-60958318D01*
X195048571Y-60958318D02*
X194988095Y-60837366D01*
X194988095Y-60837366D02*
X194988095Y-60474509D01*
X194988095Y-60474509D02*
X195048571Y-60353556D01*
X195048571Y-60353556D02*
X195109048Y-60293080D01*
X195109048Y-60293080D02*
X195230000Y-60232604D01*
X195230000Y-60232604D02*
X195411429Y-60232604D01*
X195411429Y-60232604D02*
X195532381Y-60293080D01*
X195532381Y-60293080D02*
X195592857Y-60353556D01*
X195592857Y-60353556D02*
X195653333Y-60474509D01*
X195653333Y-60474509D02*
X195653333Y-60837366D01*
X195653333Y-60837366D02*
X195592857Y-60958318D01*
X195592857Y-60958318D02*
X195532381Y-61018795D01*
X195532381Y-61018795D02*
X195411429Y-61079271D01*
X195411429Y-61079271D02*
X195230000Y-61079271D01*
X196741905Y-61018795D02*
X196620953Y-61079271D01*
X196620953Y-61079271D02*
X196379048Y-61079271D01*
X196379048Y-61079271D02*
X196258096Y-61018795D01*
X196258096Y-61018795D02*
X196197619Y-60958318D01*
X196197619Y-60958318D02*
X196137143Y-60837366D01*
X196137143Y-60837366D02*
X196137143Y-60474509D01*
X196137143Y-60474509D02*
X196197619Y-60353556D01*
X196197619Y-60353556D02*
X196258096Y-60293080D01*
X196258096Y-60293080D02*
X196379048Y-60232604D01*
X196379048Y-60232604D02*
X196620953Y-60232604D01*
X196620953Y-60232604D02*
X196741905Y-60293080D01*
X197286190Y-61079271D02*
X197286190Y-59809271D01*
X197407143Y-60595461D02*
X197770000Y-61079271D01*
X197770000Y-60232604D02*
X197286190Y-60716414D01*
X199947143Y-61079271D02*
X199221428Y-61079271D01*
X199584285Y-61079271D02*
X199584285Y-59809271D01*
X199584285Y-59809271D02*
X199463333Y-59990699D01*
X199463333Y-59990699D02*
X199342381Y-60111652D01*
X199342381Y-60111652D02*
X199221428Y-60172128D01*
D12*
X146454819Y-78761904D02*
X147264342Y-78761904D01*
X147264342Y-78761904D02*
X147359580Y-78714285D01*
X147359580Y-78714285D02*
X147407200Y-78666666D01*
X147407200Y-78666666D02*
X147454819Y-78571428D01*
X147454819Y-78571428D02*
X147454819Y-78380952D01*
X147454819Y-78380952D02*
X147407200Y-78285714D01*
X147407200Y-78285714D02*
X147359580Y-78238095D01*
X147359580Y-78238095D02*
X147264342Y-78190476D01*
X147264342Y-78190476D02*
X146454819Y-78190476D01*
X146788152Y-77285714D02*
X147454819Y-77285714D01*
X146407200Y-77523809D02*
X147121485Y-77761904D01*
X147121485Y-77761904D02*
X147121485Y-77142857D01*
X181604819Y-78761904D02*
X182414342Y-78761904D01*
X182414342Y-78761904D02*
X182509580Y-78714285D01*
X182509580Y-78714285D02*
X182557200Y-78666666D01*
X182557200Y-78666666D02*
X182604819Y-78571428D01*
X182604819Y-78571428D02*
X182604819Y-78380952D01*
X182604819Y-78380952D02*
X182557200Y-78285714D01*
X182557200Y-78285714D02*
X182509580Y-78238095D01*
X182509580Y-78238095D02*
X182414342Y-78190476D01*
X182414342Y-78190476D02*
X181604819Y-78190476D01*
X181700057Y-77761904D02*
X181652438Y-77714285D01*
X181652438Y-77714285D02*
X181604819Y-77619047D01*
X181604819Y-77619047D02*
X181604819Y-77380952D01*
X181604819Y-77380952D02*
X181652438Y-77285714D01*
X181652438Y-77285714D02*
X181700057Y-77238095D01*
X181700057Y-77238095D02*
X181795295Y-77190476D01*
X181795295Y-77190476D02*
X181890533Y-77190476D01*
X181890533Y-77190476D02*
X182033390Y-77238095D01*
X182033390Y-77238095D02*
X182604819Y-77809523D01*
X182604819Y-77809523D02*
X182604819Y-77190476D01*
%TO.C,RJ2*%
D13*
X153310000Y-50380000D02*
G75*
G02*
X153250000Y-50380000I-30000J0D01*
G01*
X153250000Y-50380000D02*
G75*
G02*
X153310000Y-50380000I30000J0D01*
G01*
D14*
X169280000Y-65500000D02*
X153280000Y-65500000D01*
X169280000Y-56500000D02*
X169280000Y-65500000D01*
X169280000Y-50400000D02*
X169280000Y-54640000D01*
X153280000Y-65500000D02*
X153280000Y-56500000D01*
X153280000Y-54640000D02*
X153280000Y-50400000D01*
X153280000Y-50400000D02*
X169280000Y-50400000D01*
%TO.C,CN2*%
D13*
X215240000Y-50270000D02*
G75*
G02*
X215180000Y-50270000I-30000J0D01*
G01*
X215180000Y-50270000D02*
G75*
G02*
X215240000Y-50270000I30000J0D01*
G01*
D14*
X215080000Y-58800000D02*
X215080000Y-50430000D01*
X215080000Y-57920000D02*
X204920000Y-57920000D01*
X215080000Y-52430000D02*
X204920000Y-52430000D01*
X215080000Y-50400000D02*
X204920000Y-50400000D01*
X204920000Y-58800000D02*
X215080000Y-58800000D01*
X204920000Y-50400000D02*
X204920000Y-58800000D01*
%TO.C,RJ4*%
X115043333Y-50400000D02*
X131043333Y-50400000D01*
X115043333Y-54640000D02*
X115043333Y-50400000D01*
X115043333Y-65500000D02*
X115043333Y-56500000D01*
X131043333Y-50400000D02*
X131043333Y-54640000D01*
X131043333Y-56500000D02*
X131043333Y-65500000D01*
X131043333Y-65500000D02*
X115043333Y-65500000D01*
D13*
X115073333Y-50380000D02*
G75*
G02*
X115013333Y-50380000I-30000J0D01*
G01*
X115013333Y-50380000D02*
G75*
G02*
X115073333Y-50380000I30000J0D01*
G01*
%TO.C,U6*%
D14*
X158700000Y-81300000D02*
X158700000Y-74700000D01*
X158750000Y-74700000D02*
X158700000Y-74700000D01*
X158750000Y-81300000D02*
X158700000Y-81300000D01*
X161290000Y-74700000D02*
X160710000Y-74700000D01*
X161290000Y-81300000D02*
X160710000Y-81300000D01*
X163300000Y-74700000D02*
X163250000Y-74700000D01*
X163300000Y-74700000D02*
X163300000Y-81300000D01*
X163300000Y-81300000D02*
X163250000Y-81300000D01*
D10*
X162800000Y-75460000D02*
G75*
G02*
X162500000Y-75460000I-150000J0D01*
G01*
X162500000Y-75460000D02*
G75*
G02*
X162800000Y-75460000I150000J0D01*
G01*
D13*
X163320000Y-72900000D02*
G75*
G02*
X163260000Y-72900000I-30000J0D01*
G01*
X163260000Y-72900000D02*
G75*
G02*
X163320000Y-72900000I30000J0D01*
G01*
D10*
X163690000Y-73940000D02*
G75*
G02*
X163390000Y-73940000I-150000J0D01*
G01*
X163390000Y-73940000D02*
G75*
G02*
X163690000Y-73940000I150000J0D01*
G01*
%TO.C,RJ1*%
D14*
X172398333Y-50400000D02*
X188398333Y-50400000D01*
X172398333Y-54640000D02*
X172398333Y-50400000D01*
X172398333Y-65500000D02*
X172398333Y-56500000D01*
X188398333Y-50400000D02*
X188398333Y-54640000D01*
X188398333Y-56500000D02*
X188398333Y-65500000D01*
X188398333Y-65500000D02*
X172398333Y-65500000D01*
D13*
X172428333Y-50380000D02*
G75*
G02*
X172368333Y-50380000I-30000J0D01*
G01*
X172368333Y-50380000D02*
G75*
G02*
X172428333Y-50380000I30000J0D01*
G01*
%TO.C,U7*%
D14*
X165700000Y-81300000D02*
X165700000Y-74700000D01*
X165750000Y-74700000D02*
X165700000Y-74700000D01*
X165750000Y-81300000D02*
X165700000Y-81300000D01*
X168290000Y-74700000D02*
X167710000Y-74700000D01*
X168290000Y-81300000D02*
X167710000Y-81300000D01*
X170300000Y-74700000D02*
X170250000Y-74700000D01*
X170300000Y-74700000D02*
X170300000Y-81300000D01*
X170300000Y-81300000D02*
X170250000Y-81300000D01*
D10*
X169800000Y-75460000D02*
G75*
G02*
X169500000Y-75460000I-150000J0D01*
G01*
X169500000Y-75460000D02*
G75*
G02*
X169800000Y-75460000I150000J0D01*
G01*
D13*
X170320000Y-72900000D02*
G75*
G02*
X170260000Y-72900000I-30000J0D01*
G01*
X170260000Y-72900000D02*
G75*
G02*
X170320000Y-72900000I30000J0D01*
G01*
D10*
X170690000Y-73940000D02*
G75*
G02*
X170390000Y-73940000I-150000J0D01*
G01*
X170390000Y-73940000D02*
G75*
G02*
X170690000Y-73940000I150000J0D01*
G01*
%TO.C,DC1*%
D14*
X101000000Y-50150000D02*
X110100000Y-50150000D01*
X101000000Y-53770000D02*
X101000000Y-50150000D01*
X101000000Y-59820000D02*
X101000000Y-56130000D01*
X101000000Y-62870000D02*
X110100000Y-62870000D01*
X101000000Y-65050000D02*
X101000000Y-62280000D01*
X101000000Y-65050000D02*
X103590000Y-65050000D01*
X103590000Y-63920000D02*
X110100000Y-63920000D01*
X103590000Y-65050000D02*
X103590000Y-63920000D01*
X110100000Y-50150000D02*
X110100000Y-53720000D01*
X110100000Y-51880000D02*
X101000000Y-51880000D01*
X110100000Y-56180000D02*
X110100000Y-59720000D01*
X110100000Y-63920000D02*
X110100000Y-62180000D01*
%TO.C,U9*%
D12*
X128170000Y-74430000D02*
X139830000Y-74430000D01*
X128170000Y-81570000D02*
X128170000Y-74430000D01*
X139830000Y-74430000D02*
X139830000Y-81570000D01*
X139830000Y-81570000D02*
X128170000Y-81570000D01*
D10*
X128300000Y-82960000D02*
G75*
G02*
X128000000Y-82960000I-150000J0D01*
G01*
X128000000Y-82960000D02*
G75*
G02*
X128300000Y-82960000I150000J0D01*
G01*
D13*
X128280000Y-83150000D02*
G75*
G02*
X128220000Y-83150000I-30000J0D01*
G01*
X128220000Y-83150000D02*
G75*
G02*
X128280000Y-83150000I30000J0D01*
G01*
D10*
X129070000Y-80820000D02*
G75*
G02*
X128770000Y-80820000I-150000J0D01*
G01*
X128770000Y-80820000D02*
G75*
G02*
X129070000Y-80820000I150000J0D01*
G01*
%TO.C,U5*%
D14*
X151700000Y-81300000D02*
X151700000Y-74700000D01*
X151750000Y-74700000D02*
X151700000Y-74700000D01*
X151750000Y-81300000D02*
X151700000Y-81300000D01*
X154290000Y-74700000D02*
X153710000Y-74700000D01*
X154290000Y-81300000D02*
X153710000Y-81300000D01*
X156300000Y-74700000D02*
X156250000Y-74700000D01*
X156300000Y-74700000D02*
X156300000Y-81300000D01*
X156300000Y-81300000D02*
X156250000Y-81300000D01*
D10*
X155800000Y-75460000D02*
G75*
G02*
X155500000Y-75460000I-150000J0D01*
G01*
X155500000Y-75460000D02*
G75*
G02*
X155800000Y-75460000I150000J0D01*
G01*
D13*
X156320000Y-72900000D02*
G75*
G02*
X156260000Y-72900000I-30000J0D01*
G01*
X156260000Y-72900000D02*
G75*
G02*
X156320000Y-72900000I30000J0D01*
G01*
D10*
X156690000Y-73940000D02*
G75*
G02*
X156390000Y-73940000I-150000J0D01*
G01*
X156390000Y-73940000D02*
G75*
G02*
X156690000Y-73940000I150000J0D01*
G01*
%TO.C,RJ3*%
D14*
X134161667Y-50400000D02*
X150161667Y-50400000D01*
X134161667Y-54640000D02*
X134161667Y-50400000D01*
X134161667Y-65500000D02*
X134161667Y-56500000D01*
X150161667Y-50400000D02*
X150161667Y-54640000D01*
X150161667Y-56500000D02*
X150161667Y-65500000D01*
X150161667Y-65500000D02*
X134161667Y-65500000D01*
D13*
X134191667Y-50380000D02*
G75*
G02*
X134131667Y-50380000I-30000J0D01*
G01*
X134131667Y-50380000D02*
G75*
G02*
X134191667Y-50380000I30000J0D01*
G01*
%TO.C,U8*%
D15*
X196000000Y-71500000D02*
X219500000Y-71500000D01*
X196000000Y-89500000D02*
X196000000Y-71500000D01*
X219500000Y-71500000D02*
X219500000Y-89500000D01*
X219500000Y-89500000D02*
X196000000Y-89500000D01*
%TO.C,U3*%
D14*
X186700000Y-81300000D02*
X186700000Y-74700000D01*
X186750000Y-74700000D02*
X186700000Y-74700000D01*
X186750000Y-81300000D02*
X186700000Y-81300000D01*
X189290000Y-74700000D02*
X188710000Y-74700000D01*
X189290000Y-81300000D02*
X188710000Y-81300000D01*
X191300000Y-74700000D02*
X191250000Y-74700000D01*
X191300000Y-74700000D02*
X191300000Y-81300000D01*
X191300000Y-81300000D02*
X191250000Y-81300000D01*
D10*
X190800000Y-75460000D02*
G75*
G02*
X190500000Y-75460000I-150000J0D01*
G01*
X190500000Y-75460000D02*
G75*
G02*
X190800000Y-75460000I150000J0D01*
G01*
D13*
X191320000Y-72900000D02*
G75*
G02*
X191260000Y-72900000I-30000J0D01*
G01*
X191260000Y-72900000D02*
G75*
G02*
X191320000Y-72900000I30000J0D01*
G01*
D10*
X191690000Y-73940000D02*
G75*
G02*
X191390000Y-73940000I-150000J0D01*
G01*
X191390000Y-73940000D02*
G75*
G02*
X191690000Y-73940000I150000J0D01*
G01*
%TO.C,U1*%
D14*
X172700000Y-81300000D02*
X172700000Y-74700000D01*
X172750000Y-74700000D02*
X172700000Y-74700000D01*
X172750000Y-81300000D02*
X172700000Y-81300000D01*
X175290000Y-74700000D02*
X174710000Y-74700000D01*
X175290000Y-81300000D02*
X174710000Y-81300000D01*
X177300000Y-74700000D02*
X177250000Y-74700000D01*
X177300000Y-74700000D02*
X177300000Y-81300000D01*
X177300000Y-81300000D02*
X177250000Y-81300000D01*
D10*
X176800000Y-75460000D02*
G75*
G02*
X176500000Y-75460000I-150000J0D01*
G01*
X176500000Y-75460000D02*
G75*
G02*
X176800000Y-75460000I150000J0D01*
G01*
D13*
X177320000Y-72900000D02*
G75*
G02*
X177260000Y-72900000I-30000J0D01*
G01*
X177260000Y-72900000D02*
G75*
G02*
X177320000Y-72900000I30000J0D01*
G01*
D10*
X177690000Y-73940000D02*
G75*
G02*
X177390000Y-73940000I-150000J0D01*
G01*
X177390000Y-73940000D02*
G75*
G02*
X177690000Y-73940000I150000J0D01*
G01*
%TO.C,CN1*%
D14*
X191546667Y-50400000D02*
X191546667Y-58800000D01*
X191546667Y-58800000D02*
X201706667Y-58800000D01*
X201706667Y-50400000D02*
X191546667Y-50400000D01*
X201706667Y-52430000D02*
X191546667Y-52430000D01*
X201706667Y-57920000D02*
X191546667Y-57920000D01*
X201706667Y-58800000D02*
X201706667Y-50430000D01*
D13*
X201866667Y-50270000D02*
G75*
G02*
X201806667Y-50270000I-30000J0D01*
G01*
X201806667Y-50270000D02*
G75*
G02*
X201866667Y-50270000I30000J0D01*
G01*
%TO.C,U4*%
D14*
X144700000Y-81300000D02*
X144700000Y-74700000D01*
X144750000Y-74700000D02*
X144700000Y-74700000D01*
X144750000Y-81300000D02*
X144700000Y-81300000D01*
X147290000Y-74700000D02*
X146710000Y-74700000D01*
X147290000Y-81300000D02*
X146710000Y-81300000D01*
X149300000Y-74700000D02*
X149250000Y-74700000D01*
X149300000Y-74700000D02*
X149300000Y-81300000D01*
X149300000Y-81300000D02*
X149250000Y-81300000D01*
D10*
X148800000Y-75460000D02*
G75*
G02*
X148500000Y-75460000I-150000J0D01*
G01*
X148500000Y-75460000D02*
G75*
G02*
X148800000Y-75460000I150000J0D01*
G01*
D13*
X149320000Y-72900000D02*
G75*
G02*
X149260000Y-72900000I-30000J0D01*
G01*
X149260000Y-72900000D02*
G75*
G02*
X149320000Y-72900000I30000J0D01*
G01*
D10*
X149690000Y-73940000D02*
G75*
G02*
X149390000Y-73940000I-150000J0D01*
G01*
X149390000Y-73940000D02*
G75*
G02*
X149690000Y-73940000I150000J0D01*
G01*
%TO.C,U2*%
D14*
X179700000Y-81300000D02*
X179700000Y-74700000D01*
X179750000Y-74700000D02*
X179700000Y-74700000D01*
X179750000Y-81300000D02*
X179700000Y-81300000D01*
X182290000Y-74700000D02*
X181710000Y-74700000D01*
X182290000Y-81300000D02*
X181710000Y-81300000D01*
X184300000Y-74700000D02*
X184250000Y-74700000D01*
X184300000Y-74700000D02*
X184300000Y-81300000D01*
X184300000Y-81300000D02*
X184250000Y-81300000D01*
D10*
X183800000Y-75460000D02*
G75*
G02*
X183500000Y-75460000I-150000J0D01*
G01*
X183500000Y-75460000D02*
G75*
G02*
X183800000Y-75460000I150000J0D01*
G01*
D13*
X184320000Y-72900000D02*
G75*
G02*
X184260000Y-72900000I-30000J0D01*
G01*
X184260000Y-72900000D02*
G75*
G02*
X184320000Y-72900000I30000J0D01*
G01*
D10*
X184690000Y-73940000D02*
G75*
G02*
X184390000Y-73940000I-150000J0D01*
G01*
X184390000Y-73940000D02*
G75*
G02*
X184690000Y-73940000I150000J0D01*
G01*
%TD*%
%LPC*%
D16*
%TO.C,RJ2*%
X164850000Y-59890000D03*
X163830000Y-58110000D03*
X162810000Y-59890000D03*
X161790000Y-58110000D03*
X160770000Y-59890000D03*
X159750000Y-58110000D03*
X158730000Y-59890000D03*
X157710000Y-58110000D03*
D17*
X154930000Y-55570000D03*
X167630000Y-55570000D03*
%TD*%
D18*
%TO.C,CN2*%
X207460000Y-55000000D03*
X212540000Y-55000000D03*
%TD*%
D17*
%TO.C,RJ4*%
X129393333Y-55570000D03*
X116693333Y-55570000D03*
D16*
X119473333Y-58110000D03*
X120493333Y-59890000D03*
X121513333Y-58110000D03*
X122533333Y-59890000D03*
X123553333Y-58110000D03*
X124573333Y-59890000D03*
X125593333Y-58110000D03*
X126613333Y-59890000D03*
%TD*%
D19*
%TO.C,R13*%
X160000000Y-84500000D03*
X160000000Y-85500000D03*
%TD*%
D20*
%TO.C,U6*%
X162270000Y-73700000D03*
X159730000Y-73700000D03*
X159730000Y-82300000D03*
X162270000Y-82300000D03*
%TD*%
D21*
%TO.C,R2*%
X185500000Y-76000000D03*
X185500000Y-75000000D03*
%TD*%
D17*
%TO.C,RJ1*%
X186748333Y-55570000D03*
X174048333Y-55570000D03*
D16*
X176828333Y-58110000D03*
X177848333Y-59890000D03*
X178868333Y-58110000D03*
X179888333Y-59890000D03*
X180908333Y-58110000D03*
X181928333Y-59890000D03*
X182948333Y-58110000D03*
X183968333Y-59890000D03*
%TD*%
D20*
%TO.C,U7*%
X169270000Y-73700000D03*
X166730000Y-73700000D03*
X166730000Y-82300000D03*
X169270000Y-82300000D03*
%TD*%
D22*
%TO.C,DC1*%
X105500000Y-59250000D03*
D23*
X105500000Y-54950000D03*
D24*
X111000000Y-60950000D03*
X111000000Y-54950000D03*
D25*
X99800000Y-54950000D03*
D26*
X100050000Y-61050000D03*
%TD*%
D21*
%TO.C,R4*%
X150500000Y-76000000D03*
X150500000Y-75000000D03*
%TD*%
%TO.C,R5*%
X157500000Y-76000000D03*
X157500000Y-75000000D03*
%TD*%
%TO.C,R3*%
X192500000Y-76000000D03*
X192500000Y-75000000D03*
%TD*%
%TO.C,R6*%
X164500000Y-76000000D03*
X164500000Y-75000000D03*
%TD*%
D19*
%TO.C,R10*%
X188000000Y-84500000D03*
X188000000Y-85500000D03*
%TD*%
%TO.C,R12*%
X153000000Y-84500000D03*
X153000000Y-85500000D03*
%TD*%
D27*
%TO.C,U9*%
X128920000Y-82960000D03*
X130190000Y-82960000D03*
X131460000Y-82960000D03*
X132730000Y-82960000D03*
X134000000Y-82960000D03*
X135270000Y-82960000D03*
X136540000Y-82960000D03*
X137810000Y-82960000D03*
X139080000Y-82960000D03*
X139080000Y-73040000D03*
X137810000Y-73040000D03*
X136540000Y-73040000D03*
X135270000Y-73040000D03*
X134000000Y-73040000D03*
X132730000Y-73040000D03*
X131460000Y-73040000D03*
X130190000Y-73040000D03*
X128920000Y-73040000D03*
%TD*%
D21*
%TO.C,R1*%
X178500000Y-76000000D03*
X178500000Y-75000000D03*
%TD*%
D20*
%TO.C,U5*%
X155270000Y-73700000D03*
X152730000Y-73700000D03*
X152730000Y-82300000D03*
X155270000Y-82300000D03*
%TD*%
D21*
%TO.C,R7*%
X171500000Y-76000000D03*
X171500000Y-75000000D03*
%TD*%
D17*
%TO.C,RJ3*%
X148511667Y-55570000D03*
X135811667Y-55570000D03*
D16*
X138591667Y-58110000D03*
X139611667Y-59890000D03*
X140631667Y-58110000D03*
X141651667Y-59890000D03*
X142671667Y-58110000D03*
X143691667Y-59890000D03*
X144711667Y-58110000D03*
X145731667Y-59890000D03*
%TD*%
D28*
%TO.C,U8*%
X217910000Y-88120000D03*
X215370000Y-88120000D03*
X212830000Y-88120000D03*
X210290000Y-88120000D03*
X207750000Y-88120000D03*
X205210000Y-88120000D03*
X202670000Y-88120000D03*
X200130000Y-88120000D03*
X197590000Y-88120000D03*
D29*
X197590000Y-85580000D03*
X197590000Y-83040000D03*
X197590000Y-80500000D03*
X197590000Y-77960000D03*
X197590000Y-75420000D03*
D28*
X197590000Y-72880000D03*
X200130000Y-72880000D03*
X202670000Y-72880000D03*
X205210000Y-72880000D03*
X207750000Y-72880000D03*
X210290000Y-72880000D03*
X212830000Y-72880000D03*
X215370000Y-72880000D03*
D30*
X217910000Y-72880000D03*
%TD*%
D20*
%TO.C,U3*%
X190270000Y-73700000D03*
X187730000Y-73700000D03*
X187730000Y-82300000D03*
X190270000Y-82300000D03*
%TD*%
%TO.C,U1*%
X176270000Y-73700000D03*
X173730000Y-73700000D03*
X173730000Y-82300000D03*
X176270000Y-82300000D03*
%TD*%
D18*
%TO.C,CN1*%
X199166667Y-55000000D03*
X194086667Y-55000000D03*
%TD*%
D19*
%TO.C,R9*%
X181000000Y-84500000D03*
X181000000Y-85500000D03*
%TD*%
D20*
%TO.C,U4*%
X148270000Y-73700000D03*
X145730000Y-73700000D03*
X145730000Y-82300000D03*
X148270000Y-82300000D03*
%TD*%
D19*
%TO.C,R8*%
X174000000Y-84500000D03*
X174000000Y-85500000D03*
%TD*%
%TO.C,R11*%
X146000000Y-84500000D03*
X146000000Y-85500000D03*
%TD*%
%TO.C,R14*%
X167000000Y-84500000D03*
X167000000Y-85500000D03*
%TD*%
D20*
%TO.C,U2*%
X183270000Y-73700000D03*
X180730000Y-73700000D03*
X180730000Y-82300000D03*
X183270000Y-82300000D03*
%TD*%
%LPD*%
M02*
