%TF.GenerationSoftware,KiCad,Pcbnew,10.0.5*%
%TF.CreationDate,2026-08-04T23:13:56+02:00*%
%TF.ProjectId,promatrix-4000-io,70726f6d-6174-4726-9978-2d343030302d,rev?*%
%TF.SameCoordinates,Original*%
%TF.FileFunction,Copper,L1,Top*%
%TF.FilePolarity,Positive*%
%FSLAX46Y46*%
G04 Gerber Fmt 4.6, Leading zero omitted, Abs format (unit mm)*
G04 Created by KiCad (PCBNEW 10.0.5) date 2026-08-04 23:13:56*
%MOMM*%
%LPD*%
G01*
G04 APERTURE LIST*
G04 Aperture macros list*
%AMRoundRect*
0 Rectangle with rounded corners*
0 $1 Rounding radius*
0 $2 $3 $4 $5 $6 $7 $8 $9 X,Y pos of 4 corners*
0 Add a 4 corners polygon primitive as box body*
4,1,4,$2,$3,$4,$5,$6,$7,$8,$9,$2,$3,0*
0 Add four circle primitives for the rounded corners*
1,1,$1+$1,$2,$3*
1,1,$1+$1,$4,$5*
1,1,$1+$1,$6,$7*
1,1,$1+$1,$8,$9*
0 Add four rect primitives between the rounded corners*
20,1,$1+$1,$2,$3,$4,$5,0*
20,1,$1+$1,$4,$5,$6,$7,0*
20,1,$1+$1,$6,$7,$8,$9,0*
20,1,$1+$1,$8,$9,$2,$3,0*%
G04 Aperture macros list end*
%TA.AperFunction,ComponentPad*%
%ADD10C,1.524000*%
%TD*%
%TA.AperFunction,ComponentPad*%
%ADD11C,3.400000*%
%TD*%
%TA.AperFunction,ComponentPad*%
%ADD12C,2.200000*%
%TD*%
%TA.AperFunction,SMDPad,CuDef*%
%ADD13RoundRect,0.140000X-0.170000X0.140000X-0.170000X-0.140000X0.170000X-0.140000X0.170000X0.140000X0*%
%TD*%
%TA.AperFunction,SMDPad,CuDef*%
%ADD14R,1.500000X2.500000*%
%TD*%
%TA.AperFunction,SMDPad,CuDef*%
%ADD15RoundRect,0.140000X0.170000X-0.140000X0.170000X0.140000X-0.170000X0.140000X-0.170000X-0.140000X0*%
%TD*%
%TA.AperFunction,ComponentPad*%
%ADD16C,1.900000*%
%TD*%
%TA.AperFunction,ComponentPad*%
%ADD17C,1.700000*%
%TD*%
%TA.AperFunction,SMDPad,CuDef*%
%ADD18R,2.100000X2.000000*%
%TD*%
%TA.AperFunction,SMDPad,CuDef*%
%ADD19R,2.500000X1.900000*%
%TD*%
%TA.AperFunction,SMDPad,CuDef*%
%ADD20R,2.000000X2.000000*%
%TD*%
%TA.AperFunction,SMDPad,CuDef*%
%ADD21O,0.630000X1.615000*%
%TD*%
%TA.AperFunction,ComponentPad*%
%ADD22RoundRect,0.190500X0.444500X-1.079500X0.444500X1.079500X-0.444500X1.079500X-0.444500X-1.079500X0*%
%TD*%
%TA.AperFunction,ComponentPad*%
%ADD23RoundRect,0.190500X1.079500X0.444500X-1.079500X0.444500X-1.079500X-0.444500X1.079500X-0.444500X0*%
%TD*%
%TA.AperFunction,ComponentPad*%
%ADD24R,1.270000X2.540000*%
%TD*%
%TA.AperFunction,ViaPad*%
%ADD25C,0.600000*%
%TD*%
%TA.AperFunction,Conductor*%
%ADD26C,0.500000*%
%TD*%
%TA.AperFunction,Conductor*%
%ADD27C,0.200000*%
%TD*%
G04 APERTURE END LIST*
D10*
%TO.P,RJ2,8,8_8*%
%TO.N,Net-(U7-CAT)*%
X164850000Y-59890000D03*
%TO.P,RJ2,7,7_7*%
%TO.N,GND*%
X163830000Y-58110000D03*
%TO.P,RJ2,6,6_6*%
%TO.N,Net-(U6-CAT)*%
X162810000Y-59890000D03*
%TO.P,RJ2,5,5_5*%
%TO.N,GND*%
X161790000Y-58110000D03*
%TO.P,RJ2,4,4_4*%
%TO.N,Net-(U5-CAT)*%
X160770000Y-59890000D03*
%TO.P,RJ2,3,3_3*%
%TO.N,GND*%
X159750000Y-58110000D03*
%TO.P,RJ2,2,2_2*%
%TO.N,Net-(U4-CAT)*%
X158730000Y-59890000D03*
%TO.P,RJ2,1,1_1*%
%TO.N,GND*%
X157710000Y-58110000D03*
D11*
%TO.P,RJ2,*%
%TO.N,*%
X154930000Y-55570000D03*
X167630000Y-55570000D03*
%TD*%
D12*
%TO.P,CN2,2,2_2*%
%TO.N,/Clock-*%
X207460000Y-55000000D03*
%TO.P,CN2,1,1_1*%
%TO.N,/Clock+*%
X212540000Y-55000000D03*
%TD*%
D11*
%TO.P,RJ4,*%
%TO.N,*%
X129393333Y-55570000D03*
X116693333Y-55570000D03*
D10*
%TO.P,RJ4,1,1_1*%
%TO.N,+24V*%
X119473333Y-58110000D03*
%TO.P,RJ4,2,2_2*%
%TO.N,Net-(RJ4-Pad2)*%
X120493333Y-59890000D03*
%TO.P,RJ4,3,3_3*%
%TO.N,+24V*%
X121513333Y-58110000D03*
%TO.P,RJ4,4,4_4*%
%TO.N,Net-(RJ4-Pad4)*%
X122533333Y-59890000D03*
%TO.P,RJ4,5,5_5*%
%TO.N,+24V*%
X123553333Y-58110000D03*
%TO.P,RJ4,6,6_6*%
%TO.N,Net-(RJ4-Pad6)*%
X124573333Y-59890000D03*
%TO.P,RJ4,7,7_7*%
%TO.N,+24V*%
X125593333Y-58110000D03*
%TO.P,RJ4,8,8_8*%
%TO.N,Net-(RJ4-Pad8)*%
X126613333Y-59890000D03*
%TD*%
D13*
%TO.P,R13,1*%
%TO.N,/In 6*%
X160000000Y-84500000D03*
%TO.P,R13,2*%
%TO.N,GND*%
X160000000Y-85500000D03*
%TD*%
D14*
%TO.P,U6,1,AN_1*%
%TO.N,Net-(U6-AN)*%
X162270000Y-73700000D03*
%TO.P,U6,2,CAT_2*%
%TO.N,Net-(U6-CAT)*%
X159730000Y-73700000D03*
%TO.P,U6,3,EM_3*%
%TO.N,/In 6*%
X159730000Y-82300000D03*
%TO.P,U6,4,COL_4*%
%TO.N,+3.3V*%
X162270000Y-82300000D03*
%TD*%
D15*
%TO.P,R2,1*%
%TO.N,+24V*%
X185500000Y-76000000D03*
%TO.P,R2,2*%
%TO.N,Net-(U2-AN)*%
X185500000Y-75000000D03*
%TD*%
D11*
%TO.P,RJ1,*%
%TO.N,*%
X186748333Y-55570000D03*
X174048333Y-55570000D03*
D10*
%TO.P,RJ1,1,1_1*%
%TO.N,/Clock+*%
X176828333Y-58110000D03*
%TO.P,RJ1,2,2_2*%
%TO.N,/Clock-*%
X177848333Y-59890000D03*
%TO.P,RJ1,3,3_3*%
%TO.N,GND*%
X178868333Y-58110000D03*
%TO.P,RJ1,4,4_4*%
%TO.N,Net-(U1-CAT)*%
X179888333Y-59890000D03*
%TO.P,RJ1,5,5_5*%
%TO.N,GND*%
X180908333Y-58110000D03*
%TO.P,RJ1,6,6_6*%
%TO.N,Net-(U2-CAT)*%
X181928333Y-59890000D03*
%TO.P,RJ1,7,7_7*%
%TO.N,GND*%
X182948333Y-58110000D03*
%TO.P,RJ1,8,8_8*%
%TO.N,Net-(U3-CAT)*%
X183968333Y-59890000D03*
%TD*%
D14*
%TO.P,U7,1,AN_1*%
%TO.N,Net-(U7-AN)*%
X169270000Y-73700000D03*
%TO.P,U7,2,CAT_2*%
%TO.N,Net-(U7-CAT)*%
X166730000Y-73700000D03*
%TO.P,U7,3,EM_3*%
%TO.N,/In 7*%
X166730000Y-82300000D03*
%TO.P,U7,4,COL_4*%
%TO.N,+3.3V*%
X169270000Y-82300000D03*
%TD*%
D16*
%TO.P,DC1,*%
%TO.N,*%
X105500000Y-59250000D03*
D17*
X105500000Y-54950000D03*
D18*
%TO.P,DC1,1,1_1*%
%TO.N,+24V*%
X111000000Y-60950000D03*
X111000000Y-54950000D03*
D19*
%TO.P,DC1,2,2_2*%
%TO.N,GND*%
X99800000Y-54950000D03*
D20*
%TO.P,DC1,3,3_3*%
X100050000Y-61050000D03*
%TD*%
D15*
%TO.P,R4,1*%
%TO.N,+24V*%
X150500000Y-76000000D03*
%TO.P,R4,2*%
%TO.N,Net-(U4-AN)*%
X150500000Y-75000000D03*
%TD*%
%TO.P,R5,1*%
%TO.N,+24V*%
X157500000Y-76000000D03*
%TO.P,R5,2*%
%TO.N,Net-(U5-AN)*%
X157500000Y-75000000D03*
%TD*%
%TO.P,R3,1*%
%TO.N,+24V*%
X192500000Y-76000000D03*
%TO.P,R3,2*%
%TO.N,Net-(U3-AN)*%
X192500000Y-75000000D03*
%TD*%
%TO.P,R6,1*%
%TO.N,+24V*%
X164500000Y-76000000D03*
%TO.P,R6,2*%
%TO.N,Net-(U6-AN)*%
X164500000Y-75000000D03*
%TD*%
D13*
%TO.P,R10,1*%
%TO.N,/In 3*%
X188000000Y-84500000D03*
%TO.P,R10,2*%
%TO.N,GND*%
X188000000Y-85500000D03*
%TD*%
%TO.P,R12,1*%
%TO.N,/In 5*%
X153000000Y-84500000D03*
%TO.P,R12,2*%
%TO.N,GND*%
X153000000Y-85500000D03*
%TD*%
D21*
%TO.P,U9,1,Input_1*%
%TO.N,/Out 1*%
X128920000Y-82960000D03*
%TO.P,U9,2,Input_2*%
%TO.N,/Out 2*%
X130190000Y-82960000D03*
%TO.P,U9,3,Input_3*%
%TO.N,/Out 3*%
X131460000Y-82960000D03*
%TO.P,U9,4,Input_4*%
%TO.N,/Out 4*%
X132730000Y-82960000D03*
%TO.P,U9,5,Input_5*%
%TO.N,/Out 5*%
X134000000Y-82960000D03*
%TO.P,U9,6,Input_6*%
%TO.N,/Out 6*%
X135270000Y-82960000D03*
%TO.P,U9,7,Input_7*%
%TO.N,/Out 7*%
X136540000Y-82960000D03*
%TO.P,U9,8,Input_8*%
%TO.N,/Out 8*%
X137810000Y-82960000D03*
%TO.P,U9,9,GND_9*%
%TO.N,GND*%
X139080000Y-82960000D03*
%TO.P,U9,10,COM_10*%
%TO.N,+24V*%
X139080000Y-73040000D03*
%TO.P,U9,11,Output_11*%
%TO.N,Net-(RJ3-Pad8)*%
X137810000Y-73040000D03*
%TO.P,U9,12,Output_12*%
%TO.N,Net-(RJ3-Pad6)*%
X136540000Y-73040000D03*
%TO.P,U9,13,Output_13*%
%TO.N,Net-(RJ3-Pad4)*%
X135270000Y-73040000D03*
%TO.P,U9,14,Output_14*%
%TO.N,Net-(RJ3-Pad2)*%
X134000000Y-73040000D03*
%TO.P,U9,15,Output_15*%
%TO.N,Net-(RJ4-Pad8)*%
X132730000Y-73040000D03*
%TO.P,U9,16,Output_16*%
%TO.N,Net-(RJ4-Pad6)*%
X131460000Y-73040000D03*
%TO.P,U9,17,Output_17*%
%TO.N,Net-(RJ4-Pad4)*%
X130190000Y-73040000D03*
%TO.P,U9,18,Output_18*%
%TO.N,Net-(RJ4-Pad2)*%
X128920000Y-73040000D03*
%TD*%
D15*
%TO.P,R1,1*%
%TO.N,+24V*%
X178500000Y-76000000D03*
%TO.P,R1,2*%
%TO.N,Net-(U1-AN)*%
X178500000Y-75000000D03*
%TD*%
D14*
%TO.P,U5,1,AN_1*%
%TO.N,Net-(U5-AN)*%
X155270000Y-73700000D03*
%TO.P,U5,2,CAT_2*%
%TO.N,Net-(U5-CAT)*%
X152730000Y-73700000D03*
%TO.P,U5,3,EM_3*%
%TO.N,/In 5*%
X152730000Y-82300000D03*
%TO.P,U5,4,COL_4*%
%TO.N,+3.3V*%
X155270000Y-82300000D03*
%TD*%
D15*
%TO.P,R7,1*%
%TO.N,+24V*%
X171500000Y-76000000D03*
%TO.P,R7,2*%
%TO.N,Net-(U7-AN)*%
X171500000Y-75000000D03*
%TD*%
D11*
%TO.P,RJ3,*%
%TO.N,*%
X148511667Y-55570000D03*
X135811667Y-55570000D03*
D10*
%TO.P,RJ3,1,1_1*%
%TO.N,+24V*%
X138591667Y-58110000D03*
%TO.P,RJ3,2,2_2*%
%TO.N,Net-(RJ3-Pad2)*%
X139611667Y-59890000D03*
%TO.P,RJ3,3,3_3*%
%TO.N,+24V*%
X140631667Y-58110000D03*
%TO.P,RJ3,4,4_4*%
%TO.N,Net-(RJ3-Pad4)*%
X141651667Y-59890000D03*
%TO.P,RJ3,5,5_5*%
%TO.N,+24V*%
X142671667Y-58110000D03*
%TO.P,RJ3,6,6_6*%
%TO.N,Net-(RJ3-Pad6)*%
X143691667Y-59890000D03*
%TO.P,RJ3,7,7_7*%
%TO.N,+24V*%
X144711667Y-58110000D03*
%TO.P,RJ3,8,8_8*%
%TO.N,Net-(RJ3-Pad8)*%
X145731667Y-59890000D03*
%TD*%
D22*
%TO.P,U8,1,GPIO0_1*%
%TO.N,/Out 1*%
X217910000Y-88120000D03*
%TO.P,U8,2,GPIO1_2*%
%TO.N,/Out 2*%
X215370000Y-88120000D03*
%TO.P,U8,3,GPIO2_3*%
%TO.N,/Out 3*%
X212830000Y-88120000D03*
%TO.P,U8,4,GPIO3_4*%
%TO.N,/Out 4*%
X210290000Y-88120000D03*
%TO.P,U8,5,GPIO4_5*%
%TO.N,/Out 5*%
X207750000Y-88120000D03*
%TO.P,U8,6,GPIO5_6*%
%TO.N,/Out 6*%
X205210000Y-88120000D03*
%TO.P,U8,7,GPIO6_7*%
%TO.N,/Out 7*%
X202670000Y-88120000D03*
%TO.P,U8,8,GPIO7_8*%
%TO.N,/Out 8*%
X200130000Y-88120000D03*
%TO.P,U8,9,GPIO8_9*%
%TO.N,/In 3*%
X197590000Y-88120000D03*
D23*
%TO.P,U8,10,GPIO9_10*%
%TO.N,/In 2*%
X197590000Y-85580000D03*
%TO.P,U8,11,GPIO10_11*%
%TO.N,/In 1*%
X197590000Y-83040000D03*
%TO.P,U8,12,GPIO11_12*%
%TO.N,/In 7*%
X197590000Y-80500000D03*
%TO.P,U8,13,GPIO12_13*%
%TO.N,/In 6*%
X197590000Y-77960000D03*
%TO.P,U8,14,GPIO13_14*%
%TO.N,/In 5*%
X197590000Y-75420000D03*
D22*
%TO.P,U8,15,GPIO14_15*%
%TO.N,/In 4*%
X197590000Y-72880000D03*
%TO.P,U8,16,GPIO15_16*%
%TO.N,unconnected-(U8-GPIO15-Pad16)*%
X200130000Y-72880000D03*
%TO.P,U8,17,GPIO26_17*%
%TO.N,unconnected-(U8-GPIO26-Pad17)*%
X202670000Y-72880000D03*
%TO.P,U8,18,GPIO27_18*%
%TO.N,unconnected-(U8-GPIO27-Pad18)*%
X205210000Y-72880000D03*
%TO.P,U8,19,GPIO28_19*%
%TO.N,unconnected-(U8-GPIO28-Pad19)*%
X207750000Y-72880000D03*
%TO.P,U8,20,GPIO29_20*%
%TO.N,unconnected-(U8-GPIO29-Pad20)*%
X210290000Y-72880000D03*
%TO.P,U8,21,3V_21*%
%TO.N,+3.3V*%
X212830000Y-72880000D03*
%TO.P,U8,22,GND_22*%
%TO.N,GND*%
X215370000Y-72880000D03*
D24*
%TO.P,U8,23,5V_23*%
%TO.N,unconnected-(U8-5V-Pad23)*%
X217910000Y-72880000D03*
%TD*%
D14*
%TO.P,U3,1,AN_1*%
%TO.N,Net-(U3-AN)*%
X190270000Y-73700000D03*
%TO.P,U3,2,CAT_2*%
%TO.N,Net-(U3-CAT)*%
X187730000Y-73700000D03*
%TO.P,U3,3,EM_3*%
%TO.N,/In 3*%
X187730000Y-82300000D03*
%TO.P,U3,4,COL_4*%
%TO.N,+3.3V*%
X190270000Y-82300000D03*
%TD*%
%TO.P,U1,1,AN_1*%
%TO.N,Net-(U1-AN)*%
X176270000Y-73700000D03*
%TO.P,U1,2,CAT_2*%
%TO.N,Net-(U1-CAT)*%
X173730000Y-73700000D03*
%TO.P,U1,3,EM_3*%
%TO.N,/In 1*%
X173730000Y-82300000D03*
%TO.P,U1,4,COL_4*%
%TO.N,+3.3V*%
X176270000Y-82300000D03*
%TD*%
D12*
%TO.P,CN1,1,1_1*%
%TO.N,/Clock+*%
X199166667Y-55000000D03*
%TO.P,CN1,2,2_2*%
%TO.N,/Clock-*%
X194086667Y-55000000D03*
%TD*%
D13*
%TO.P,R9,1*%
%TO.N,/In 2*%
X181000000Y-84500000D03*
%TO.P,R9,2*%
%TO.N,GND*%
X181000000Y-85500000D03*
%TD*%
D14*
%TO.P,U4,1,AN_1*%
%TO.N,Net-(U4-AN)*%
X148270000Y-73700000D03*
%TO.P,U4,2,CAT_2*%
%TO.N,Net-(U4-CAT)*%
X145730000Y-73700000D03*
%TO.P,U4,3,EM_3*%
%TO.N,/In 4*%
X145730000Y-82300000D03*
%TO.P,U4,4,COL_4*%
%TO.N,+3.3V*%
X148270000Y-82300000D03*
%TD*%
D13*
%TO.P,R8,1*%
%TO.N,/In 1*%
X174000000Y-84500000D03*
%TO.P,R8,2*%
%TO.N,GND*%
X174000000Y-85500000D03*
%TD*%
%TO.P,R11,1*%
%TO.N,/In 4*%
X146000000Y-84500000D03*
%TO.P,R11,2*%
%TO.N,GND*%
X146000000Y-85500000D03*
%TD*%
%TO.P,R14,1*%
%TO.N,/In 7*%
X167000000Y-84500000D03*
%TO.P,R14,2*%
%TO.N,GND*%
X167000000Y-85500000D03*
%TD*%
D14*
%TO.P,U2,1,AN_1*%
%TO.N,Net-(U2-AN)*%
X183270000Y-73700000D03*
%TO.P,U2,2,CAT_2*%
%TO.N,Net-(U2-CAT)*%
X180730000Y-73700000D03*
%TO.P,U2,3,EM_3*%
%TO.N,/In 2*%
X180730000Y-82300000D03*
%TO.P,U2,4,COL_4*%
%TO.N,+3.3V*%
X183270000Y-82300000D03*
%TD*%
D25*
%TO.N,GND*%
X152100000Y-85500000D03*
X145100000Y-85500000D03*
X159100000Y-85500000D03*
X173100000Y-85500000D03*
X180100000Y-85500000D03*
X187100000Y-85500000D03*
X140100000Y-83000000D03*
X99800000Y-53400000D03*
X166100000Y-85500000D03*
X98400000Y-61000000D03*
%TD*%
%TO.N,+24V*%
D26*
X148000000Y-58500000D02*
X148000000Y-64120000D01*
X123600000Y-58100000D02*
X123553000Y-58110000D01*
X138600000Y-58100000D02*
X140600000Y-58100000D01*
X123600000Y-58100000D02*
X121500000Y-58100000D01*
X140600000Y-58100000D02*
X142700000Y-58100000D01*
X140600000Y-58100000D02*
X140632000Y-58110000D01*
X138600000Y-58100000D02*
X125600000Y-58100000D01*
X111000000Y-61000000D02*
X111000000Y-60950000D01*
X150500000Y-76000000D02*
X192500000Y-76000000D01*
X144711667Y-58110000D02*
X147610000Y-58110000D01*
X116600000Y-61000000D02*
X111000000Y-61000000D01*
X140810000Y-71310000D02*
X139080000Y-73040000D01*
X138592000Y-58110000D02*
X138600000Y-58100000D01*
X144700000Y-58100000D02*
X144712000Y-58110000D01*
X148000000Y-64120000D02*
X140810000Y-71310000D01*
X121500000Y-58100000D02*
X119500000Y-58100000D01*
X142700000Y-58100000D02*
X144700000Y-58100000D01*
X119500000Y-58100000D02*
X119473000Y-58110000D01*
X138592000Y-58110000D02*
X138600000Y-58100000D01*
X121500000Y-58100000D02*
X121513000Y-58110000D01*
X111000000Y-61000000D02*
X111000000Y-55000000D01*
X119500000Y-58100000D02*
X116600000Y-61000000D01*
X125600000Y-58100000D02*
X123600000Y-58100000D01*
X111000000Y-55000000D02*
X111000000Y-54950000D01*
X125600000Y-58100000D02*
X125593000Y-58110000D01*
X142700000Y-58100000D02*
X142672000Y-58110000D01*
X145130000Y-76000000D02*
X150500000Y-76000000D01*
X140810000Y-71310000D02*
X140810000Y-71680000D01*
X147610000Y-58110000D02*
X148000000Y-58500000D01*
X140810000Y-71680000D02*
X145130000Y-76000000D01*
%TO.N,Net-(RJ4-Pad2)*%
D27*
X120493000Y-59890000D02*
X120500000Y-59900000D01*
X120500000Y-59900000D02*
X128900000Y-68300000D01*
X128900000Y-73000000D02*
X128919999Y-73040000D01*
X128900000Y-68300000D02*
X128900000Y-73000000D01*
%TO.N,Net-(RJ4-Pad4)*%
X122500000Y-59900000D02*
X130199999Y-67600000D01*
X130199999Y-73000000D02*
X130190000Y-73040000D01*
X130199999Y-67600000D02*
X130199999Y-73000000D01*
X122533000Y-59890000D02*
X122500000Y-59900000D01*
%TO.N,Net-(RJ4-Pad6)*%
X124600000Y-59900000D02*
X131500000Y-66800000D01*
X124573000Y-59890000D02*
X124600000Y-59900000D01*
X131500000Y-73000000D02*
X131460000Y-73040000D01*
X131500000Y-66800000D02*
X131500000Y-73000000D01*
%TO.N,Net-(RJ4-Pad8)*%
X132699999Y-66000000D02*
X132699999Y-73000000D01*
X126613000Y-59890000D02*
X126600000Y-59900000D01*
X132699999Y-73000000D02*
X132729999Y-73040000D01*
X126600000Y-59900000D02*
X132699999Y-66000000D01*
%TO.N,/In 6*%
X160000000Y-82570000D02*
X159730000Y-82300000D01*
X160000000Y-84500000D02*
X160000000Y-82570000D01*
X164070000Y-77960000D02*
X159730000Y-82300000D01*
X197590000Y-77960000D02*
X164070000Y-77960000D01*
%TO.N,GND*%
D26*
X159200000Y-85500000D02*
X159300000Y-85500000D01*
X139500000Y-83000000D02*
X139400000Y-83000000D01*
X159300000Y-85500000D02*
X159400000Y-85500000D01*
X99100000Y-61000000D02*
X99200000Y-61000000D01*
X187100000Y-85500000D02*
X187200000Y-85500000D01*
X99800000Y-53700000D02*
X99800000Y-53800000D01*
X145900000Y-85500000D02*
X146000000Y-85500000D01*
X159700000Y-85500000D02*
X159800000Y-85500000D01*
X145500000Y-85500000D02*
X145600000Y-85500000D01*
X152900000Y-85500000D02*
X153000000Y-85500000D01*
X152800000Y-85500000D02*
X152900000Y-85500000D01*
X99700000Y-61000000D02*
X99800000Y-61000000D01*
X99800000Y-53600000D02*
X99800000Y-53700000D01*
X99800000Y-54800000D02*
X99800000Y-54900000D01*
X166300000Y-85500000D02*
X166400000Y-85500000D01*
X139800000Y-83000000D02*
X139700000Y-83000000D01*
X173600000Y-85500000D02*
X173700000Y-85500000D01*
X99800000Y-53500000D02*
X99800000Y-53600000D01*
X140000000Y-83000000D02*
X139900000Y-83000000D01*
X152500000Y-85500000D02*
X152600000Y-85500000D01*
X99200000Y-61000000D02*
X99300000Y-61000000D01*
X98800000Y-61000000D02*
X98900000Y-61000000D01*
X99800000Y-54500000D02*
X99800000Y-54600000D01*
X180300000Y-85500000D02*
X180400000Y-85500000D01*
X99600000Y-61000000D02*
X99700000Y-61000000D01*
X159900000Y-85500000D02*
X160000000Y-85500000D01*
X139100000Y-83000000D02*
X139080000Y-82960000D01*
X187700000Y-85500000D02*
X187800000Y-85500000D01*
X173300000Y-85500000D02*
X173400000Y-85500000D01*
X152700000Y-85500000D02*
X152800000Y-85500000D01*
X99800000Y-54300000D02*
X99800000Y-54400000D01*
X139300000Y-83000000D02*
X139200000Y-83000000D01*
X152400000Y-85500000D02*
X152500000Y-85500000D01*
X145400000Y-85500000D02*
X145500000Y-85500000D01*
X180400000Y-85500000D02*
X180500000Y-85500000D01*
X180500000Y-85500000D02*
X180600000Y-85500000D01*
X152300000Y-85500000D02*
X152400000Y-85500000D01*
X100000000Y-61000000D02*
X100050000Y-61050000D01*
X145100000Y-85500000D02*
X145200000Y-85500000D01*
X98900000Y-61000000D02*
X99000000Y-61000000D01*
X99800000Y-54400000D02*
X99800000Y-54500000D01*
X139600000Y-83000000D02*
X139500000Y-83000000D01*
X173200000Y-85500000D02*
X173300000Y-85500000D01*
X98500000Y-61000000D02*
X98600000Y-61000000D01*
X99800000Y-54100000D02*
X99800000Y-54200000D01*
X98600000Y-61000000D02*
X98700000Y-61000000D01*
X140100000Y-83000000D02*
X140000000Y-83000000D01*
X166100000Y-85500000D02*
X166200000Y-85500000D01*
X159500000Y-85500000D02*
X159600000Y-85500000D01*
X99800000Y-55000000D02*
X99800000Y-54950000D01*
X187300000Y-85500000D02*
X187400000Y-85500000D01*
X180100000Y-85500000D02*
X180200000Y-85500000D01*
X139700000Y-83000000D02*
X139600000Y-83000000D01*
X99800000Y-54200000D02*
X99800000Y-54300000D01*
X180600000Y-85500000D02*
X180700000Y-85500000D01*
X180700000Y-85500000D02*
X180800000Y-85500000D01*
X187800000Y-85500000D02*
X187900000Y-85500000D01*
X145300000Y-85500000D02*
X145400000Y-85500000D01*
X180900000Y-85500000D02*
X181000000Y-85500000D01*
X166400000Y-85500000D02*
X166500000Y-85500000D01*
X173100000Y-85500000D02*
X173200000Y-85500000D01*
X166800000Y-85500000D02*
X166900000Y-85500000D01*
X99800000Y-61000000D02*
X99900000Y-61000000D01*
X99900000Y-61000000D02*
X100000000Y-61000000D01*
X187600000Y-85500000D02*
X187700000Y-85500000D01*
X152200000Y-85500000D02*
X152300000Y-85500000D01*
X99800000Y-53800000D02*
X99800000Y-53900000D01*
X99800000Y-54600000D02*
X99800000Y-54700000D01*
X187900000Y-85500000D02*
X188000000Y-85500000D01*
X159800000Y-85500000D02*
X159900000Y-85500000D01*
X173400000Y-85500000D02*
X173500000Y-85500000D01*
X159100000Y-85500000D02*
X159200000Y-85500000D01*
X145700000Y-85500000D02*
X145800000Y-85500000D01*
X166900000Y-85500000D02*
X167000000Y-85500000D01*
X99500000Y-61000000D02*
X99600000Y-61000000D01*
X152100000Y-85500000D02*
X152200000Y-85500000D01*
X99000000Y-61000000D02*
X99100000Y-61000000D01*
X166500000Y-85500000D02*
X166600000Y-85500000D01*
X139400000Y-83000000D02*
X139300000Y-83000000D01*
X180200000Y-85500000D02*
X180300000Y-85500000D01*
X99800000Y-54900000D02*
X99800000Y-55000000D01*
X166600000Y-85500000D02*
X166700000Y-85500000D01*
X166700000Y-85500000D02*
X166800000Y-85500000D01*
X159600000Y-85500000D02*
X159700000Y-85500000D01*
X98700000Y-61000000D02*
X98800000Y-61000000D01*
X173800000Y-85500000D02*
X173900000Y-85500000D01*
X99800000Y-54000000D02*
X99800000Y-54100000D01*
X98400000Y-61000000D02*
X98500000Y-61000000D01*
X152600000Y-85500000D02*
X152700000Y-85500000D01*
X99400000Y-61000000D02*
X99500000Y-61000000D01*
X166200000Y-85500000D02*
X166300000Y-85500000D01*
X99800000Y-53900000D02*
X99800000Y-54000000D01*
X99300000Y-61000000D02*
X99400000Y-61000000D01*
X187500000Y-85500000D02*
X187600000Y-85500000D01*
X159400000Y-85500000D02*
X159500000Y-85500000D01*
X139900000Y-83000000D02*
X139800000Y-83000000D01*
X145600000Y-85500000D02*
X145700000Y-85500000D01*
X99800000Y-53400000D02*
X99800000Y-53500000D01*
X180800000Y-85500000D02*
X180900000Y-85500000D01*
X173500000Y-85500000D02*
X173600000Y-85500000D01*
X145800000Y-85500000D02*
X145900000Y-85500000D01*
X187400000Y-85500000D02*
X187500000Y-85500000D01*
X139200000Y-83000000D02*
X139100000Y-83000000D01*
X99800000Y-54700000D02*
X99800000Y-54800000D01*
X173900000Y-85500000D02*
X174000000Y-85500000D01*
X187200000Y-85500000D02*
X187300000Y-85500000D01*
X145200000Y-85500000D02*
X145300000Y-85500000D01*
X173700000Y-85500000D02*
X173800000Y-85500000D01*
%TO.N,Net-(U6-AN)*%
D27*
X163600000Y-75000000D02*
X164500000Y-75000000D01*
X162270000Y-73700000D02*
X162300000Y-73700000D01*
X162300000Y-73700000D02*
X163600000Y-75000000D01*
%TO.N,Net-(U6-CAT)*%
X159730000Y-73700000D02*
X159730000Y-62970000D01*
X159730000Y-62970000D02*
X162810000Y-59890000D01*
%TO.N,+3.3V*%
D26*
X158000000Y-88000000D02*
X150500000Y-88000000D01*
X150500000Y-88000000D02*
X148270000Y-85770000D01*
X179000000Y-88000000D02*
X172000000Y-88000000D01*
X183270000Y-82300000D02*
X183270000Y-85270000D01*
X176270000Y-82300000D02*
X176270000Y-85270000D01*
X176270000Y-85270000D02*
X179000000Y-88000000D01*
X198850000Y-86850000D02*
X198850000Y-89295082D01*
X191000000Y-88000000D02*
X192840000Y-89840000D01*
X199045000Y-86665000D02*
X212830000Y-72880000D01*
X162270000Y-82300000D02*
X162270000Y-85270000D01*
X169270000Y-85270000D02*
X172000000Y-88000000D01*
X199035000Y-86665000D02*
X198850000Y-86850000D01*
X199045000Y-86665000D02*
X199035000Y-86665000D01*
X198850000Y-89295082D02*
X198305082Y-89840000D01*
X148270000Y-85770000D02*
X148270000Y-82300000D01*
X183270000Y-85270000D02*
X186000000Y-88000000D01*
X165000000Y-88000000D02*
X158000000Y-88000000D01*
X172000000Y-88000000D02*
X165000000Y-88000000D01*
X155270000Y-82300000D02*
X155270000Y-85270000D01*
X190270000Y-82300000D02*
X190270000Y-87270000D01*
X186000000Y-88000000D02*
X179000000Y-88000000D01*
X192840000Y-89840000D02*
X198305082Y-89840000D01*
X162270000Y-85270000D02*
X165000000Y-88000000D01*
X155270000Y-85270000D02*
X158000000Y-88000000D01*
X169270000Y-82300000D02*
X169270000Y-85270000D01*
X190270000Y-87270000D02*
X191000000Y-88000000D01*
X191000000Y-88000000D02*
X186000000Y-88000000D01*
%TO.N,Net-(U2-AN)*%
D27*
X183270000Y-73700000D02*
X184200000Y-73700000D01*
X184200000Y-73700000D02*
X185500000Y-75000000D01*
%TO.N,/Clock+*%
X183388228Y-57048000D02*
X184450228Y-58110000D01*
X184450228Y-58110000D02*
X196056667Y-58110000D01*
X196056667Y-58110000D02*
X209430000Y-58110000D01*
X176828333Y-58110000D02*
X177890333Y-57048000D01*
X177890333Y-57048000D02*
X183388228Y-57048000D01*
X199166667Y-55000000D02*
X196056667Y-58110000D01*
X209430000Y-58110000D02*
X212540000Y-55000000D01*
%TO.N,/Clock-*%
X175766333Y-57670105D02*
X180436438Y-53000000D01*
X205460000Y-53000000D02*
X207460000Y-55000000D01*
X192086667Y-53000000D02*
X205460000Y-53000000D01*
X175766333Y-58885630D02*
X175766333Y-57670105D01*
X194086667Y-55000000D02*
X192086667Y-53000000D01*
X176770703Y-59890000D02*
X175766333Y-58885630D01*
X177848333Y-59890000D02*
X176770703Y-59890000D01*
X180436438Y-53000000D02*
X192086667Y-53000000D01*
%TO.N,Net-(U1-CAT)*%
X173730000Y-66048333D02*
X179888333Y-59890000D01*
X173730000Y-73700000D02*
X173730000Y-66048333D01*
%TO.N,Net-(U2-CAT)*%
X180730000Y-61088333D02*
X181928333Y-59890000D01*
X180730000Y-73700000D02*
X180730000Y-61088333D01*
%TO.N,Net-(U3-CAT)*%
X187730000Y-63651667D02*
X183968333Y-59890000D01*
X187730000Y-73700000D02*
X187730000Y-63651667D01*
%TO.N,Net-(U7-AN)*%
X170200000Y-73700000D02*
X171500000Y-75000000D01*
X169270000Y-73700000D02*
X170200000Y-73700000D01*
%TO.N,Net-(U7-CAT)*%
X166730000Y-73700000D02*
X166730000Y-61770000D01*
X166730000Y-61770000D02*
X164850000Y-59890000D01*
%TO.N,/In 7*%
X193500000Y-78360000D02*
X170670000Y-78360000D01*
X197590000Y-80500000D02*
X195640000Y-80500000D01*
X195640000Y-80500000D02*
X193500000Y-78360000D01*
X167000000Y-84500000D02*
X167000000Y-82570000D01*
X167000000Y-82570000D02*
X166730000Y-82300000D01*
X170670000Y-78360000D02*
X166730000Y-82300000D01*
%TO.N,Net-(U4-AN)*%
X148270000Y-73700000D02*
X149200000Y-73700000D01*
X149200000Y-73700000D02*
X150500000Y-75000000D01*
%TO.N,Net-(U5-AN)*%
X155270000Y-73700000D02*
X156200000Y-73700000D01*
X156200000Y-73700000D02*
X157500000Y-75000000D01*
%TO.N,Net-(U4-CAT)*%
X145730000Y-72890000D02*
X158730000Y-59890000D01*
X145730000Y-73700000D02*
X145730000Y-72890000D01*
%TO.N,Net-(U5-CAT)*%
X152730000Y-73700000D02*
X152730000Y-67930000D01*
X152730000Y-67930000D02*
X160770000Y-59890000D01*
%TO.N,/In 3*%
X195100000Y-81681372D02*
X192978628Y-79560000D01*
X192978628Y-79560000D02*
X189970000Y-79560000D01*
X197590000Y-88120000D02*
X195100000Y-85630000D01*
X189970000Y-79560000D02*
X187730000Y-81800000D01*
X188000000Y-82570000D02*
X187730000Y-82300000D01*
X188000000Y-84500000D02*
X188000000Y-82570000D01*
X187730000Y-81800000D02*
X187730000Y-82300000D01*
X195100000Y-85630000D02*
X195100000Y-81681372D01*
%TO.N,/In 5*%
X197590000Y-75420000D02*
X195450000Y-77560000D01*
X153000000Y-84500000D02*
X153000000Y-82570000D01*
X153000000Y-82570000D02*
X152730000Y-82300000D01*
X157470000Y-77560000D02*
X152730000Y-82300000D01*
X195450000Y-77560000D02*
X157470000Y-77560000D01*
%TO.N,/Out 1*%
X128920000Y-83220000D02*
X138890000Y-93190000D01*
X138890000Y-93190000D02*
X212840000Y-93190000D01*
X128920000Y-82960000D02*
X128920000Y-83220000D01*
X212840000Y-93190000D02*
X217910000Y-88120000D01*
X128919999Y-82960000D02*
X128900000Y-83000000D01*
%TO.N,/Out 2*%
X210700000Y-92790000D02*
X215370000Y-88120000D01*
X139790000Y-92790000D02*
X210700000Y-92790000D01*
X130190000Y-83190000D02*
X139790000Y-92790000D01*
X130190000Y-82960000D02*
X130190000Y-83190000D01*
X130199999Y-83000000D02*
X130190000Y-82960000D01*
%TO.N,/Out 3*%
X131460000Y-82960000D02*
X131460000Y-83260000D01*
X140590000Y-92390000D02*
X208560000Y-92390000D01*
X131460000Y-83260000D02*
X140590000Y-92390000D01*
X208560000Y-92390000D02*
X212830000Y-88120000D01*
%TO.N,/Out 4*%
X141490000Y-91990000D02*
X206420000Y-91990000D01*
X132730000Y-83230000D02*
X141490000Y-91990000D01*
X132730000Y-82960000D02*
X132730000Y-83230000D01*
X132699999Y-83000000D02*
X132729999Y-82960000D01*
X206420000Y-91990000D02*
X210290000Y-88120000D01*
%TO.N,/Out 5*%
X204280000Y-91590000D02*
X207750000Y-88120000D01*
X134000000Y-82960000D02*
X134000000Y-83200000D01*
X134000000Y-83200000D02*
X142390000Y-91590000D01*
X142390000Y-91590000D02*
X204280000Y-91590000D01*
%TO.N,/Out 6*%
X135270000Y-83270000D02*
X143190000Y-91190000D01*
X135270000Y-82960000D02*
X135270000Y-83270000D01*
X143190000Y-91190000D02*
X202140000Y-91190000D01*
X202140000Y-91190000D02*
X205210000Y-88120000D01*
X135300000Y-83000000D02*
X135270000Y-82960000D01*
%TO.N,/Out 7*%
X200000000Y-90790000D02*
X202670000Y-88120000D01*
X144090000Y-90790000D02*
X200000000Y-90790000D01*
X136540000Y-82960000D02*
X136500000Y-83000000D01*
X136540000Y-82960000D02*
X136540000Y-83240000D01*
X136540000Y-83240000D02*
X144090000Y-90790000D01*
%TO.N,/Out 8*%
X200130000Y-89390000D02*
X200130000Y-88120000D01*
X137810000Y-82960000D02*
X137810000Y-83210000D01*
X137810000Y-83210000D02*
X144990000Y-90390000D01*
X144990000Y-90390000D02*
X199130000Y-90390000D01*
X137800000Y-83000000D02*
X137810000Y-82960000D01*
X199130000Y-90390000D02*
X200130000Y-89390000D01*
%TO.N,Net-(RJ3-Pad8)*%
X137800000Y-73000000D02*
X137810000Y-73040000D01*
X137800000Y-67800000D02*
X137800000Y-73000000D01*
X145732000Y-59890000D02*
X145700000Y-59900000D01*
X145700000Y-59900000D02*
X137800000Y-67800000D01*
%TO.N,Net-(RJ3-Pad6)*%
X136500000Y-73000000D02*
X136540000Y-73040000D01*
X143700000Y-59900000D02*
X136500000Y-67099999D01*
X136500000Y-67099999D02*
X136500000Y-73000000D01*
X143692000Y-59890000D02*
X143700000Y-59900000D01*
%TO.N,Net-(RJ3-Pad4)*%
X141652000Y-59890000D02*
X141700000Y-59900000D01*
X141700000Y-59900000D02*
X135300000Y-66300000D01*
X135300000Y-73000000D02*
X135270000Y-73040000D01*
X135300000Y-66300000D02*
X135300000Y-73000000D01*
%TO.N,Net-(RJ3-Pad2)*%
X134000000Y-73000000D02*
X134000000Y-73040000D01*
X134000000Y-65500000D02*
X134000000Y-73000000D01*
X139612000Y-59890000D02*
X139600000Y-59900000D01*
X139600000Y-59900000D02*
X134000000Y-65500000D01*
%TO.N,Net-(U1-AN)*%
X176270000Y-73700000D02*
X177200000Y-73700000D01*
X177200000Y-73700000D02*
X178500000Y-75000000D01*
%TO.N,/In 2*%
X195500000Y-85000000D02*
X195500000Y-81515686D01*
X196080000Y-85580000D02*
X195500000Y-85000000D01*
X183870000Y-79160000D02*
X180730000Y-82300000D01*
X181000000Y-82570000D02*
X180730000Y-82300000D01*
X193144314Y-79160000D02*
X183870000Y-79160000D01*
X197590000Y-85580000D02*
X196080000Y-85580000D01*
X181000000Y-84500000D02*
X181000000Y-82570000D01*
X195500000Y-81515686D02*
X193144314Y-79160000D01*
%TO.N,/In 1*%
X193310000Y-78760000D02*
X177270000Y-78760000D01*
X177270000Y-78760000D02*
X173730000Y-82300000D01*
X197590000Y-83040000D02*
X197600000Y-83000000D01*
X197590000Y-83040000D02*
X193310000Y-78760000D01*
%TO.N,/In 4*%
X150870000Y-77160000D02*
X145730000Y-82300000D01*
X197590000Y-72880000D02*
X193310000Y-77160000D01*
X193310000Y-77160000D02*
X150870000Y-77160000D01*
X146000000Y-82570000D02*
X145730000Y-82300000D01*
X146000000Y-84500000D02*
X146000000Y-82570000D01*
%TO.N,Net-(U3-AN)*%
X191200000Y-73700000D02*
X192500000Y-75000000D01*
X190270000Y-73700000D02*
X191200000Y-73700000D01*
%TD*%
M02*
